<svg width="270" height="390" viewBox="0 0 270 390" fill="none" xmlns="http://www.w3.org/2000/svg">
<g clip-path="url(#clip0_764_2304)">
<path d="M270 0H0V390H270V0Z" fill="#F7F2EC"/>
<path d="M27.6105 299.055C28.0065 299.682 28.2675 300.169 28.5915 300.61C28.9245 301.05 29.4285 301.321 30.0585 301.182C30.7695 301.027 30.8145 300.509 30.7785 299.991C30.7335 299.38 30.6615 298.777 30.5985 298.096C31.2375 297.926 31.8225 297.764 32.4075 297.617C32.9205 297.485 33.3435 297.207 33.2175 296.751C33.1365 296.457 32.7585 296.148 32.4165 296.008C31.8225 295.769 31.1565 295.66 30.3555 295.452C30.3285 294.686 30.3015 293.92 30.2655 293.147C30.2475 292.698 30.2925 292.227 30.1575 291.801C30.0765 291.546 29.7345 291.252 29.4375 291.167C28.9785 291.028 28.6005 291.283 28.4475 291.678C28.3035 292.026 28.2315 292.389 28.0965 292.745C27.9255 293.209 27.7275 293.665 27.4845 294.245C26.8815 294.029 26.3865 293.773 25.8555 293.696C25.4325 293.634 24.8925 293.673 24.5505 293.858C24.0825 294.121 24.2355 294.609 24.4695 294.972C24.7485 295.397 25.0905 295.8 25.4505 296.178C25.9545 296.712 26.1435 297.199 25.5945 297.826C25.2615 298.212 25.0365 298.7 24.9105 299.171C24.8385 299.434 24.9555 299.829 25.1715 300.037C25.4865 300.354 25.9455 300.293 26.3235 300.006C26.7105 299.72 27.1065 299.434 27.6285 299.055H27.6105Z" fill="#FF8000"/>
<path d="M204.766 1C204.766 1 145.42 36.3568 175.516 88.8739C205.603 141.391 270.484 99.3757 309.04 109.073C347.596 118.771 311.632 189.871 373.804 220.573V1H204.766Z" fill="#FF8000" fill-opacity="0.8"/>
<path d="M103.613 38.666C103.613 38.666 110.561 69.5529 148.262 75.5231C169.979 78.9644 192.848 65.8641 214.025 63.3353C234.374 60.9071 245.426 69.9396 249.881 86.226C254.795 104.175 252.5 120.949 276.152 129.247" stroke="#D4E024" stroke-width="2" stroke-linecap="round" stroke-linejoin="round"/>
<path d="M251.707 311.294C251.707 311.294 342.607 304.984 329.863 400.962C317.119 496.941 262.417 503.058 239.269 495.966C216.13 488.875 169.231 458.429 198.472 429.081C227.713 399.733 235.552 401.674 223.942 376.935C212.332 352.204 201.982 332.12 251.698 311.286L251.707 311.294Z" fill="#F59DA1"/>
<path d="M53.8918 394.461C54.5938 402.388 52.5868 410.515 47.4118 417.39C36.7378 431.573 14.0668 438.077 -4.37423 432.246C-17.5952 428.062 -27.7562 418.581 -34.7762 408.087C-38.8892 401.939 -42.1562 395.111 -41.9942 388.027C-41.4452 363.45 -0.279228 357.503 21.3208 360.86C40.4818 363.837 52.4968 378.77 53.8918 394.461Z" fill="#FF7979" fill-opacity="0.7"/>
<path d="M-230 240.756H179.81" stroke="#32312D" stroke-miterlimit="10"/>
<g opacity="0.7">
<path d="M211.344 242.118C223.696 238.074 235.968 231.048 248.803 233.089C254.716 234.029 260.138 236.852 265.441 239.633C278.003 246.224 290.565 252.814 303.127 259.405C297.093 263.753 289.781 265.872 282.629 267.915C275.967 269.818 269.305 271.72 262.642 273.623C256.888 275.266 250.455 276.853 245.151 274.081C240.632 271.719 237.842 266.569 233.004 264.96C230.089 263.991 226.924 264.489 223.853 264.533C215.911 264.647 208.031 261.393 202.298 255.932C194.165 248.185 203.936 244.543 211.344 242.118Z" fill="#FFB0B0" fill-opacity="0.7"/>
</g>
<g opacity="0.8">
<path d="M198.488 227.122C201.711 214.925 204.934 202.727 208.157 190.53C208.87 187.83 209.687 184.96 211.8 183.136C213.238 181.895 215.106 181.296 216.918 180.728C229.268 176.856 241.617 172.984 253.967 169.113C250.636 180.466 241.805 189.192 235.077 198.924C231.25 204.459 228.047 210.428 223.873 215.705C220.298 220.225 216.063 224.172 211.847 228.1C208.279 231.423 201.179 240.974 196.363 241.507C194.789 237.781 197.471 230.97 198.488 227.122Z" fill="#FFB0B0" fill-opacity="0.7"/>
</g>
<g opacity="0.8">
<path d="M153.794 173.158C145.562 177.972 134.962 178.48 126.307 174.473C124.935 173.838 122.925 173.287 122.234 174.632C121.965 175.155 122.046 175.782 122.139 176.363C123.107 182.453 124.553 188.713 123.078 194.7C122.854 195.611 122.56 196.539 122.688 197.468C122.857 198.694 123.721 199.694 124.551 200.611C135.172 212.342 146.491 223.44 158.43 233.827C161.641 236.62 165.003 239.424 169.041 240.767C172.002 241.752 175.194 241.901 178.145 242.916C182.042 244.256 186.711 248.136 190.987 246.765C190.352 240.603 186.187 233.489 183.703 227.771C180.961 221.46 178.028 215.231 174.91 209.097C168.612 196.703 161.557 184.692 153.794 173.158Z" fill="#FFB0B0" fill-opacity="0.7"/>
</g>
<g opacity="0.8">
<path d="M171.635 220.02C170.235 216.922 168.947 213.738 168.364 210.388C167.644 206.255 168.021 202.019 168.411 197.842C169.104 190.412 169.836 182.985 170.606 175.563C171.019 171.584 171.464 167.522 173.149 163.893C175.878 158.015 181.654 153.712 183.317 147.449C183.864 156.707 185.463 165.903 188.07 174.803C189.052 178.156 190.204 181.52 192.216 184.376C194.042 186.968 196.518 189.055 198.304 191.675C201.435 196.268 202.166 202.04 202.648 207.578C203.018 211.838 203.29 216.162 202.489 220.362C201.323 226.474 197.976 231.914 194.692 237.199C193.541 239.051 192.328 240.966 190.489 242.138C182.226 247.404 174.048 225.361 171.635 220.02Z" fill="#FFB0B0" fill-opacity="0.7"/>
</g>
<g opacity="0.6">
<path d="M237.855 214.362C241.27 214.712 244.581 215.786 247.998 216.113C252.385 216.533 256.786 215.709 261.116 214.889C266.447 213.88 271.778 212.87 277.109 211.861C267.331 218.972 257.328 226.317 250.753 236.464C248.675 239.67 246.945 243.151 244.304 245.913C239.165 251.287 231.195 253.17 223.783 252.577C216.371 251.984 209.328 249.225 202.411 246.496C201.533 246.15 200.587 245.744 200.137 244.915C199.785 244.266 199.812 243.485 199.886 242.751C201.514 226.544 222.403 212.779 237.855 214.362Z" fill="#FFB0B0" fill-opacity="0.7"/>
</g>
<path d="M256.107 194.586C258.53 194.132 261.249 194.541 263.034 196.241C260.356 198.852 257.677 201.463 254.999 204.073C254.783 204.284 254.553 204.502 254.261 204.578C253.87 204.68 253.466 204.503 253.1 204.331C250.739 203.219 245.012 201.923 246.76 198.816C247.821 196.933 254.173 194.947 256.107 194.586Z" stroke="black" stroke-miterlimit="10" stroke-linecap="round" stroke-linejoin="round"/>
<path d="M228.099 152.087C226.43 154.15 224.956 156.372 223.705 158.713C222.776 160.451 221.286 164.571 218.875 164.659C216.063 164.762 216.416 162.414 216.845 160.454C217.916 155.553 223.241 151.968 228.099 152.087Z" stroke="black" stroke-miterlimit="10" stroke-linecap="round" stroke-linejoin="round"/>
<path d="M215.692 140.888C216.419 139 217.276 136.959 219.057 136C219.441 138.527 219.636 141.083 219.638 143.64C219.639 144.147 219.629 144.668 219.437 145.137C219.229 145.646 218.826 146.048 218.413 146.412C216.835 147.802 214.741 149.229 212.68 149.217C213.198 146.423 214.659 143.569 215.692 140.888Z" fill="#BC5C7D" fill-opacity="0.7"/>
<path d="M162.601 151.835C162.557 151.22 162.509 150.589 162.246 150.031C161.811 149.106 160.87 148.541 159.961 148.074C156.228 146.158 152.168 144.983 148.137 143.82C148.668 143.973 150.814 149.651 151.319 150.434C152.784 152.707 154.557 154.812 156.587 156.602C162.504 161.817 163.016 157.619 162.601 151.835Z" fill="#BC5C7D" fill-opacity="0.7"/>
<path d="M187.767 235.716C190.534 234.105 194.094 233.941 196.997 235.293C199.479 236.448 201.366 238.557 203.179 240.609C203.902 241.428 204.626 242.247 205.349 243.066C206.124 243.943 206.938 244.912 207.015 246.079C207.082 247.095 206.572 248.049 206.078 248.938C204.73 251.366 203.381 253.795 202.033 256.223C201.821 256.605 201.593 257.004 201.217 257.227C200.539 257.63 199.677 257.315 198.963 256.979C191.983 253.693 174.574 243.397 187.767 235.716Z" fill="#BC5C7D" fill-opacity="0.7"/>
<path d="M148.406 376.792C151.49 374.678 153.115 371.059 154.593 367.624C157.133 361.72 159.673 355.815 162.214 349.911C165.378 342.557 168.572 335.096 169.707 327.172C171.705 313.22 167.177 298.854 169.794 285.005C172.38 271.317 181.555 259.941 190.475 249.242" stroke="black" stroke-miterlimit="10" stroke-linecap="round" stroke-linejoin="round"/>
<path d="M263.849 228.888C267.543 228.52 271.276 228.152 274.956 228.637C278.702 229.131 282.273 230.493 285.76 231.948C276.506 235.355 267.252 238.762 257.999 242.169C255.142 243.221 252.274 244.276 249.295 244.902C246.191 245.555 242.997 245.734 239.828 245.575C236.561 245.411 228.238 245.206 225.959 242.318C222.209 237.566 229.47 235.561 232.769 234.429C242.765 231.001 253.392 229.93 263.849 228.888Z" stroke="black" stroke-miterlimit="10" stroke-linecap="round" stroke-linejoin="round"/>
<path d="M169.068 217.289C163.429 212.648 158.606 206.744 156.415 199.777C155.251 196.075 154.856 192.18 153.985 188.398C152.083 180.138 147.894 171.685 150.439 163.6C153.499 167.546 156.559 171.491 159.618 175.437C163.83 180.868 168.074 186.335 173.224 190.886C177.058 194.275 181.432 197.201 184.3 201.439C188.236 207.256 191.302 222.373 186.842 228.299C180.59 225.946 174.221 221.53 169.068 217.289Z" stroke="black" stroke-miterlimit="10" stroke-linecap="round" stroke-linejoin="round"/>
<path d="M-18.599 29.14C-20.549 26.954 -22.0141 24.389 -23.4641 21.844C-34.6421 2.229 -45.821 -17.385 -57 -37C-44.337 -28.271 -31.675 -19.542 -19.013 -10.813C-15.661 -8.502 -12.27 -6.158 -9.58801 -3.094C-3.44201 3.924 -1.69005 13.882 4.04395 21.24C6.85495 24.847 10.522 27.695 13.511 31.156C15.262 33.183 20.249 39.67 17.407 42.49C15.176 44.705 8.69595 41.077 5.99695 40.316C-2.64205 37.88 -12.324 36.175 -18.599 29.14Z" fill="#918676" fill-opacity="0.5"/>
<path d="M34.8596 36.2515C29.9256 29.7905 26.1496 22.5365 22.3996 15.3245C15.1196 1.31954 7.83859 -12.6845 0.558594 -26.6895C8.32659 -13.3035 16.2776 0.312549 27.7476 10.7025C36.5836 18.7055 47.4976 24.8045 53.9006 34.8605C59.2176 43.2105 61.0425 52.2776 64.4175 61.3916C52.9315 54.3396 43.0666 46.9975 34.8596 36.2515Z" fill="#918676" fill-opacity="0.5"/>
<path d="M68.822 97.0589C62.575 99.1179 56.049 100.185 49.528 101.045C42.194 102.012 34.75 102.726 27.413 101.785C14.37 100.112 2.60599 93.3699 -8.76501 86.7659C-21.566 79.3309 -34.367 71.8959 -47.168 64.4609C-34.342 73.1169 -18.733 77.0239 -3.27002 77.5919C7.69098 77.9949 18.642 76.8019 29.546 75.6119C40.953 74.3669 52.359 73.1209 63.766 71.8759C69.85 71.2119 93.484 68.2119 96.255 76.7549C98.733 84.3979 74.362 95.2339 68.822 97.0589Z" fill="#918676" fill-opacity="0.5"/>
<path d="M94.4828 65.6925C93.0818 64.5475 91.6508 63.3665 90.7438 61.8015C89.8818 60.3135 89.5558 58.5865 89.2048 56.9025C85.9368 41.2195 79.3038 26.2465 69.8848 13.2885C68.7288 11.6985 67.5098 10.0975 66.9188 8.22252C65.1328 2.56352 69.4178 -4.14648 66.4258 -9.27148C80.3188 1.16452 94.3958 11.7805 104.971 25.5685C107.556 28.9385 109.939 32.5275 111.359 36.5305C113.317 42.0485 113.343 48.0365 113.347 53.8915C113.35 58.3025 124.424 82.3315 120.208 84.8835C115.719 87.5975 97.8688 68.2415 94.4828 65.6925Z" fill="#918676" fill-opacity="0.5"/>
<path d="M96.5757 107.902C88.8047 111.478 80.7117 115.305 75.5367 122.116C73.6557 124.591 72.2118 127.406 70.0748 129.664C67.0788 132.829 62.9738 134.65 59.0598 136.567C48.2788 141.847 38.1368 148.43 28.9258 156.129C30.0108 157.831 32.5357 157.555 34.4957 157.073C52.8107 152.564 72.2617 147.399 84.9407 133.434C87.6337 130.468 89.9788 127.14 93.1268 124.663C98.0568 120.785 104.426 119.384 110.198 116.927C114.8 114.968 145.336 103.222 139.391 96.8297C134.559 91.6337 101.864 105.469 96.5757 107.902Z" fill="#918676" fill-opacity="0.5"/>
<path d="M131.718 55.8588C130.498 37.7158 121.959 20.9848 113.59 4.8418C119.543 8.5938 125.072 13.0188 130.038 18.0048C135.076 23.0638 139.613 28.8398 141.947 35.5878C145.682 46.3858 143.394 58.1998 141.758 69.5078C140.788 76.2118 148.723 98.5158 147.752 104.882C137.918 97.9918 132.41 66.1508 131.718 55.8588Z" fill="#918676" fill-opacity="0.5"/>
<path d="M90.9648 24.5391C96.6908 32.0451 100.804 40.7761 102.944 49.9711C104.396 56.2081 104.953 62.6521 106.837 68.7721C108.721 74.8921 112.215 80.8851 117.87 83.8901" fill="#918676" fill-opacity="0.5"/>
<path d="M90.9648 24.5391C96.6908 32.0451 100.804 40.7761 102.944 49.9711C104.396 56.2081 104.953 62.6521 106.837 68.7721C108.721 74.8921 112.215 80.8851 117.87 83.8901" stroke="black" stroke-opacity="0.7" stroke-miterlimit="10" stroke-linecap="round" stroke-linejoin="round"/>
<path d="M11.2344 86.2391C30.9524 90.5411 52.1854 94.7231 70.7624 86.8341C78.7624 83.4371 88.7974 77.4541 97.2034 75.2441" fill="#918676" fill-opacity="0.5"/>
<path d="M11.2344 86.2391C30.9524 90.5411 52.1854 94.7231 70.7624 86.8341C78.7624 83.4371 88.7974 77.4541 97.2034 75.2441" stroke="black" stroke-opacity="0.7" stroke-miterlimit="10" stroke-linecap="round" stroke-linejoin="round"/>
<path d="M29.6016 17.2246C37.0096 22.9036 44.6106 28.7996 49.2626 36.8916C51.6196 40.9926 53.1346 45.5256 55.3646 49.6976C59.0456 56.5876 66.8566 63.7446 73.6306 67.6346" stroke="black" stroke-opacity="0.7" stroke-miterlimit="10" stroke-linecap="round" stroke-linejoin="round"/>
<path d="M71.1367 133.948C74.2427 132.73 88.4637 115.443 100.262 113.741C104.119 113.185 117.706 108.396 121.059 106.41C126.09 103.43 134.4 98.3194 141.24 98.3184" fill="#918676" fill-opacity="0.5"/>
<path d="M71.1367 133.948C74.2427 132.73 88.4637 115.443 100.262 113.741C104.119 113.185 117.706 108.396 121.059 106.41C126.09 103.43 134.4 98.3194 141.24 98.3184" stroke="black" stroke-opacity="0.7" stroke-miterlimit="10" stroke-linecap="round" stroke-linejoin="round"/>
<path d="M134.008 33.1543C137.46 46.7703 138.696 60.9453 137.654 74.9533C137.496 77.0703 137.288 79.2103 137.626 81.3063C137.983 83.5193 138.932 85.5853 139.872 87.6203C142.249 92.7683 144.627 97.9163 147.004 103.064" fill="#918676" fill-opacity="0.5"/>
<path d="M134.008 33.1543C137.46 46.7703 138.696 60.9453 137.654 74.9533C137.496 77.0703 137.288 79.2103 137.626 81.3063C137.983 83.5193 138.932 85.5853 139.872 87.6203C142.249 92.7683 144.627 97.9163 147.004 103.064" stroke="black" stroke-opacity="0.7" stroke-miterlimit="10" stroke-linecap="round" stroke-linejoin="round"/>
<path d="M-29.6523 -4.22852C-24.5363 8.85948 -13.6153 18.6845 -2.80334 27.6605C6.50266 35.3865 16.0537 42.9025 26.5507 48.9105C48.1457 61.2705 72.8507 66.7825 96.3557 74.9475C119.86 83.1125 143.532 95.0025 157.201 115.793" stroke="black" stroke-opacity="0.7" stroke-miterlimit="10" stroke-linecap="round" stroke-linejoin="round"/>
<path d="M67.4492 302.115C71.4712 311.661 79.9863 318.685 89.2083 323.402C98.4313 328.119 108.504 330.872 118.253 334.374C128.002 337.876 137.71 342.308 145.013 349.654C151.168 355.845 155.258 363.742 159.251 371.504C164.963 382.606 170.679 393.717 175.686 405.154" stroke="black" stroke-miterlimit="10" stroke-linecap="round" stroke-linejoin="round"/>
<path opacity="0.7" d="M46.9026 270.998C44.2546 259.769 42.1087 248.421 40.4727 237C46.7917 247.79 54.1847 257.951 62.5067 267.285C65.2737 270.389 68.2566 273.611 69.1426 277.674C69.7496 280.455 69.2966 283.362 68.5646 286.113C67.6736 289.462 66.2086 292.969 63.7136 295.454C60.5006 298.654 59.1546 298.726 56.8246 295.52C51.5256 288.231 48.9456 279.664 46.9026 270.998Z" fill="#BC5C7D" fill-opacity="0.5"/>
<path opacity="0.8" d="M46.1589 291.588C42.8139 288.473 39.1769 285.212 34.6579 284.529C32.3379 284.178 29.9759 284.548 27.6619 284.936C18.6959 286.439 9.77793 288.228 0.925935 290.301C0.904935 292.506 3.04593 294.048 5.00293 295.063C10.7119 298.025 16.9539 299.958 23.3379 300.742C27.7419 301.283 32.2379 301.287 36.5229 302.437C40.2829 303.446 44.0249 305.342 47.8639 304.695C49.7879 304.37 55.1579 302.371 54.9859 299.946C54.8429 297.952 47.6499 292.977 46.1589 291.588Z" fill="#BC5C7D" fill-opacity="0.5"/>
<path opacity="0.7" d="M29.6708 336.983C28.9458 338.21 28.1938 339.593 28.4998 340.985C28.7338 342.049 29.5398 342.874 30.2068 343.736C31.8168 345.817 32.7418 348.421 32.8048 351.051C35.8938 347.909 39.3028 345.082 42.9618 342.628C46.2388 340.43 49.8908 338.345 51.6668 334.822C53.2318 331.719 53.0448 328.058 53.7868 324.663C54.5958 320.966 56.5028 317.619 57.9398 314.118C59.0788 311.345 61.9468 302.897 56.6728 303.72C53.2008 304.262 48.1848 310.721 45.9518 313.209C39.5178 320.38 34.5498 328.721 29.6708 336.983Z" fill="#BC5C7D" fill-opacity="0.5"/>
<path opacity="0.5" d="M76.8271 265.017C77.8321 263.009 78.8462 260.985 80.2332 259.219C82.1762 256.746 84.7682 254.878 87.3242 253.046C93.8692 248.352 100.413 243.659 106.958 238.965C106.007 247.171 99.4471 253.526 96.4241 261.214C94.6771 265.656 94.1462 270.468 93.0032 275.102C91.8602 279.737 89.9331 284.443 86.1691 287.377C83.2501 289.653 79.5461 290.618 75.9471 291.483C73.6481 292.035 70.9501 292.483 69.1511 290.949C62.5341 285.308 73.7931 271.081 76.8271 265.017Z" fill="#BC5C7D" fill-opacity="0.5"/>
<path opacity="0.7" d="M69.8391 312.693C68.8151 316.373 66.8661 319.897 66.9231 323.716C66.9921 328.391 70.059 332.479 73.42 335.731C79.773 341.877 87.712 346.369 96.251 348.649C95.142 340.967 94.0171 333.224 91.3831 325.923C88.7491 318.622 84.465 311.703 78.131 307.217C75.454 305.321 72.6671 303.561 70.1791 301.523C70.8751 305.247 70.8601 309.025 69.8391 312.693Z" fill="#BC5C7D" fill-opacity="0.5"/>
<path d="M73.9668 253.723C76.4208 256.651 79.6517 259.054 81.1787 262.555C83.0487 266.841 81.9458 271.831 80.2298 276.181C76.9858 284.403 71.6138 291.775 64.7808 297.382C62.6158 289.929 60.4388 282.413 59.8188 274.676C59.1988 266.94 60.2397 258.869 64.1527 252.166C65.8067 249.333 67.6168 246.578 69.0398 243.695C69.9468 247.372 71.5218 250.805 73.9668 253.723Z" stroke="black" stroke-miterlimit="10" stroke-linecap="round" stroke-linejoin="round"/>
<path opacity="0.8" d="M103.004 292.466C106.62 291.677 110.5 290.907 113.928 292.3C117.176 293.62 119.376 296.624 121.401 299.486C124.451 303.797 127.501 308.107 130.551 312.418C122.215 313.429 113.779 312.967 105.395 312.504C98.9059 312.146 92.3629 311.779 86.0829 310.105C82.1919 309.067 64.7298 301.974 73.8498 298.827C83.0258 295.661 93.5109 294.538 103.004 292.466Z" fill="#BC5C7D" fill-opacity="0.5"/>
<path opacity="0.5" d="M32.8703 274.885C32.7743 271.178 33.8793 267.415 33.0413 263.802C32.1623 260.014 29.3073 257.048 26.5703 254.287C34.6073 260.427 42.3143 266.998 49.6483 273.963C51.3363 275.566 53.0173 277.205 54.3163 279.137C55.9543 281.572 56.9263 284.383 57.8803 287.158C59.0973 290.696 60.5113 295.878 57.2803 298.81C54.1623 301.639 48.6413 300.083 45.7043 297.666C39.7423 292.761 33.0693 282.633 32.8703 274.885Z" fill="#BC5C7D" fill-opacity="0.5"/>
<path opacity="0.8" d="M51.1934 333.268C50.5844 336.672 50.0204 340.103 50.0234 343.56C50.0284 350.487 52.2784 357.61 50.1494 364.201C58.0324 357.224 66.1455 349.941 70.4265 340.323C71.9295 336.947 72.9214 333.345 73.3594 329.676C73.6684 327.088 73.6975 324.428 73.0175 321.912C72.0935 318.494 69.9354 315.564 67.8214 312.724C65.0794 309.04 58.7984 308.388 55.8834 312.37C52.3944 317.136 52.2184 327.541 51.1934 333.268Z" fill="#BC5C7D" fill-opacity="0.5"/>
<path d="M54.743 305.667C55.434 306.363 56.214 307 56.691 307.856C57.079 308.553 57.2399 309.35 57.5339 310.091C58.4569 312.421 60.7999 314.118 63.3019 314.268C65.4599 314.397 67.558 313.463 69.322 312.214C71.087 310.966 72.602 309.401 74.275 308.032C75.096 307.36 75.9659 306.724 76.6069 305.879C78.6049 303.245 77.8319 299.522 76.9689 296.331C76.4889 294.558 76.0089 292.786 75.5289 291.013C75.3799 290.462 75.214 289.881 74.8 289.487C74.063 288.784 72.8839 288.949 71.8879 289.161C68.8949 289.798 65.903 290.435 62.91 291.072C56.482 292.441 48.39 299.269 54.743 305.667Z" fill="#BC5C7D" fill-opacity="0.5"/>
<path d="M21.3836 276.693C20.2546 276.535 19.2156 276.01 18.1996 275.494C16.4166 274.587 14.6346 273.68 12.8516 272.773C14.6616 271.452 16.8816 270.062 18.9906 270.82C21.0566 271.561 26.6516 277.432 21.3836 276.693Z" stroke="black" stroke-miterlimit="10" stroke-linecap="round" stroke-linejoin="round"/>
<path d="M88.5281 300.697C91.0491 299.131 94.7351 299.878 96.4471 302.302C96.5461 302.442 96.6411 302.592 96.6631 302.762C96.7161 303.176 96.3191 303.513 95.9241 303.65C95.4381 303.818 94.8941 303.813 94.4121 303.634C94.0041 303.483 93.6511 303.218 93.2851 302.981C91.7781 302.006 89.9781 301.492 88.1831 301.524C88.1211 301.312 88.0581 301.101 87.9961 300.889" stroke="black" stroke-miterlimit="10" stroke-linecap="round" stroke-linejoin="round"/>
<path d="M103.869 272.307C104.048 272.179 104.24 272.049 104.46 272.03C105.225 271.965 105.396 273.083 105.265 273.839C104.902 275.933 104.379 278.274 102.577 279.4C102.023 279.746 101.39 279.943 100.762 280.123C99.3304 280.534 97.7984 281.028 96.3204 281.064C96.2934 277.989 101.528 273.98 103.869 272.307Z" fill="#BC5C7D" fill-opacity="0.5"/>
<path d="M79.5536 244.201C79.6386 243.924 79.7376 243.64 79.9396 243.433C80.4916 242.868 81.5326 243.21 81.9406 243.887C82.3486 244.563 82.3096 245.407 82.2586 246.195C82.0886 248.787 82.0896 252.397 80.4016 254.488C78.5166 251.71 78.6026 247.304 79.5536 244.201Z" fill="#BC5C7D" fill-opacity="0.5"/>
<path opacity="0.5" d="M23.0628 309.965C20.3488 309.487 17.5098 308.74 14.9008 309.629C13.5148 310.101 12.3198 311.003 11.1908 311.937C5.12877 316.955 -0.265219 323.586 -7.94922 325.281C0.126781 325.222 8.19877 324.677 16.2088 323.651C17.7498 323.454 19.3138 323.231 20.7268 322.585C21.9788 322.012 23.0588 321.131 24.1238 320.259C26.2908 318.485 35.2678 313.063 35.1618 310.351C33.1048 310.356 31.0418 310.623 28.9668 310.564C27.2858 310.517 24.6478 309.622 23.0628 309.965Z" fill="#BC5C7D" fill-opacity="0.5"/>
<path d="M49.3029 325.795C47.3399 327.729 45.0849 329.609 44.2959 332.249C43.8769 333.652 43.9189 335.149 44.0249 336.61C44.5979 344.459 46.8719 352.698 43.7969 359.942C48.4309 353.328 52.6689 346.436 56.4789 339.316C57.2119 337.946 57.9379 336.543 58.2309 335.017C58.4899 333.665 58.3989 332.274 58.3059 330.901C58.1179 328.107 58.9059 317.65 56.6349 316.162C55.4459 317.841 54.4669 319.676 53.2159 321.333C52.2029 322.674 49.9429 324.305 49.3029 325.795Z" stroke="black" stroke-miterlimit="10" stroke-linecap="round" stroke-linejoin="round"/>
<path d="M49.2123 59.1951C49.2123 65.1911 47.5241 69.3679 44.1477 71.7255C41.0333 73.9085 36.7547 75 31.3117 75H18.9559V74.1705H21.8375V45.2675H18.9559V44.438H32.4469C38.0353 44.438 42.2267 45.5877 45.0209 47.8871C47.8152 50.1575 49.2123 53.9268 49.2123 59.1951ZM30.3512 74.1705H32.0103C34.95 74.1705 37.0457 73.1372 38.2973 71.0706C39.578 68.9749 40.2183 65.4821 40.2183 60.5922V58.0599C40.2183 51.5109 38.9668 47.567 36.4636 46.2281C35.2702 45.5877 33.582 45.2675 31.399 45.2675H30.3512V74.1705ZM62.9164 75.4366C59.1617 75.4366 56.3383 74.4761 54.4464 72.555C52.5836 70.6049 51.6521 67.9125 51.6521 64.4779C51.6521 61.0142 52.7 58.3655 54.7957 56.5318C56.9205 54.6981 59.6128 53.7812 62.8728 53.7812C69.48 53.7812 72.6526 57.0994 72.3906 63.7357H60.0785V65.4385C60.0785 68.2909 60.4424 70.4448 61.17 71.9001C61.8977 73.3555 63.1638 74.0831 64.9684 74.0831C68.3448 74.0831 70.5569 72.2785 71.6048 68.6693L72.3906 68.8003C71.8376 70.896 70.8334 72.5259 69.3781 73.6902C67.9519 74.8545 65.798 75.4366 62.9164 75.4366ZM60.1222 62.8625H64.6192V60.7232C64.6192 58.3655 64.4736 56.7647 64.1826 55.9206C63.9206 55.0474 63.3676 54.6108 62.5235 54.6108C61.7085 54.6108 61.0973 55.0765 60.6898 56.0079C60.3114 56.9102 60.1222 58.482 60.1222 60.7232V62.8625ZM89.4017 41.993C86.1126 41.993 84.4681 43.7394 84.4681 47.2322V54.2178H98.8322V74.2141H101.277V75H88.7468V74.2141H90.7115V55.0037H84.4681V74.2141H87.2623V75H73.946V74.2141H76.3473V55.0037H73.8151V54.2178H76.3473V54.1305C76.3473 50.0556 77.4825 46.8975 79.7528 44.6563C82.0231 42.386 85.385 41.2508 89.8383 41.2508C92.2832 41.2508 94.2043 41.7747 95.6014 42.8226C97.0276 43.8413 97.7407 45.0347 97.7407 46.4027C97.7407 47.7707 97.3915 48.7749 96.6929 49.4152C95.9943 50.0556 95.092 50.3758 93.986 50.3758C92.8799 50.3758 92.0067 50.0992 91.3664 49.5462C90.726 48.9641 90.4059 48.3092 90.4059 47.5815C90.4059 46.8247 90.4932 46.0971 90.6678 45.3985L92.4579 44.9183C92.8363 43.9286 92.7053 43.201 92.0649 42.7353C91.4246 42.2404 90.5368 41.993 89.4017 41.993ZM102.259 54.2178H112.781V58.2346C113.247 56.8957 113.96 55.8187 114.92 55.0037C115.881 54.1887 117.336 53.7812 119.286 53.7812C123.798 53.7812 126.054 56.2116 126.054 61.0725V74.2141H128.499V75H116.143V74.2141H117.933V60.0246C117.933 58.2782 117.816 57.1576 117.584 56.6628C117.351 56.1389 116.929 55.8769 116.317 55.8769C115.386 55.8769 114.556 56.4882 113.829 57.7106C113.13 58.9331 112.781 60.4176 112.781 62.164V74.2141H114.658V75H102.259V74.2141H104.66V55.0037H102.259V54.2178ZM140.558 75.4366C136.803 75.4366 133.98 74.4761 132.088 72.555C130.225 70.6049 129.294 67.9125 129.294 64.4779C129.294 61.0142 130.341 58.3655 132.437 56.5318C134.562 54.6981 137.254 53.7812 140.514 53.7812C147.121 53.7812 150.294 57.0994 150.032 63.7357H137.72V65.4385C137.72 68.2909 138.084 70.4448 138.811 71.9001C139.539 73.3555 140.805 74.0831 142.61 74.0831C145.986 74.0831 148.198 72.2785 149.246 68.6693L150.032 68.8003C149.479 70.896 148.475 72.5259 147.02 73.6902C145.593 74.8545 143.439 75.4366 140.558 75.4366ZM137.764 62.8625H142.261V60.7232C142.261 58.3655 142.115 56.7647 141.824 55.9206C141.562 55.0474 141.009 54.6108 140.165 54.6108C139.35 54.6108 138.739 55.0765 138.331 56.0079C137.953 56.9102 137.764 58.482 137.764 60.7232V62.8625ZM159.214 55.0037V54.2178H171.876V55.0037H169.518L174.277 69.4988L179.342 55.0037H176.416V54.2178H182.572V55.0037H180.389L172.225 78.5365C171.265 81.2725 170.188 83.179 168.994 84.2559C167.801 85.362 166.345 85.915 164.628 85.915C162.911 85.915 161.557 85.5221 160.568 84.7362C159.578 83.9503 159.083 82.9461 159.083 81.7236C159.083 80.5012 159.404 79.5697 160.044 78.9294C160.684 78.2891 161.528 77.9689 162.576 77.9689C164.992 77.9689 166.2 78.9731 166.2 80.9814C166.2 81.418 166.113 81.9419 165.938 82.5532H164.41C164.177 83.2226 164.148 83.7757 164.323 84.2123C164.497 84.6489 164.89 84.8672 165.501 84.8672C166.695 84.8672 167.757 84.2705 168.689 83.0771C169.62 81.9128 170.508 80.1228 171.352 77.7069L172.312 75H168.47L161.004 55.0037H159.214ZM195.663 66.399V62.6879C195.663 59.8645 195.503 57.8125 195.183 56.5318C194.892 55.222 194.193 54.5671 193.087 54.5671C192.447 54.5671 191.923 54.7563 191.516 55.1347C191.137 55.484 190.861 56.0807 190.686 56.9248C190.424 58.2346 190.293 60.2284 190.293 62.9062V66.3117C190.293 69.4843 190.38 71.3908 190.555 72.0311C190.759 72.6715 190.963 73.1954 191.166 73.6029C191.486 74.3014 192.112 74.6507 193.044 74.6507C194.179 74.6507 194.921 73.9958 195.27 72.686C195.532 71.7546 195.663 69.6589 195.663 66.399ZM192.956 75.4366C189.318 75.4366 186.567 74.5052 184.705 72.6424C182.842 70.7795 181.91 68.1163 181.91 64.6526C181.91 61.1598 182.9 58.482 184.879 56.6191C186.888 54.7272 189.696 53.7812 193.306 53.7812C196.915 53.7812 199.607 54.6544 201.383 56.4008C203.158 58.1181 204.046 60.7523 204.046 64.3033C204.046 71.7255 200.349 75.4366 192.956 75.4366ZM230.808 75H220.854L220.373 71.8128C219.908 72.9771 219.209 73.8794 218.278 74.5197C217.375 75.131 216.022 75.4366 214.217 75.4366C209.706 75.4366 207.45 73.0062 207.45 68.1454V55.0037H205.005V54.2178H215.571V69.1932C215.571 70.9396 215.687 72.0893 215.92 72.6424C216.182 73.1954 216.677 73.4719 217.405 73.4719C218.161 73.4719 218.831 73.0207 219.413 72.1184C219.995 71.2161 220.286 69.9645 220.286 68.3637V55.0037H218.278V54.2178H228.407V74.2141H230.808V75ZM246.284 55.4403C245.207 55.4403 244.261 56.1389 243.446 57.536C242.631 58.9331 242.224 60.5922 242.224 62.5132V74.2141H245.324V75H231.702V74.2141H234.103V55.0037H231.702V54.2178H242.224V58.4092C242.602 56.9248 243.33 55.7896 244.407 55.0037C245.484 54.1887 246.706 53.7812 248.074 53.7812C249.442 53.7812 250.548 54.1742 251.393 54.9601C252.266 55.7168 252.702 56.8083 252.702 58.2346C252.702 59.6317 252.382 60.7086 251.742 61.4654C251.101 62.2222 250.112 62.6006 248.773 62.6006C247.463 62.6006 246.488 62.164 245.848 61.2908C245.236 60.4176 245.164 59.2096 245.629 57.667H247.201C247.929 56.1825 247.623 55.4403 246.284 55.4403Z" fill="#32312D"/>
<path d="M45.382 129.44C47.6722 129.44 49.1212 129.019 49.7288 128.178C50.3831 127.336 50.7103 125.911 50.7103 123.901V110.299H46.2233V108.757H66.415V110.299H63.6807V130.071H62.629C61.7877 128.902 60.5958 128.318 59.0534 128.318C58.3991 128.318 56.436 128.738 53.1642 129.58C49.9391 130.421 47.1815 130.842 44.8912 130.842C37.2726 130.842 31.36 128.785 27.1534 124.672C22.9935 120.559 20.9136 114.389 20.9136 106.163C20.9136 97.89 23.087 91.51 27.4338 87.023C31.8274 82.5359 37.7166 80.2924 45.1015 80.2924C47.9527 80.2924 50.8038 80.6663 53.6549 81.4142C56.5528 82.1153 58.2355 82.4658 58.7029 82.4658C59.1703 82.4658 59.5208 82.3723 59.7545 82.1854C59.9882 81.9517 60.2453 81.5778 60.5257 81.0636H61.2969L61.8578 96.2775H60.5958C58.3056 91.7437 55.9919 88.1915 53.6549 85.6208C51.3647 83.0033 48.794 81.6946 45.9428 81.6946C38.7916 81.6946 35.216 88.6822 35.216 102.658V108.196C35.216 115.207 36.0807 120.512 37.8101 124.111C39.5862 127.663 42.1102 129.44 45.382 129.44ZM69.1252 77.5581H86.3021V128.879H90.2283V130.141H69.4056V128.879H73.2616V78.8201H69.1252V77.5581ZM114.234 116.329V110.37C114.234 105.836 113.977 102.541 113.463 100.484C112.996 98.3808 111.874 97.3291 110.098 97.3291C109.07 97.3291 108.228 97.633 107.574 98.2406C106.966 98.8015 106.522 99.7596 106.242 101.115C105.821 103.218 105.611 106.42 105.611 110.72V116.189C105.611 121.283 105.751 124.345 106.032 125.373C106.359 126.401 106.686 127.243 107.013 127.897C107.527 129.019 108.532 129.58 110.028 129.58C111.851 129.58 113.043 128.528 113.603 126.425C114.024 124.929 114.234 121.564 114.234 116.329ZM109.888 130.842C104.045 130.842 99.6281 129.346 96.6368 126.355C93.6454 123.363 92.1497 119.087 92.1497 113.525C92.1497 107.916 93.7389 103.616 96.9172 100.624C100.142 97.5862 104.653 96.0672 110.448 96.0672C116.244 96.0672 120.568 97.4694 123.419 100.274C126.27 103.031 127.695 107.261 127.695 112.964C127.695 124.882 121.76 130.842 109.888 130.842ZM151.512 98.0302V96.7683H169.6V98.0302H166.725L173.035 121.657L179.275 98.0302H174.438V96.7683H183.902V98.0302H180.958L172.545 130.141H162.939L156.84 108.617L150.25 130.141H140.855L130.479 98.0302H127.324V96.7683H148.567V98.0302H144.36L150.81 121.868L155.858 105.462L154.106 98.0302H151.512Z" fill="#32312D"/>
<path d="M33.4074 154.885V154.099H44.6717V154.885H42.8816L46.811 169.598L50.6967 154.885H47.6842V154.099H53.5783V154.885H51.7446L46.5054 174.881H40.524L36.7255 161.477L32.6215 174.881H26.7711L20.3094 154.885H18.3447V154.099H31.5737V154.885H28.9541L32.9708 169.729L36.1143 159.513L35.0228 154.885H33.4074ZM61.3054 151.086C59.7628 151.086 58.6567 150.693 57.9873 149.907C57.3469 149.121 57.0268 148.146 57.0268 146.982C57.0268 145.818 57.376 144.857 58.0746 144.101C58.8023 143.344 59.8938 142.965 61.3491 142.965C62.8044 142.965 63.9105 143.315 64.6673 144.013C65.424 144.683 65.8024 145.658 65.8024 146.938C65.8024 148.19 65.4386 149.194 64.7109 149.951C63.9833 150.708 62.8481 151.086 61.3054 151.086ZM54.7128 154.099H65.4095V174.095H67.8544V174.881H54.8874V174.095H57.2887V154.885H54.7128V154.099ZM70.9274 168.637V154.885H68.5261V154.099H70.9274V148.467L79.0481 146.458V154.099H84.7239V154.885H79.0481V169.598C79.0481 170.966 79.1791 171.97 79.4411 172.611C79.7321 173.251 80.3143 173.571 81.1875 173.571C82.0607 173.571 82.8174 173.134 83.4578 172.261C84.1272 171.388 84.5638 170.195 84.7676 168.681L85.5098 168.768C85.2769 170.777 84.6366 172.378 83.5888 173.571C82.5409 174.735 80.8091 175.317 78.3932 175.317C75.9774 175.317 74.1291 174.837 72.8484 173.877C71.5677 172.916 70.9274 171.17 70.9274 168.637ZM85.927 142.136H96.449V158.115C96.9147 156.777 97.6278 155.7 98.5884 154.885C99.5489 154.07 101.004 153.662 102.954 153.662C107.466 153.662 109.722 156.093 109.722 160.953V174.095H112.167V174.881H99.8108V174.095H101.601V159.905C101.601 158.159 101.484 157.038 101.252 156.544C101.019 156.02 100.597 155.758 99.9855 155.758C99.0541 155.758 98.2245 156.369 97.4969 157.591C96.7983 158.814 96.449 160.298 96.449 162.045V174.095H98.3264V174.881H85.927V174.095H88.3283V142.922H85.927V142.136ZM146.217 174.881H136.263L135.782 171.694C135.317 172.858 134.618 173.76 133.687 174.401C132.784 175.012 131.431 175.317 129.626 175.317C125.115 175.317 122.859 172.887 122.859 168.026V154.885H120.414V154.099H130.98V169.074C130.98 170.82 131.096 171.97 131.329 172.523C131.591 173.076 132.086 173.353 132.813 173.353C133.57 173.353 134.24 172.902 134.822 171.999C135.404 171.097 135.695 169.845 135.695 168.245V154.885H133.687V154.099H143.816V174.095H146.217V174.881ZM148.115 175.317V167.502H148.639C149.396 170.035 150.414 171.81 151.695 172.829C152.976 173.848 154.577 174.357 156.498 174.357C159.466 174.357 160.951 173.411 160.951 171.519C160.951 170.704 160.587 170.093 159.859 169.685C158.724 169.045 157.269 168.55 155.493 168.201C153.514 167.677 151.855 166.978 150.516 166.105C148.915 165.057 148.115 163.398 148.115 161.128C148.115 158.858 148.813 157.053 150.211 155.714C151.608 154.346 153.47 153.662 155.799 153.662C157.225 153.662 158.695 153.997 160.209 154.666C160.762 154.899 161.184 155.016 161.475 155.016C161.766 155.016 162.013 154.914 162.217 154.71C162.421 154.506 162.668 154.128 162.959 153.575H163.439V160.255H162.916C161.431 156.471 159.132 154.579 156.017 154.579C154.649 154.579 153.631 154.826 152.961 155.321C152.292 155.787 151.957 156.384 151.957 157.111C151.957 157.548 152.059 157.897 152.263 158.159C152.466 158.392 152.626 158.567 152.743 158.683C152.859 158.799 153.048 158.93 153.31 159.076C153.572 159.192 153.791 159.294 153.965 159.382C154.14 159.44 154.402 159.527 154.751 159.644C155.13 159.76 155.406 159.833 155.581 159.862C157.56 160.357 158.986 160.793 159.859 161.172C160.733 161.521 161.562 161.957 162.348 162.481C163.949 163.587 164.749 165.378 164.749 167.852C164.749 170.297 164.022 172.159 162.566 173.44C161.111 174.692 159.117 175.317 156.585 175.317C154.78 175.317 153.034 174.895 151.346 174.051C150.996 173.818 150.72 173.702 150.516 173.702C149.876 173.702 149.25 174.241 148.639 175.317H148.115Z" fill="#32312D"/>
<path d="M20.2351 201.051V188.451H24.7531C25.8091 188.451 26.7151 188.619 27.4711 188.955C28.2271 189.291 28.8091 189.777 29.2171 190.413C29.6251 191.037 29.8291 191.799 29.8291 192.699C29.8291 193.575 29.6251 194.331 29.2171 194.967C28.8091 195.591 28.2271 196.077 27.4711 196.425C26.7151 196.761 25.8091 196.929 24.7531 196.929H20.7391L21.1531 196.497V201.051H20.2351ZM28.9831 201.051L25.7071 196.479H26.7511L30.0271 201.051H28.9831ZM21.1531 196.551L20.7391 196.119H24.7531C26.1091 196.119 27.1351 195.819 27.8311 195.219C28.5391 194.619 28.8931 193.779 28.8931 192.699C28.8931 191.607 28.5391 190.767 27.8311 190.179C27.1351 189.579 26.1091 189.279 24.7531 189.279H20.7391L21.1531 188.829V196.551ZM34.0001 194.247H40.8221V195.057H34.0001V194.247ZM34.1081 200.223H41.8841V201.051H33.1901V188.451H41.6141V189.279H34.1081V200.223ZM48.5834 201.051L42.9674 188.451H43.9754L49.3394 200.493H48.7814L54.1634 188.451H55.1174L49.5014 201.051H48.5834ZM57.9591 194.247H64.7811V195.057H57.9591V194.247ZM58.0671 200.223H65.8431V201.051H57.1491V188.451H65.5731V189.279H58.0671V200.223ZM67.0841 201.051L72.8801 188.451H73.7981L79.5941 201.051H78.6041L73.1321 189.027H73.5281L68.0741 201.051H67.0841ZM69.2081 197.505L69.5141 196.731H77.0561L77.3621 197.505H69.2081ZM81.8815 201.051V188.451H82.7995V200.223H90.0535V201.051H81.8815ZM100.004 201.051V196.479L100.22 197.073L94.9279 188.451H95.9359L100.742 196.281H100.238L105.044 188.451H105.998L100.706 197.073L100.922 196.479V201.051H100.004ZM113.085 201.141C112.149 201.141 111.279 200.985 110.475 200.673C109.683 200.349 108.987 199.899 108.387 199.323C107.799 198.735 107.343 198.057 107.019 197.289C106.695 196.509 106.533 195.663 106.533 194.751C106.533 193.839 106.695 192.999 107.019 192.231C107.343 191.451 107.799 190.773 108.387 190.197C108.987 189.609 109.683 189.159 110.475 188.847C111.279 188.523 112.149 188.361 113.085 188.361C114.021 188.361 114.885 188.523 115.677 188.847C116.481 189.159 117.177 189.603 117.765 190.179C118.353 190.755 118.809 191.433 119.133 192.213C119.469 192.981 119.637 193.827 119.637 194.751C119.637 195.675 119.469 196.527 119.133 197.307C118.809 198.075 118.353 198.747 117.765 199.323C117.177 199.899 116.481 200.349 115.677 200.673C114.885 200.985 114.021 201.141 113.085 201.141ZM113.085 200.295C113.889 200.295 114.633 200.157 115.317 199.881C116.001 199.605 116.595 199.215 117.099 198.711C117.603 198.207 117.993 197.619 118.269 196.947C118.557 196.275 118.701 195.543 118.701 194.751C118.701 193.947 118.557 193.215 118.269 192.555C117.993 191.883 117.603 191.295 117.099 190.791C116.595 190.287 116.001 189.897 115.317 189.621C114.633 189.345 113.889 189.207 113.085 189.207C112.281 189.207 111.537 189.345 110.853 189.621C110.169 189.897 109.569 190.287 109.053 190.791C108.549 191.295 108.153 191.883 107.865 192.555C107.589 193.215 107.451 193.947 107.451 194.751C107.451 195.543 107.589 196.275 107.865 196.947C108.153 197.619 108.549 198.207 109.053 198.711C109.569 199.215 110.169 199.605 110.853 199.881C111.537 200.157 112.281 200.295 113.085 200.295ZM127.753 201.141C126.193 201.141 124.963 200.685 124.063 199.773C123.163 198.861 122.713 197.505 122.713 195.705V188.451H123.631V195.669C123.631 197.241 123.991 198.405 124.711 199.161C125.431 199.917 126.451 200.295 127.771 200.295C129.079 200.295 130.093 199.917 130.813 199.161C131.533 198.405 131.893 197.241 131.893 195.669V188.451H132.811V195.705C132.811 197.505 132.361 198.861 131.461 199.773C130.561 200.685 129.325 201.141 127.753 201.141ZM137.094 201.051V188.451H141.612C142.668 188.451 143.574 188.619 144.33 188.955C145.086 189.291 145.668 189.777 146.076 190.413C146.484 191.037 146.688 191.799 146.688 192.699C146.688 193.575 146.484 194.331 146.076 194.967C145.668 195.591 145.086 196.077 144.33 196.425C143.574 196.761 142.668 196.929 141.612 196.929H137.598L138.012 196.497V201.051H137.094ZM145.842 201.051L142.566 196.479H143.61L146.886 201.051H145.842ZM138.012 196.551L137.598 196.119H141.612C142.968 196.119 143.994 195.819 144.69 195.219C145.398 194.619 145.752 193.779 145.752 192.699C145.752 191.607 145.398 190.767 144.69 190.179C143.994 189.579 142.968 189.279 141.612 189.279H137.598L138.012 188.829V196.551Z" fill="#32312D"/>
<path d="M20.2351 223.051V210.451H21.0091L29.9911 221.917H29.5771V210.451H30.4951V223.051H29.7391L20.7391 211.585H21.1531V223.051H20.2351ZM32.7892 223.051L38.5852 210.451H39.5032L45.2992 223.051H44.3092L38.8372 211.027H39.2332L33.7792 223.051H32.7892ZM34.9132 219.505L35.2192 218.731H42.7612L43.0672 219.505H34.9132ZM49.3658 223.051V211.279H44.8298V210.451H54.8198V211.279H50.2838V223.051H49.3658ZM61.7823 223.141C60.2223 223.141 58.9923 222.685 58.0923 221.773C57.1923 220.861 56.7423 219.505 56.7423 217.705V210.451H57.6603V217.669C57.6603 219.241 58.0203 220.405 58.7403 221.161C59.4603 221.917 60.4803 222.295 61.8003 222.295C63.1083 222.295 64.1223 221.917 64.8423 221.161C65.5623 220.405 65.9223 219.241 65.9223 217.669V210.451H66.8403V217.705C66.8403 219.505 66.3903 220.861 65.4903 221.773C64.5903 222.685 63.3543 223.141 61.7823 223.141ZM71.1237 223.051V210.451H75.6417C76.6977 210.451 77.6037 210.619 78.3597 210.955C79.1157 211.291 79.6977 211.777 80.1057 212.413C80.5137 213.037 80.7177 213.799 80.7177 214.699C80.7177 215.575 80.5137 216.331 80.1057 216.967C79.6977 217.591 79.1157 218.077 78.3597 218.425C77.6037 218.761 76.6977 218.929 75.6417 218.929H71.6277L72.0417 218.497V223.051H71.1237ZM79.8717 223.051L76.5957 218.479H77.6397L80.9157 223.051H79.8717ZM72.0417 218.551L71.6277 218.119H75.6417C76.9977 218.119 78.0237 217.819 78.7197 217.219C79.4277 216.619 79.7817 215.779 79.7817 214.699C79.7817 213.607 79.4277 212.767 78.7197 212.179C78.0237 211.579 76.9977 211.279 75.6417 211.279H71.6277L72.0417 210.829V218.551ZM81.9728 223.051L87.7688 210.451H88.6868L94.4828 223.051H93.4928L88.0208 211.027H88.4168L82.9628 223.051H81.9728ZM84.0968 219.505L84.4028 218.731H91.9448L92.2508 219.505H84.0968ZM96.7702 223.051V210.451H97.6882V222.223H104.942V223.051H96.7702ZM111.923 223.051V210.451H116.441C117.497 210.451 118.403 210.619 119.159 210.955C119.915 211.291 120.497 211.777 120.905 212.413C121.313 213.037 121.517 213.799 121.517 214.699C121.517 215.575 121.313 216.331 120.905 216.967C120.497 217.591 119.915 218.077 119.159 218.425C118.403 218.761 117.497 218.929 116.441 218.929H112.427L112.841 218.497V223.051H111.923ZM120.671 223.051L117.395 218.479H118.439L121.715 223.051H120.671ZM112.841 218.551L112.427 218.119H116.441C117.797 218.119 118.823 217.819 119.519 217.219C120.227 216.619 120.581 215.779 120.581 214.699C120.581 213.607 120.227 212.767 119.519 212.179C118.823 211.579 117.797 211.279 116.441 211.279H112.427L112.841 210.829V218.551ZM122.772 223.051L128.568 210.451H129.486L135.282 223.051H134.292L128.82 211.027H129.216L123.762 223.051H122.772ZM124.896 219.505L125.202 218.731H132.744L133.05 219.505H124.896ZM137.569 223.051V210.451H142.555C143.887 210.451 145.057 210.721 146.065 211.261C147.073 211.801 147.853 212.545 148.405 213.493C148.969 214.441 149.251 215.527 149.251 216.751C149.251 217.975 148.969 219.061 148.405 220.009C147.853 220.957 147.073 221.701 146.065 222.241C145.057 222.781 143.887 223.051 142.555 223.051H137.569ZM138.487 222.223H142.483C143.671 222.223 144.703 221.989 145.579 221.521C146.455 221.053 147.133 220.411 147.613 219.595C148.093 218.767 148.333 217.819 148.333 216.751C148.333 215.683 148.093 214.741 147.613 213.925C147.133 213.097 146.455 212.449 145.579 211.981C144.703 211.513 143.671 211.279 142.483 211.279H138.487V222.223ZM152.44 223.051V210.451H153.358V223.051H152.44ZM155.643 223.051L161.439 210.451H162.357L168.153 223.051H167.163L161.691 211.027H162.087L156.633 223.051H155.643ZM157.767 219.505L158.073 218.731H165.615L165.921 219.505H157.767ZM170.44 223.051V210.451H171.214L180.196 221.917H179.782V210.451H180.7V223.051H179.944L170.944 211.585H171.358V223.051H170.44ZM190.428 223.141C189.492 223.141 188.622 222.985 187.818 222.673C187.026 222.349 186.336 221.899 185.748 221.323C185.16 220.747 184.704 220.075 184.38 219.307C184.056 218.527 183.894 217.675 183.894 216.751C183.894 215.827 184.056 214.981 184.38 214.213C184.704 213.433 185.16 212.755 185.748 212.179C186.348 211.603 187.044 211.159 187.836 210.847C188.628 210.523 189.492 210.361 190.428 210.361C191.316 210.361 192.144 210.505 192.912 210.793C193.692 211.081 194.358 211.519 194.91 212.107L194.334 212.701C193.794 212.173 193.194 211.795 192.534 211.567C191.886 211.327 191.196 211.207 190.464 211.207C189.66 211.207 188.91 211.345 188.214 211.621C187.53 211.897 186.93 212.287 186.414 212.791C185.91 213.295 185.514 213.883 185.226 214.555C184.95 215.227 184.812 215.959 184.812 216.751C184.812 217.543 184.95 218.275 185.226 218.947C185.514 219.619 185.91 220.207 186.414 220.711C186.93 221.215 187.53 221.605 188.214 221.881C188.91 222.157 189.66 222.295 190.464 222.295C191.196 222.295 191.886 222.181 192.534 221.953C193.194 221.713 193.794 221.323 194.334 220.783L194.91 221.377C194.358 221.965 193.692 222.409 192.912 222.709C192.144 222.997 191.316 223.141 190.428 223.141ZM198.795 216.247H205.617V217.057H198.795V216.247ZM198.903 222.223H206.679V223.051H197.985V210.451H206.409V211.279H198.903V222.223Z" fill="#32312D"/>
<path d="M24.3888 327.303C25.8512 327.303 27.0826 327.618 28.0832 328.249C29.0992 328.88 29.8688 329.796 30.3922 330.997C30.9156 332.182 31.1773 333.637 31.1773 335.361C31.1773 337.193 30.854 338.74 30.2075 340.002C29.561 341.264 28.6682 342.219 27.5291 342.865C26.3899 343.512 25.0584 343.835 23.5345 343.835C22.7802 343.835 22.049 343.758 21.3409 343.604C20.6482 343.45 20.0402 343.212 19.5168 342.888L20.3942 341.087C20.8253 341.364 21.3024 341.565 21.8258 341.688C22.3646 341.795 22.9264 341.849 23.5114 341.849C25.1431 341.849 26.4438 341.341 27.4136 340.325C28.3834 339.294 28.8683 337.77 28.8683 335.754C28.8683 335.43 28.8529 335.046 28.8221 334.599C28.7913 334.153 28.722 333.714 28.6143 333.283L29.3763 334.068C29.1607 334.776 28.799 335.376 28.291 335.869C27.7984 336.346 27.1981 336.708 26.49 336.954C25.7973 337.185 25.0353 337.301 24.2041 337.301C23.142 337.301 22.1953 337.101 21.364 336.7C20.5328 336.3 19.8786 335.738 19.4014 335.015C18.9242 334.276 18.6856 333.406 18.6856 332.406C18.6856 331.359 18.9319 330.458 19.4245 329.704C19.9324 328.934 20.6174 328.342 21.4795 327.926C22.3569 327.51 23.3267 327.303 24.3888 327.303ZM24.4812 329.173C23.7885 329.173 23.1727 329.304 22.634 329.565C22.0952 329.827 21.6719 330.189 21.364 330.651C21.0715 331.113 20.9253 331.667 20.9253 332.313C20.9253 333.268 21.2563 334.03 21.9182 334.599C22.5801 335.153 23.4729 335.43 24.5966 335.43C25.3355 335.43 25.982 335.292 26.5362 335.015C27.1057 334.738 27.5444 334.361 27.8523 333.883C28.1756 333.406 28.3372 332.875 28.3372 332.29C28.3372 331.721 28.191 331.205 27.8985 330.743C27.606 330.281 27.175 329.904 26.6055 329.612C26.0359 329.319 25.3278 329.173 24.4812 329.173ZM48.1886 343.65V341.064L48.0732 340.579V336.169C48.0732 335.23 47.7961 334.507 47.242 333.999C46.7032 333.475 45.8873 333.214 44.7944 333.214C44.0709 333.214 43.3628 333.337 42.6701 333.583C41.9774 333.814 41.3925 334.13 40.9153 334.53L39.9917 332.867C40.6228 332.359 41.3771 331.975 42.2545 331.713C43.1473 331.436 44.0786 331.297 45.0484 331.297C46.7263 331.297 48.0193 331.705 48.9275 332.521C49.8357 333.337 50.2898 334.584 50.2898 336.262V343.65H48.1886ZM44.171 343.789C43.2628 343.789 42.4623 343.635 41.7696 343.327C41.0923 343.019 40.5689 342.596 40.1995 342.057C39.8301 341.503 39.6453 340.88 39.6453 340.187C39.6453 339.525 39.7993 338.925 40.1071 338.386C40.4304 337.847 40.9461 337.416 41.6542 337.093C42.3777 336.77 43.3474 336.608 44.5635 336.608H48.4426V338.201H44.6559C43.5476 338.201 42.801 338.386 42.4161 338.755C42.0313 339.125 41.8389 339.571 41.8389 340.095C41.8389 340.695 42.0775 341.18 42.5547 341.549C43.0319 341.903 43.6938 342.08 44.5404 342.08C45.3717 342.08 46.0952 341.896 46.7109 341.526C47.342 341.157 47.7961 340.618 48.0732 339.91L48.5119 341.434C48.2194 342.157 47.7038 342.734 46.9649 343.166C46.226 343.581 45.2947 343.789 44.171 343.789ZM69.7006 331.297C70.6858 331.297 71.5555 331.49 72.3098 331.874C73.064 332.259 73.649 332.844 74.0646 333.629C74.4956 334.414 74.7111 335.407 74.7111 336.608V343.65H72.4945V336.862C72.4945 335.677 72.2174 334.784 71.6632 334.183C71.1091 333.583 70.3317 333.283 69.3312 333.283C68.5923 333.283 67.9458 333.437 67.3916 333.745C66.8374 334.053 66.4064 334.507 66.0986 335.107C65.8061 335.707 65.6598 336.454 65.6598 337.347V343.65H63.4432V336.862C63.4432 335.677 63.1661 334.784 62.612 334.183C62.0732 333.583 61.2958 333.283 60.2799 333.283C59.5564 333.283 58.9176 333.437 58.3634 333.745C57.8092 334.053 57.3782 334.507 57.0704 335.107C56.7625 335.707 56.6086 336.454 56.6086 337.347V343.65H54.3919V331.413H56.5162V334.668L56.1699 333.837C56.5547 333.037 57.1473 332.413 57.9478 331.967C58.7482 331.52 59.6795 331.297 60.7417 331.297C61.9116 331.297 62.9198 331.59 63.7665 332.175C64.6131 332.744 65.1673 333.614 65.4289 334.784L64.5284 334.414C64.8979 333.475 65.5444 332.721 66.468 332.152C67.3916 331.582 68.4691 331.297 69.7006 331.297ZM84.2056 338.27V336.354H90.4168V338.27H84.2056ZM105.341 343.835C104.033 343.835 102.902 343.643 101.947 343.258C100.993 342.873 100.254 342.327 99.7306 341.618C99.2072 340.895 98.9455 340.048 98.9455 339.079C98.9455 338.124 99.1918 337.316 99.6844 336.654C100.192 335.977 100.924 335.469 101.878 335.13C102.832 334.776 103.987 334.599 105.341 334.599C106.696 334.599 107.851 334.776 108.805 335.13C109.775 335.469 110.514 335.977 111.022 336.654C111.53 337.331 111.784 338.14 111.784 339.079C111.784 340.048 111.522 340.895 110.999 341.618C110.475 342.327 109.729 342.873 108.759 343.258C107.789 343.643 106.65 343.835 105.341 343.835ZM105.341 341.965C106.634 341.965 107.643 341.703 108.366 341.18C109.105 340.641 109.475 339.918 109.475 339.009C109.475 338.116 109.105 337.416 108.366 336.908C107.643 336.385 106.634 336.123 105.341 336.123C104.064 336.123 103.063 336.385 102.34 336.908C101.616 337.416 101.255 338.116 101.255 339.009C101.255 339.918 101.616 340.641 102.34 341.18C103.063 341.703 104.064 341.965 105.341 341.965ZM105.341 335.846C104.11 335.846 103.063 335.684 102.201 335.361C101.339 335.022 100.677 334.545 100.215 333.929C99.7537 333.298 99.5228 332.552 99.5228 331.69C99.5228 330.782 99.7614 330.004 100.239 329.358C100.731 328.696 101.416 328.188 102.294 327.834C103.171 327.48 104.187 327.303 105.341 327.303C106.511 327.303 107.535 327.48 108.412 327.834C109.29 328.188 109.975 328.696 110.467 329.358C110.96 330.004 111.206 330.782 111.206 331.69C111.206 332.552 110.975 333.298 110.514 333.929C110.052 334.545 109.382 335.022 108.505 335.361C107.627 335.684 106.573 335.846 105.341 335.846ZM105.341 334.368C106.465 334.368 107.343 334.137 107.974 333.676C108.62 333.214 108.943 332.583 108.943 331.782C108.943 330.966 108.613 330.327 107.951 329.866C107.289 329.404 106.419 329.173 105.341 329.173C104.264 329.173 103.402 329.404 102.755 329.866C102.124 330.327 101.809 330.966 101.809 331.782C101.809 332.583 102.117 333.214 102.732 333.676C103.363 334.137 104.233 334.368 105.341 334.368ZM127.58 343.789C126.564 343.789 125.632 343.558 124.786 343.096C123.955 342.619 123.285 341.919 122.777 340.995C122.284 340.071 122.038 338.917 122.038 337.532C122.038 336.146 122.277 334.992 122.754 334.068C123.246 333.144 123.908 332.452 124.74 331.99C125.586 331.528 126.533 331.297 127.58 331.297C128.78 331.297 129.842 331.559 130.766 332.082C131.69 332.606 132.421 333.337 132.96 334.276C133.498 335.199 133.768 336.285 133.768 337.532C133.768 338.778 133.498 339.871 132.96 340.81C132.421 341.749 131.69 342.48 130.766 343.004C129.842 343.527 128.78 343.789 127.58 343.789ZM121.091 348.13V331.413H123.216V334.715L123.077 337.555L123.308 340.395V348.13H121.091ZM127.395 341.849C128.18 341.849 128.88 341.672 129.496 341.318C130.127 340.964 130.62 340.464 130.974 339.817C131.343 339.156 131.528 338.394 131.528 337.532C131.528 336.654 131.343 335.9 130.974 335.269C130.62 334.622 130.127 334.122 129.496 333.768C128.88 333.414 128.18 333.237 127.395 333.237C126.625 333.237 125.925 333.414 125.294 333.768C124.678 334.122 124.185 334.622 123.816 335.269C123.462 335.9 123.285 336.654 123.285 337.532C123.285 338.394 123.462 339.156 123.816 339.817C124.185 340.464 124.678 340.964 125.294 341.318C125.925 341.672 126.625 341.849 127.395 341.849ZM152.139 331.297C153.124 331.297 153.994 331.49 154.748 331.874C155.503 332.259 156.087 332.844 156.503 333.629C156.934 334.414 157.15 335.407 157.15 336.608V343.65H154.933V336.862C154.933 335.677 154.656 334.784 154.102 334.183C153.548 333.583 152.77 333.283 151.77 333.283C151.031 333.283 150.384 333.437 149.83 333.745C149.276 334.053 148.845 334.507 148.537 335.107C148.245 335.707 148.098 336.454 148.098 337.347V343.65H145.882V336.862C145.882 335.677 145.605 334.784 145.05 334.183C144.512 333.583 143.734 333.283 142.718 333.283C141.995 333.283 141.356 333.437 140.802 333.745C140.248 334.053 139.817 334.507 139.509 335.107C139.201 335.707 139.047 336.454 139.047 337.347V343.65H136.83V331.413H138.955V334.668L138.608 333.837C138.993 333.037 139.586 332.413 140.386 331.967C141.187 331.52 142.118 331.297 143.18 331.297C144.35 331.297 145.358 331.59 146.205 332.175C147.052 332.744 147.606 333.614 147.867 334.784L146.967 334.414C147.336 333.475 147.983 332.721 148.907 332.152C149.83 331.582 150.908 331.297 152.139 331.297Z" fill="#32312D"/>
<path d="M25.1348 277.185C23.9033 277.185 22.7258 277 21.602 276.631C20.4783 276.246 19.5932 275.753 18.9467 275.153L19.801 273.352C20.4168 273.891 21.2018 274.337 22.1562 274.691C23.1106 275.045 24.1035 275.222 25.1348 275.222C26.0738 275.222 26.8358 275.114 27.4207 274.899C28.0057 274.683 28.4367 274.391 28.7138 274.021C28.9908 273.637 29.1294 273.206 29.1294 272.728C29.1294 272.174 28.9447 271.728 28.5752 271.389C28.2212 271.05 27.7517 270.781 27.1667 270.581C26.5972 270.365 25.9661 270.181 25.2734 270.027C24.5807 269.873 23.8803 269.696 23.1722 269.496C22.4795 269.28 21.8406 269.011 21.2557 268.688C20.6861 268.364 20.2243 267.933 19.8703 267.395C19.5162 266.84 19.3392 266.132 19.3392 265.27C19.3392 264.439 19.5547 263.677 19.9857 262.984C20.4321 262.276 21.1095 261.714 22.0177 261.299C22.9413 260.868 24.1112 260.652 25.5273 260.652C26.4663 260.652 27.3976 260.775 28.3212 261.022C29.2448 261.268 30.0453 261.622 30.7226 262.084L29.9606 263.931C29.2679 263.469 28.5367 263.138 27.7671 262.938C26.9974 262.723 26.2508 262.615 25.5273 262.615C24.6191 262.615 23.8726 262.73 23.2876 262.961C22.7027 263.192 22.2717 263.5 21.9946 263.885C21.7329 264.27 21.602 264.701 21.602 265.178C21.602 265.747 21.7791 266.202 22.1331 266.54C22.5026 266.879 22.972 267.148 23.5416 267.348C24.1265 267.548 24.7654 267.733 25.4581 267.903C26.1508 268.056 26.8435 268.233 27.5362 268.434C28.2443 268.634 28.8831 268.895 29.4526 269.219C30.0376 269.542 30.5071 269.973 30.8611 270.512C31.2152 271.05 31.3922 271.743 31.3922 272.59C31.3922 273.406 31.169 274.168 30.7226 274.876C30.2762 275.568 29.5835 276.13 28.6445 276.561C27.7209 276.977 26.551 277.185 25.1348 277.185ZM41.9927 277.185C40.7612 277.185 39.6221 276.985 38.5754 276.584C37.544 276.169 36.6435 275.592 35.8738 274.853C35.1196 274.098 34.5269 273.221 34.0959 272.22C33.6649 271.22 33.4494 270.119 33.4494 268.918C33.4494 267.718 33.6649 266.617 34.0959 265.617C34.5269 264.616 35.1272 263.746 35.8969 263.007C36.6666 262.253 37.5671 261.676 38.5984 261.276C39.6452 260.86 40.7843 260.652 42.0158 260.652C43.2626 260.652 44.4094 260.868 45.4562 261.299C46.5183 261.714 47.4188 262.338 48.1577 263.169L46.6569 264.624C46.0411 263.977 45.3484 263.5 44.5788 263.192C43.8091 262.869 42.9855 262.707 42.1081 262.707C41.1999 262.707 40.3533 262.861 39.5682 263.169C38.7986 263.477 38.1289 263.908 37.5594 264.462C36.9898 265.016 36.5434 265.678 36.2202 266.448C35.9123 267.202 35.7584 268.026 35.7584 268.918C35.7584 269.811 35.9123 270.643 36.2202 271.412C36.5434 272.166 36.9898 272.821 37.5594 273.375C38.1289 273.929 38.7986 274.36 39.5682 274.668C40.3533 274.976 41.1999 275.13 42.1081 275.13C42.9855 275.13 43.8091 274.976 44.5788 274.668C45.3484 274.345 46.0411 273.852 46.6569 273.19L48.1577 274.645C47.4188 275.476 46.5183 276.107 45.4562 276.538C44.4094 276.969 43.2549 277.185 41.9927 277.185ZM63.0428 260.837H65.3518V277H63.0428V260.837ZM53.7606 277H51.4516V260.837H53.7606V277ZM63.2506 269.796H53.5297V267.787H63.2506V269.796ZM72.2909 267.81H80.6033V269.773H72.2909V267.81ZM72.4987 274.991H81.9194V277H70.1897V260.837H81.5962V262.846H72.4987V274.991ZM85.6582 277V260.837H92.4698C94.1938 260.837 95.7101 261.176 97.0185 261.853C98.3423 262.53 99.366 263.477 100.089 264.693C100.828 265.909 101.198 267.318 101.198 268.918C101.198 270.519 100.828 271.928 100.089 273.144C99.366 274.36 98.3423 275.307 97.0185 275.984C95.7101 276.661 94.1938 277 92.4698 277H85.6582ZM87.9672 274.991H92.3312C93.6704 274.991 94.8249 274.737 95.7947 274.229C96.7799 273.721 97.5419 273.013 98.0806 272.105C98.6194 271.181 98.8888 270.119 98.8888 268.918C98.8888 267.702 98.6194 266.64 98.0806 265.732C97.5419 264.824 96.7799 264.116 95.7947 263.608C94.8249 263.1 93.6704 262.846 92.3312 262.846H87.9672V274.991ZM111.431 277.185C109.306 277.185 107.636 276.577 106.42 275.361C105.204 274.145 104.596 272.367 104.596 270.027V260.837H106.905V269.934C106.905 271.735 107.298 273.052 108.083 273.883C108.883 274.714 110.007 275.13 111.454 275.13C112.916 275.13 114.04 274.714 114.825 273.883C115.625 273.052 116.026 271.735 116.026 269.934V260.837H118.265V270.027C118.265 272.367 117.657 274.145 116.441 275.361C115.24 276.577 113.57 277.185 111.431 277.185ZM122.999 277V260.837H125.308V274.991H134.059V277H122.999ZM138.81 267.81H147.122V269.773H138.81V267.81ZM139.018 274.991H148.438V277H136.709V260.837H148.115V262.846H139.018V274.991ZM152.227 267.81C151.796 267.81 151.427 267.664 151.119 267.371C150.811 267.064 150.657 266.679 150.657 266.217C150.657 265.755 150.811 265.378 151.119 265.086C151.427 264.793 151.796 264.647 152.227 264.647C152.643 264.647 152.997 264.793 153.289 265.086C153.597 265.378 153.751 265.755 153.751 266.217C153.751 266.679 153.597 267.064 153.289 267.371C152.997 267.664 152.643 267.81 152.227 267.81ZM152.227 277.139C151.796 277.139 151.427 276.992 151.119 276.7C150.811 276.392 150.657 276.007 150.657 275.545C150.657 275.084 150.811 274.706 151.119 274.414C151.427 274.121 151.796 273.975 152.227 273.975C152.643 273.975 152.997 274.121 153.289 274.414C153.597 274.706 153.751 275.084 153.751 275.545C153.751 276.007 153.597 276.392 153.289 276.7C152.997 276.992 152.643 277.139 152.227 277.139Z" fill="#32312D"/>
<path d="M24.1419 304.711L18.7389 288.548H21.1172L26.0815 303.464H24.8808L30.0299 288.548H32.1542L37.1878 303.464H36.0333L41.0669 288.548H43.2605L37.8574 304.711H35.433L30.7226 290.88H31.346L26.6126 304.711H24.1419ZM50.2865 304.849C48.9781 304.849 47.8236 304.58 46.823 304.041C45.8378 303.503 45.0682 302.764 44.514 301.825C43.9752 300.886 43.7058 299.808 43.7058 298.592C43.7058 297.376 43.9675 296.298 44.4909 295.359C45.0297 294.42 45.7609 293.689 46.6845 293.166C47.6234 292.627 48.6779 292.358 49.8478 292.358C51.0331 292.358 52.0798 292.619 52.988 293.143C53.8962 293.666 54.6043 294.405 55.1123 295.359C55.6357 296.298 55.8974 297.399 55.8974 298.661C55.8974 298.754 55.8897 298.861 55.8743 298.985C55.8743 299.108 55.8666 299.223 55.8512 299.331H45.4376V297.738H54.6967L53.7962 298.292C53.8116 297.507 53.6499 296.806 53.3113 296.191C52.9726 295.575 52.5031 295.098 51.9028 294.759C51.3178 294.405 50.6328 294.228 49.8478 294.228C49.0781 294.228 48.3931 294.405 47.7928 294.759C47.1924 295.098 46.7229 295.583 46.3843 296.214C46.0456 296.83 45.8763 297.538 45.8763 298.338V298.708C45.8763 299.523 46.061 300.255 46.4305 300.901C46.8153 301.532 47.3464 302.025 48.0237 302.379C48.701 302.733 49.4783 302.91 50.3558 302.91C51.0793 302.91 51.7335 302.787 52.3184 302.54C52.9188 302.294 53.4421 301.925 53.8885 301.432L55.1123 302.864C54.5581 303.51 53.8654 304.003 53.0342 304.341C52.2184 304.68 51.3025 304.849 50.2865 304.849ZM64.0321 304.849C62.8468 304.849 61.7847 304.588 60.8457 304.064C59.9221 303.541 59.1909 302.81 58.6521 301.871C58.1133 300.932 57.844 299.839 57.844 298.592C57.844 297.345 58.1133 296.26 58.6521 295.336C59.1909 294.397 59.9221 293.666 60.8457 293.143C61.7847 292.619 62.8468 292.358 64.0321 292.358C65.0634 292.358 65.9947 292.589 66.826 293.05C67.6572 293.512 68.3191 294.205 68.8117 295.129C69.3197 296.052 69.5737 297.207 69.5737 298.592C69.5737 299.977 69.3274 301.132 68.8348 302.056C68.3576 302.979 67.7034 303.68 66.8722 304.157C66.0409 304.619 65.0942 304.849 64.0321 304.849ZM64.2168 302.91C64.9865 302.91 65.6792 302.733 66.2949 302.379C66.926 302.025 67.4186 301.525 67.7727 300.878C68.1421 300.216 68.3268 299.454 68.3268 298.592C68.3268 297.715 68.1421 296.96 67.7727 296.329C67.4186 295.683 66.926 295.182 66.2949 294.828C65.6792 294.474 64.9865 294.297 64.2168 294.297C63.4317 294.297 62.7313 294.474 62.1156 294.828C61.4999 295.182 61.0073 295.683 60.6378 296.329C60.2684 296.96 60.0837 297.715 60.0837 298.592C60.0837 299.454 60.2684 300.216 60.6378 300.878C61.0073 301.525 61.4999 302.025 62.1156 302.379C62.7313 302.733 63.4317 302.91 64.2168 302.91ZM68.3961 304.711V301.409L68.5346 298.569L68.3037 295.729V287.578H70.5204V304.711H68.3961ZM80.1303 299.331V297.414H86.3415V299.331H80.1303ZM100.989 304.896C99.7576 304.896 98.58 304.711 97.4563 304.341C96.3326 303.957 95.4475 303.464 94.8009 302.864L95.6553 301.063C96.271 301.601 97.0561 302.048 98.0105 302.402C98.9648 302.756 99.9577 302.933 100.989 302.933C101.928 302.933 102.69 302.825 103.275 302.61C103.86 302.394 104.291 302.102 104.568 301.732C104.845 301.347 104.984 300.916 104.984 300.439C104.984 299.885 104.799 299.439 104.429 299.1C104.075 298.761 103.606 298.492 103.021 298.292C102.451 298.076 101.82 297.892 101.128 297.738C100.435 297.584 99.7345 297.407 99.0264 297.207C98.3337 296.991 97.6949 296.722 97.1099 296.399C96.5404 296.075 96.0786 295.644 95.7245 295.105C95.3705 294.551 95.1935 293.843 95.1935 292.981C95.1935 292.15 95.409 291.388 95.84 290.695C96.2864 289.987 96.9637 289.425 97.8719 289.01C98.7955 288.579 99.9654 288.363 101.382 288.363C102.321 288.363 103.252 288.486 104.175 288.733C105.099 288.979 105.9 289.333 106.577 289.795L105.815 291.642C105.122 291.18 104.391 290.849 103.621 290.649C102.852 290.434 102.105 290.326 101.382 290.326C100.473 290.326 99.7268 290.441 99.1419 290.672C98.5569 290.903 98.1259 291.211 97.8488 291.596C97.5871 291.981 97.4563 292.412 97.4563 292.889C97.4563 293.458 97.6333 293.913 97.9874 294.251C98.3568 294.59 98.8263 294.859 99.3959 295.059C99.9808 295.259 100.62 295.444 101.312 295.613C102.005 295.767 102.698 295.944 103.39 296.145C104.099 296.345 104.737 296.606 105.307 296.93C105.892 297.253 106.361 297.684 106.715 298.223C107.069 298.761 107.246 299.454 107.246 300.301C107.246 301.117 107.023 301.879 106.577 302.587C106.13 303.279 105.438 303.841 104.499 304.272C103.575 304.688 102.405 304.896 100.989 304.896ZM115.446 304.849C114.399 304.849 113.475 304.657 112.675 304.272C111.89 303.887 111.274 303.302 110.828 302.517C110.397 301.717 110.181 300.716 110.181 299.516V292.473H112.398V299.262C112.398 300.462 112.682 301.363 113.252 301.963C113.837 302.564 114.653 302.864 115.7 302.864C116.469 302.864 117.139 302.71 117.708 302.402C118.278 302.079 118.717 301.617 119.025 301.017C119.332 300.401 119.486 299.662 119.486 298.8V292.473H121.703V304.711H119.602V301.409L119.948 302.286C119.548 303.102 118.948 303.733 118.147 304.18C117.347 304.626 116.446 304.849 115.446 304.849ZM132.457 292.358C133.458 292.358 134.335 292.55 135.09 292.935C135.859 293.32 136.46 293.905 136.891 294.69C137.322 295.475 137.537 296.468 137.537 297.668V304.711H135.32V297.922C135.32 296.737 135.028 295.844 134.443 295.244C133.874 294.644 133.065 294.344 132.019 294.344C131.234 294.344 130.549 294.497 129.964 294.805C129.379 295.113 128.925 295.567 128.601 296.168C128.293 296.768 128.139 297.515 128.139 298.407V304.711H125.923V292.473H128.047V295.775L127.701 294.898C128.101 294.097 128.717 293.474 129.548 293.027C130.379 292.581 131.349 292.358 132.457 292.358Z" fill="#32312D"/>
</g>
<defs>
<clipPath id="clip0_764_2304">
<rect width="270" height="390" fill="white"/>
</clipPath>
</defs>
</svg>
