<svg width="270" height="390" viewBox="0 0 270 390" fill="none" xmlns="http://www.w3.org/2000/svg">
<g clip-path="url(#clip0_764_2257)">
<path d="M270 0H0V390H270V0Z" fill="#F7F2EC"/>
<path d="M220.18 318.359C218.983 318.707 218.353 319.689 217.885 320.849C217.183 322.264 217.273 322.867 220.549 322.411C223.879 321.762 224.221 319.813 223.672 319.279C222.781 318.166 221.17 318.057 220.18 318.367V318.359Z" fill="#DCCCBC"/>
<path d="M209.684 323.725C208.487 324.073 207.857 325.055 207.389 326.215C206.687 327.63 206.777 328.233 210.053 327.777C213.383 327.127 213.725 325.179 213.176 324.645C212.285 323.531 210.674 323.423 209.684 323.725Z" fill="#DCCCBC"/>
<path d="M219.394 326.656C218.197 327.004 217.567 327.986 217.099 329.146C216.397 330.561 216.487 331.164 219.763 330.708C223.093 330.058 223.435 328.11 222.886 327.576C221.995 326.462 220.384 326.354 219.394 326.663V326.656Z" fill="#DCCCBC"/>
<path d="M206.93 331.908C205.733 332.256 205.103 333.238 204.635 334.398C203.933 335.813 204.023 336.416 207.299 335.96C210.629 335.31 210.971 333.362 210.422 332.828C209.531 331.714 207.92 331.606 206.93 331.915V331.908Z" fill="#DCCCBC"/>
<path d="M197.031 327.654C195.834 328.002 195.204 328.984 194.736 330.144C194.034 331.559 194.124 332.162 197.4 331.706C200.73 331.056 201.072 329.108 200.523 328.574C199.632 327.46 198.021 327.352 197.031 327.662V327.654Z" fill="#DCCCBC"/>
<path d="M210.719 314.43C209.522 314.778 208.892 315.76 208.424 316.92C207.722 318.335 207.812 318.938 211.088 318.482C214.418 317.833 214.76 315.884 214.211 315.35C213.32 314.237 211.709 314.128 210.719 314.43Z" fill="#DCCCBC"/>
<path d="M200.738 317.701C199.541 318.049 198.911 319.031 198.443 320.191C197.741 321.607 197.831 322.21 201.107 321.754C204.437 321.104 204.779 319.155 204.23 318.622C203.339 317.508 201.728 317.4 200.738 317.701Z" fill="#DCCCBC"/>
<path d="M215.148 296.541C213.951 296.889 213.321 297.871 212.853 299.031C212.151 300.447 212.241 301.05 215.517 300.593C218.847 299.944 219.189 297.995 218.64 297.461C217.749 296.348 216.138 296.24 215.148 296.541Z" fill="#DCCCBC"/>
<path d="M204.652 301.901C203.455 302.249 202.825 303.231 202.357 304.391C201.655 305.806 201.745 306.409 205.021 305.953C208.351 305.303 208.693 303.354 208.144 302.821C207.253 301.707 205.642 301.599 204.652 301.901Z" fill="#DCCCBC"/>
<path d="M214.363 304.84C213.166 305.188 212.536 306.17 212.068 307.33C211.366 308.745 211.456 309.349 214.732 308.892C218.062 308.243 218.404 306.294 217.855 305.76C216.964 304.647 215.353 304.538 214.363 304.84Z" fill="#DCCCBC"/>
<path d="M201.898 310.091C200.701 310.439 200.071 311.421 199.603 312.581C198.901 313.997 198.991 314.6 202.267 314.144C205.597 313.494 205.939 311.545 205.39 311.012C204.499 309.898 202.888 309.79 201.898 310.099V310.091Z" fill="#DCCCBC"/>
<path d="M192.008 305.838C190.811 306.186 190.181 307.168 189.713 308.328C189.011 309.743 189.101 310.347 192.377 309.89C195.707 309.241 196.049 307.292 195.5 306.758C194.609 305.645 192.998 305.536 192.008 305.838Z" fill="#DCCCBC"/>
<path d="M205.687 292.606C204.49 292.954 203.86 293.936 203.392 295.096C202.69 296.511 202.78 297.114 206.056 296.658C209.386 296.008 209.728 294.06 209.179 293.526C208.288 292.412 206.677 292.304 205.687 292.606Z" fill="#DCCCBC"/>
<path d="M195.707 295.884C194.51 296.232 193.88 297.214 193.412 298.374C192.71 299.79 192.8 300.393 196.076 299.937C199.406 299.287 199.748 297.338 199.199 296.805C198.308 295.691 196.697 295.583 195.707 295.892V295.884Z" fill="#DCCCBC"/>
<path d="M189.633 313.85C188.436 314.198 187.806 315.18 187.338 316.34C186.636 317.755 186.726 318.358 190.002 317.902C193.332 317.252 193.674 315.304 193.125 314.77C192.234 313.656 190.623 313.548 189.633 313.85Z" fill="#DCCCBC"/>
<path d="M179.137 319.216C177.94 319.564 177.31 320.546 176.842 321.706C176.14 323.122 176.23 323.725 179.506 323.269C182.836 322.619 183.178 320.67 182.629 320.137C181.738 319.023 180.127 318.915 179.137 319.224V319.216Z" fill="#DCCCBC"/>
<path d="M188.855 322.149C187.658 322.497 187.028 323.479 186.56 324.639C185.858 326.054 185.948 326.657 189.224 326.201C192.554 325.551 192.896 323.602 192.347 323.069C191.456 321.955 189.845 321.847 188.855 322.149Z" fill="#DCCCBC"/>
<path d="M176.391 327.399C175.194 327.747 174.564 328.729 174.096 329.889C173.394 331.304 173.484 331.907 176.76 331.451C180.09 330.801 180.432 328.852 179.883 328.319C178.992 327.205 177.381 327.097 176.391 327.399Z" fill="#DCCCBC"/>
<path d="M166.492 323.146C165.295 323.494 164.665 324.476 164.197 325.636C163.495 327.051 163.585 327.655 166.861 327.198C170.191 326.549 170.533 324.6 169.984 324.066C169.093 322.953 167.482 322.844 166.492 323.154V323.146Z" fill="#DCCCBC"/>
<path d="M180.172 309.921C178.975 310.269 178.345 311.252 177.877 312.412C177.175 313.827 177.265 314.43 180.541 313.974C183.871 313.324 184.213 311.375 183.664 310.842C182.773 309.728 181.162 309.62 180.172 309.929V309.921Z" fill="#DCCCBC"/>
<path d="M170.191 313.194C168.994 313.542 168.364 314.524 167.896 315.684C167.194 317.099 167.284 317.702 170.56 317.246C173.89 316.596 174.232 314.647 173.683 314.114C172.792 313 171.181 312.892 170.191 313.194Z" fill="#DCCCBC"/>
<path d="M183.684 291.408C182.487 291.756 181.857 292.738 181.389 293.898C180.687 295.313 180.777 295.916 184.053 295.46C187.383 294.81 187.725 292.862 187.176 292.328C186.285 291.214 184.674 291.106 183.684 291.415V291.408Z" fill="#DCCCBC"/>
<path d="M173.187 296.768C171.99 297.116 171.36 298.098 170.892 299.258C170.19 300.673 170.28 301.276 173.556 300.82C176.886 300.17 177.228 298.222 176.679 297.688C175.788 296.574 174.177 296.466 173.187 296.768Z" fill="#DCCCBC"/>
<path d="M182.91 299.707C181.713 300.055 181.083 301.037 180.615 302.197C179.913 303.612 180.003 304.215 183.279 303.759C186.609 303.109 186.951 301.16 186.402 300.627C185.511 299.513 183.9 299.405 182.91 299.714V299.707Z" fill="#DCCCBC"/>
<path d="M170.445 304.949C169.248 305.297 168.618 306.279 168.15 307.439C167.448 308.854 167.538 309.457 170.814 309.001C174.144 308.351 174.486 306.403 173.937 305.869C173.046 304.755 171.435 304.647 170.445 304.956V304.949Z" fill="#DCCCBC"/>
<path d="M187.859 333.925C186.662 334.273 186.032 335.255 185.564 336.415C184.862 337.831 184.952 338.434 188.228 337.978C191.558 337.328 191.9 335.379 191.351 334.846C190.46 333.732 188.849 333.624 187.859 333.933V333.925Z" fill="#DCCCBC"/>
<path d="M195.32 285.631C194.123 285.979 193.493 286.961 193.025 288.121C192.323 289.536 192.413 290.14 195.689 289.683C199.019 289.034 199.361 287.085 198.812 286.551C197.921 285.438 196.31 285.329 195.32 285.631Z" fill="#DCCCBC"/>
<path d="M159.859 312.349C158.662 312.697 158.032 313.679 157.564 314.839C156.862 316.254 156.952 316.858 160.228 316.401C163.558 315.752 163.9 313.803 163.351 313.269C162.46 312.156 160.849 312.048 159.859 312.357V312.349Z" fill="#DCCCBC"/>
<path d="M197.164 340.189C195.967 340.537 195.337 341.519 194.869 342.679C194.167 344.094 194.257 344.698 197.533 344.241C200.863 343.592 201.205 341.643 200.656 341.109C199.765 339.996 198.154 339.887 197.164 340.197V340.189Z" fill="#DCCCBC"/>
<path d="M224.703 306.58C223.506 306.928 222.876 307.91 222.408 309.07C221.706 310.486 221.796 311.089 225.072 310.633C228.402 309.983 228.744 308.034 228.195 307.501C227.304 306.387 225.693 306.279 224.703 306.58Z" fill="#DCCCBC"/>
<path d="M151.598 307.106C150.401 307.454 149.771 308.436 149.303 309.596C148.601 311.011 148.691 311.614 151.967 311.158C155.297 310.508 155.639 308.56 155.09 308.026C154.199 306.912 152.588 306.804 151.598 307.106Z" fill="#DCCCBC"/>
<path d="M160.543 300.695C159.346 301.043 158.716 302.025 158.248 303.185C157.546 304.6 157.636 305.203 160.912 304.747C164.242 304.098 164.584 302.149 164.035 301.615C163.144 300.501 161.533 300.393 160.543 300.703V300.695Z" fill="#DCCCBC"/>
<path d="M174.223 287.471C173.026 287.819 172.396 288.801 171.928 289.961C171.226 291.376 171.316 291.979 174.592 291.523C177.922 290.874 178.264 288.925 177.715 288.391C176.824 287.278 175.213 287.169 174.223 287.471Z" fill="#DCCCBC"/>
<path d="M164.242 290.742C163.045 291.09 162.415 292.072 161.947 293.232C161.245 294.648 161.335 295.251 164.611 294.795C167.941 294.145 168.283 292.196 167.734 291.663C166.843 290.549 165.232 290.441 164.242 290.742Z" fill="#DCCCBC"/>
<path d="M27.6105 299.055C28.0065 299.682 28.2675 300.169 28.5915 300.61C28.9245 301.05 29.4285 301.321 30.0585 301.182C30.7695 301.027 30.8145 300.509 30.7785 299.991C30.7335 299.38 30.6615 298.777 30.5985 298.096C31.2375 297.926 31.8225 297.764 32.4075 297.617C32.9205 297.485 33.3435 297.207 33.2175 296.751C33.1365 296.457 32.7585 296.148 32.4165 296.008C31.8225 295.769 31.1565 295.66 30.3555 295.452C30.3285 294.686 30.3015 293.92 30.2655 293.147C30.2475 292.698 30.2925 292.227 30.1575 291.801C30.0765 291.546 29.7345 291.252 29.4375 291.167C28.9785 291.028 28.6005 291.283 28.4475 291.678C28.3035 292.026 28.2315 292.389 28.0965 292.745C27.9255 293.209 27.7275 293.665 27.4845 294.245C26.8815 294.029 26.3865 293.773 25.8555 293.696C25.4325 293.634 24.8925 293.673 24.5505 293.858C24.0825 294.121 24.2355 294.609 24.4695 294.972C24.7485 295.397 25.0905 295.8 25.4505 296.178C25.9545 296.712 26.1435 297.199 25.5945 297.826C25.2615 298.212 25.0365 298.7 24.9105 299.171C24.8385 299.434 24.9555 299.829 25.1715 300.037C25.4865 300.354 25.9455 300.293 26.3235 300.006C26.7105 299.72 27.1065 299.434 27.6285 299.055H27.6105Z" fill="#EBD2BE"/>
<path d="M137.989 358.858C138.07 358.301 138.097 357.713 138.259 357.156C138.421 356.607 138.934 356.406 139.582 356.515C140.221 356.623 140.347 357.033 140.32 357.504C140.275 358.378 140.203 359.244 140.149 360.118C140.113 360.652 139.924 361.093 139.204 361.131C138.565 361.17 138.295 360.776 138.178 360.327C138.061 359.863 138.043 359.368 137.98 358.858H137.989Z" fill="#EBD2BE"/>
<path d="M143.489 363.459C144.722 363.297 145.379 363.529 145.433 364.078C145.496 364.658 144.938 365.029 143.732 365.168C143.282 365.222 142.832 365.269 142.382 365.238C141.779 365.199 141.23 364.983 141.23 364.379C141.23 363.815 141.68 363.513 142.31 363.459C142.697 363.428 143.093 363.459 143.489 363.459Z" fill="#EBD2BE"/>
<path d="M133.759 363.514C134.353 363.545 134.821 363.514 135.253 363.614C135.541 363.676 135.982 363.908 136 364.086C136.027 364.372 135.82 364.89 135.604 364.937C134.587 365.145 133.534 365.285 132.49 365.308C132.247 365.308 131.779 364.751 131.797 364.465C131.815 364.171 132.229 363.792 132.58 363.637C132.958 363.475 133.462 363.537 133.759 363.514Z" fill="#EBD2BE"/>
<path d="M140.744 369.422C140.681 369.801 140.699 370.218 140.519 370.551C140.375 370.814 139.997 371.131 139.709 371.146C139.412 371.162 138.863 370.853 138.836 370.652C138.737 369.909 138.737 369.136 138.872 368.393C138.908 368.2 139.601 367.929 139.934 367.984C140.267 368.038 140.582 368.417 140.78 368.71C140.888 368.881 140.744 369.174 140.708 369.414C140.717 369.414 140.726 369.414 140.744 369.414V369.422Z" fill="#EBD2BE"/>
<path d="M119.88 306.829C119.124 306.032 118.602 305.375 117.963 304.818C116.766 303.79 115.299 304.138 114.894 305.553C114.696 306.249 114.588 307.015 114.705 307.718C114.921 309.033 114.255 309.799 112.968 310.309C112.815 310.371 112.68 310.464 112.527 310.525C111.492 310.959 110.925 311.716 111.177 312.644C111.438 313.58 112.473 313.65 113.454 313.626C113.688 313.626 113.931 313.719 114.336 313.797C114.381 314.268 114.48 314.748 114.48 315.227C114.48 316.14 114.552 317.021 115.74 317.377C117.153 317.802 117.855 316.882 118.278 316.055C119.313 314.036 120.708 312.799 123.516 313.333C124.011 313.425 124.704 313.163 125.163 312.892C125.919 312.451 125.892 311.399 125.181 310.796C124.884 310.549 124.479 310.386 124.146 310.17C123.885 309.992 123.651 309.791 123.264 309.489C123.624 308.847 124.119 308.236 124.281 307.564C124.416 306.991 124.398 306.21 124.038 305.769C123.489 305.097 122.544 305.205 121.752 305.653C121.194 305.963 120.672 306.326 119.871 306.821L119.88 306.829Z" fill="#EBD2BE"/>
<path d="M133.899 1C133.899 1 74.5526 36.3568 104.649 88.8739C134.736 141.391 199.617 99.3757 238.173 109.073C276.729 118.771 240.765 189.871 302.937 220.573V1H133.899Z" fill="#EBD2BE"/>
<path d="M103.613 38.666C103.613 38.666 110.561 69.5529 148.262 75.5231C169.979 78.9644 192.848 65.8641 214.025 63.3353C234.374 60.9071 245.426 69.9396 249.881 86.226C254.795 104.175 252.5 120.949 276.152 129.247" stroke="#DBBAA9" stroke-width="2" stroke-linecap="round" stroke-linejoin="round"/>
<path d="M-3.71322 402.484C-3.71322 402.484 -6.43122 363.253 24.6548 349.217C37.2008 343.556 49.2698 335.467 57.3248 327.293" stroke="#DBBAA9" stroke-width="2" stroke-linecap="round" stroke-linejoin="round"/>
<path d="M56.9039 327.555C56.9039 327.555 58.2809 328.313 57.2729 316.141C56.3639 303.814 54.2219 303.806 63.7439 292.515C73.3649 281.155 73.9679 266.624 79.1339 265.023C79.1339 265 80.0429 272.571 80.8259 286.654C81.5189 300.759 73.0229 309.606 67.6499 316.156C62.2139 322.722 56.9129 327.548 56.9039 327.555Z" stroke="#DBBAA9" stroke-width="2" stroke-linecap="round" stroke-linejoin="round"/>
<path d="M56.9023 327.555C56.9023 327.555 60.2413 320.038 65.7943 307.804C71.4553 295.415 72.0583 296.166 74.5513 286.19C77.1073 276.136 79.1413 265.031 79.1413 265.023" stroke="#DBBAA9" stroke-width="2" stroke-linecap="round" stroke-linejoin="round"/>
<path d="M37.7607 334.678C37.7607 334.678 39.2907 334.856 33.8367 323.194C28.3197 311.54 26.2407 312.197 30.3717 298.826C34.6557 285.363 29.3187 272.842 33.5487 269.857C33.5217 269.865 37.5717 275.797 43.8357 287.884C49.9647 300.041 45.3477 311.471 43.0167 319.676C40.5867 327.935 37.7697 334.678 37.7697 334.678H37.7607Z" stroke="#DBBAA9" stroke-width="2" stroke-linecap="round" stroke-linejoin="round"/>
<path d="M37.7601 334.678C37.7601 334.678 37.9131 325.8 38.2191 312.344C38.5611 298.85 39.4341 299.406 37.7871 289.632C36.1761 279.833 33.5481 269.85 33.5391 269.857" stroke="#DBBAA9" stroke-width="2" stroke-linecap="round" stroke-linejoin="round"/>
<path d="M55.6602 346.3C55.6872 346.253 56.2362 347.406 66.3432 340.539C76.4142 333.687 75.7662 331.599 90.8592 332.434C105.421 333.834 115.681 327.802 118.723 331.622C118.759 331.583 113.584 336.115 104.188 342.967C95.0532 349.54 83.9202 346.648 74.3082 346.571C64.9842 346.199 55.6602 346.284 55.6602 346.292V346.3Z" stroke="#DBBAA9" stroke-width="2" stroke-linecap="round" stroke-linejoin="round"/>
<path d="M55.6602 346.299C55.6602 346.299 65.9292 343.77 79.6992 341.466C93.3162 339.331 92.7312 340.368 101.515 337.622C110.2 334.985 118.705 331.637 118.714 331.629" stroke="#DBBAA9" stroke-width="2" stroke-linecap="round" stroke-linejoin="round"/>
<path d="M0.99512 373.747C0.99512 373.747 2.54312 373.785 -3.90088 362.502C-10.4439 351.258 -12.4779 352.039 -9.73288 338.444C-6.84388 324.764 -13.5399 312.924 -9.62488 309.699C-9.66088 309.715 -4.90888 315.198 2.58812 326.589C9.94112 338.05 6.37712 349.781 4.82912 358.203C3.17312 366.678 1.00412 373.747 1.00412 373.747H0.99512Z" stroke="#DBBAA9" stroke-width="2" stroke-linecap="round" stroke-linejoin="round"/>
<path d="M0.996187 373.747C0.996187 373.747 0.375189 364.737 -0.596811 351.281C-1.56881 337.81 -0.650813 338.313 -3.27881 328.785C-5.88881 319.242 -9.62381 309.691 -9.63281 309.699" stroke="#DBBAA9" stroke-width="2" stroke-linecap="round" stroke-linejoin="round"/>
<path d="M25.8516 348.66C25.8516 348.66 36.1476 340.563 37.6776 333.967" stroke="#DBBAA9" stroke-width="2" stroke-linecap="round" stroke-linejoin="round"/>
<path d="M15.6211 354.637C15.6211 354.637 34.5301 346.153 57.1021 346.207" stroke="#DBBAA9" stroke-width="2" stroke-linecap="round" stroke-linejoin="round"/>
<path d="M-22.3067 85.0147C-22.4687 84.9451 -22.4327 84.8214 -22.3877 84.6977C-22.1897 84.0558 -21.9647 83.4217 -21.7847 82.7798C-21.3887 81.3723 -21.1367 79.9571 -20.9837 78.5419C-20.7317 76.1833 -20.4887 73.8246 -20.0567 71.4659C-19.4537 68.1561 -17.9417 65.055 -15.7007 62.1395C-14.6657 60.7939 -13.3787 59.603 -12.0287 58.4585C-10.4987 57.1747 -8.91471 55.9297 -7.35771 54.6691C-5.74671 53.3622 -4.28871 51.9547 -3.05571 50.4081C-1.89471 48.9465 -1.16571 47.3843 -0.913707 45.7062C-0.850707 45.2499 -0.931708 44.8401 -1.18371 44.4457C-2.62371 42.2494 -4.01871 40.0222 -5.08971 37.6558C-5.81871 36.0473 -6.47571 34.4155 -6.98871 32.7374C-7.20471 32.0182 -7.33971 31.2681 -7.51071 30.5334C-7.57371 30.2627 -7.62771 29.9843 -7.70871 29.5977C-7.50171 29.6827 -7.38471 29.7059 -7.33971 29.7678C-7.15971 29.9766 -6.96171 30.1854 -6.86271 30.4251C-6.52071 31.2062 -6.16971 31.995 -5.89071 32.7993C-4.80171 35.9699 -3.44271 39.0246 -1.58871 41.8859C-1.26471 42.3886 -0.958708 42.8913 -0.652708 43.4017C-0.499708 43.6646 -0.274707 43.8657 0.0312925 44.0049C1.91229 44.871 3.94629 45.2499 6.23229 44.8014C7.15029 44.6235 8.05929 44.3606 8.95929 44.1054C9.92229 43.827 10.8943 43.595 11.8843 43.4558C13.3333 43.2625 14.7643 43.2238 16.1503 43.4558C17.1493 43.6259 18.1483 43.8115 19.1113 44.059C22.8103 44.987 26.6173 45.5902 30.5953 45.6443C30.7753 45.6443 30.9463 45.6675 31.2793 45.683C31.0363 45.7835 30.9283 45.8454 30.8113 45.8763C28.4803 46.5337 26.1403 47.1833 23.8093 47.8561C22.2073 48.3201 20.6143 48.8305 18.9763 49.1707C14.0983 50.1915 9.48129 49.8977 5.09829 48.5057C4.20729 48.2195 3.42429 47.7942 2.65029 47.3611C2.44329 47.2451 2.23629 47.1446 1.90329 46.9822C2.08329 47.4694 2.33529 47.7787 2.57829 48.0881C3.91029 49.7817 5.2333 51.483 6.6013 53.1611C8.4283 55.4038 10.1113 57.7238 11.6053 60.1443C11.9023 60.6238 12.3073 60.9718 12.9013 61.1961C14.5663 61.8225 16.1863 62.5262 17.9323 63.0211C21.3433 63.9955 24.8623 64.011 28.5523 63.1371C31.7833 62.3715 34.9243 61.3662 38.0113 60.1985C39.1183 59.7809 40.2253 59.3865 41.3413 58.9921C43.5103 58.2265 45.7333 57.8089 48.0013 57.7238C48.9283 57.6851 49.8553 57.6774 50.7733 57.7006C53.8873 57.8011 57.0013 57.9171 60.1063 58.0409C61.5643 58.095 62.9773 58.2883 64.3633 58.5822C65.7493 58.8761 67.0633 59.2859 68.2603 59.8891C68.4493 59.9819 68.6293 60.0902 68.9533 60.2681C68.6383 60.2835 68.5033 60.3067 68.3773 60.299C65.4883 60.0825 62.5993 60.3995 59.7013 61.0182C58.1803 61.343 56.7403 61.8998 55.3093 62.4798C53.2033 63.3305 51.1423 64.2585 49.1083 65.2329C46.9033 66.2846 44.6173 67.1662 42.2593 67.8777C37.3543 69.3625 32.5663 69.463 27.8683 68.4267C25.4203 67.8854 23.1163 67.0966 21.0193 65.9907C19.3453 65.1091 17.6713 64.2198 15.9703 63.3614C15.0973 62.9206 14.1703 62.5571 13.2613 62.1627C13.1983 62.1395 13.1083 62.1627 13.0363 62.1627C13.0093 62.2091 12.9823 62.2401 12.9913 62.2478C13.2073 62.6345 13.4233 63.0211 13.6573 63.4001C14.8183 65.2947 15.9793 67.1971 17.1493 69.0918C17.4643 69.5945 17.8063 70.0817 18.1033 70.5998C18.5173 71.319 19.2103 71.8449 19.8583 72.3939C20.7853 73.1827 21.7393 73.9483 22.6843 74.7139C22.9453 74.9227 23.2333 75.1161 23.5213 75.3094C25.6363 76.7478 28.1293 77.4051 31.0273 77.3201C34.8613 77.2118 38.6953 76.9102 42.5293 76.4771C46.6693 76.0131 50.8003 75.5646 54.9403 75.1161C56.8573 74.9073 58.7743 74.7758 60.6913 74.7294C62.8873 74.683 65.0203 74.8686 67.0633 75.3558C68.3953 75.6729 69.7093 76.0363 71.0143 76.4153C72.9133 76.9721 74.7943 77.5598 76.6843 78.1398C79.4923 79.0059 82.3903 79.6865 85.3693 80.1891C85.8463 80.2665 86.3233 80.3361 86.8003 80.4753C86.5753 80.6841 86.3683 80.599 86.1703 80.6067C80.3293 80.8774 74.5423 81.7667 68.8093 83.2206C67.4593 83.5609 66.1183 83.9553 64.7953 84.3883C62.6983 85.0766 60.5743 85.4246 58.3963 85.5483C55.0753 85.7417 51.9433 85.3473 48.9733 84.4115C47.2003 83.847 45.4993 83.1742 43.7983 82.4937C42.6373 82.0297 41.4673 81.5889 40.2793 81.179C38.9563 80.715 37.5253 80.4598 36.0763 80.2742C34.5373 80.0809 33.0433 79.7793 31.6033 79.3462C30.8203 79.1142 30.0103 78.9209 29.2093 78.7121C26.5903 78.0393 24.2323 77.003 22.1893 75.5646C21.8023 75.2939 21.4423 75.0078 21.0283 74.7526C21.1273 75.1238 21.3523 75.4409 21.5773 75.7425C22.7023 77.2737 23.8093 78.8049 24.9793 80.3051C26.2483 81.9291 27.7423 83.3907 29.3173 84.8136C30.7663 86.1283 32.2603 87.4043 33.9253 88.5334C35.5093 89.6083 34.8523 89.3222 36.8683 89.7321C38.1733 90.0027 39.5323 90.0801 40.9183 89.9641C43.2313 89.7785 45.5353 89.6779 47.8393 89.4073C53.5453 88.7422 60.9883 89.9177 65.2723 91.6809C66.8563 92.3305 68.4583 92.9646 70.0423 93.6142C73.0663 94.8515 76.1893 95.9265 79.4473 96.7849C83.0203 97.7283 86.6023 98.6795 90.2203 99.5225C94.5493 100.528 98.5543 102.005 102.262 103.969C102.523 104.108 102.748 104.278 102.991 104.441V104.418C102.802 104.387 102.595 104.387 102.415 104.333C99.3013 103.436 96.0253 103.095 92.6233 103.173C90.4993 103.219 88.3843 103.296 86.2603 103.312C81.8863 103.35 77.6473 102.91 73.5433 101.958C69.7543 101.085 66.2263 99.8086 62.8873 98.2155C62.4463 98.0067 61.9963 97.7979 61.5553 97.5814C59.6563 96.6457 57.5593 96.0657 55.3363 95.7099C54.2473 95.5321 53.1493 95.3851 52.0513 95.2382C48.7393 94.7974 45.6073 93.9854 42.6103 92.8873C41.7193 92.5625 40.8373 92.2299 39.9373 91.9129C39.7843 91.8587 39.6133 91.7969 39.4693 91.9747C39.4513 91.9129 39.4423 91.8665 39.4693 91.9747C39.4423 91.9206 39.4153 91.8742 39.4693 91.9747C40.6933 92.6553 41.9083 93.3435 43.1413 94.0086C47.4433 96.3209 51.2953 99.0585 54.9763 101.982C58.4953 104.773 62.3383 107.24 66.6133 109.251C69.9973 110.836 73.6423 111.996 77.4133 112.948C81.3733 113.945 85.4503 114.657 89.6443 115.074C92.3623 115.345 95.0713 115.623 97.7893 115.902C100.102 116.134 102.37 116.474 104.611 116.892C107.158 117.363 109.489 118.206 111.694 119.266C111.757 119.297 111.802 119.358 111.919 119.474C111.658 119.459 111.496 119.451 111.334 119.428C108.58 119.018 105.754 119.018 102.892 119.32C100.399 119.583 97.9243 119.977 95.4493 120.426C94.0813 120.673 92.7043 120.913 91.3273 121.083C87.4573 121.555 83.6773 121.361 79.9153 121.044C76.9633 120.797 74.1553 120.194 71.4913 119.297C68.7913 118.392 66.2983 117.209 64.2373 115.53C63.6343 115.043 63.0943 114.494 62.5633 113.945C60.6823 111.973 59.4583 109.684 58.5313 107.248C58.3243 106.699 58.0993 106.158 57.9013 105.609C57.8203 105.392 57.7123 105.214 57.5053 105.075C55.4623 103.698 53.6173 102.144 51.6823 100.675C48.8023 98.4939 45.7333 96.4987 42.4483 94.7201C41.2333 94.0627 40.0543 93.3745 38.8573 92.7017C38.7223 92.6243 38.5783 92.5702 38.3803 92.4774C38.2363 92.8873 38.3263 93.2198 38.3803 93.5446C38.6863 95.1841 39.2443 96.7385 40.0273 98.2233C40.4683 99.0585 41.0353 99.8163 41.7553 100.481C42.5923 101.247 43.4563 101.982 44.3473 102.701C45.7693 103.845 47.4073 104.781 49.0093 105.748C51.3043 107.124 53.5723 108.524 55.6783 110.094C57.4063 111.378 58.9813 112.777 60.2773 114.394C63.1303 117.966 64.6783 122.019 65.2993 126.404C65.6233 128.754 65.8843 131.113 66.1723 133.464C66.4873 136.093 67.0093 138.669 67.7563 141.197C67.8103 141.375 67.8643 141.561 67.9183 141.762C67.6393 141.777 67.6123 141.607 67.5493 141.499C66.6673 140.068 65.7583 138.653 64.9393 137.192C63.2743 134.237 61.1863 131.531 58.7203 129.041C56.9563 127.262 54.9673 125.669 52.9783 124.076C51.2683 122.707 49.5493 121.354 47.9923 119.869C45.7423 117.719 43.7083 115.438 42.2323 112.824C41.0173 110.674 40.1083 108.408 39.5053 106.042C38.8033 103.296 38.4433 100.481 38.4073 97.6201C38.4073 97.3803 38.3443 97.1406 38.2723 96.9086C38.1103 96.375 37.9213 95.8414 37.7503 95.3078C37.4353 94.3257 37.2283 93.3281 37.2733 92.2763C37.2913 91.8897 37.1203 91.6499 36.7603 91.4411C35.4823 90.6987 34.2313 89.9409 33.0343 89.1134C31.5763 88.1081 30.2533 86.9867 28.9573 85.8422C27.4093 84.4734 25.9513 83.0427 24.6553 81.4961C23.1973 79.7561 21.8563 77.9542 20.5963 76.1059C19.5163 74.5283 18.4363 72.943 17.3833 71.3577C16.7893 70.4683 16.2403 69.5635 15.6733 68.6665C15.5833 68.5273 15.4843 68.3881 15.2953 68.2798C15.3403 68.4422 15.3583 68.6123 15.4213 68.7593C15.8983 69.8883 16.1593 71.0793 16.3393 72.2934C16.5463 73.6467 16.7353 75.0001 16.8793 76.3611C17.0953 78.4414 17.0053 80.5449 16.6363 82.6638C16.2673 84.775 15.8443 86.8862 15.4123 88.9897C15.1333 90.3507 14.8633 91.7195 14.7013 93.0883C14.3503 95.9574 14.7193 98.7027 15.6823 101.348C16.7623 104.278 17.9413 107.178 19.5343 109.908C20.2903 111.208 21.1093 112.484 21.9823 113.721C23.1433 115.368 24.3763 116.977 25.5823 118.601C27.3373 120.975 28.8673 123.449 30.1453 126.056C31.4953 128.809 32.8813 131.546 34.0603 134.369C34.4113 135.204 34.7173 136.055 35.0323 136.898C35.0863 137.052 35.1223 137.207 35.2033 137.501C34.8433 137.292 34.7533 137.068 34.6183 136.882C34.0423 136.093 33.5023 135.297 32.9083 134.524C30.6583 131.616 27.8953 129.087 24.7993 126.806C23.3863 125.762 21.8833 124.81 20.3803 123.852C17.3113 121.887 14.3413 119.83 11.6233 117.541C10.1113 116.273 8.75229 114.896 7.55529 113.404C6.18729 111.702 5.26029 109.816 4.61229 107.813C3.96429 105.848 3.34329 103.869 2.83029 101.858C1.62429 97.1793 1.84029 92.3769 3.26229 87.5049C3.72129 85.9195 4.41429 84.3806 5.31429 82.8958C6.27729 81.3027 7.29429 79.7251 8.30229 78.1398C8.66229 77.5675 9.04929 77.003 9.41829 76.4307C10.1563 75.2862 10.8853 74.1417 11.6413 73.0049C12.9463 71.0483 13.7203 68.9913 14.2063 66.8723C14.2783 66.5398 14.2603 66.2382 14.0713 65.9521C13.8013 65.5345 13.5763 65.1014 13.3243 64.6761C12.6313 63.5083 11.9293 62.3483 11.2183 61.1883C10.9573 60.763 10.6873 60.3531 10.3993 59.9433C9.48129 58.6441 8.55429 57.3449 7.63629 56.0457C7.56429 55.9451 7.47429 55.8523 7.34829 55.6977C7.29429 55.8446 7.24029 55.9297 7.24029 56.0147C7.24029 56.2622 7.28529 56.5019 7.30329 56.7494C7.65429 61.9849 6.12429 67.0425 3.23529 71.9763C2.19129 73.755 0.733293 75.3326 -0.841707 76.8406C-2.63271 78.5651 -4.38771 80.3129 -5.98971 82.1611C-8.10471 84.5971 -9.80571 87.1723 -11.0207 89.9409C-12.0377 92.2763 -12.5867 94.6427 -12.6317 97.0401C-12.6407 97.5118 -12.6677 97.9835 -12.6947 98.4475C-12.6947 98.579 -12.7667 98.6873 -12.9557 98.7182V98.7336C-12.9737 98.5635 -12.9557 98.3934 -12.9827 98.231C-13.2527 96.8931 -13.5317 95.5553 -13.8107 94.2174C-14.1887 92.4001 -14.5577 90.5905 -14.9357 88.7731C-15.7907 84.6281 -14.6567 80.6067 -12.1727 76.6859C-11.0567 74.9305 -9.58971 73.3606 -8.06871 71.8294C-6.36771 70.1203 -4.39671 68.6587 -2.22771 67.3827C-0.868708 66.5785 0.436294 65.7046 1.65129 64.7457C4.31529 62.6499 5.71029 60.1443 6.02529 57.283C6.12429 56.3395 6.14229 55.4038 6.02529 54.4758C5.98029 54.1046 5.83629 53.7798 5.60229 53.4782C4.08129 51.5449 2.58729 49.6038 1.07529 47.6705C0.976292 47.539 0.859293 47.423 0.742293 47.2915C0.490293 47.4849 0.589293 47.6627 0.598293 47.8174C0.616293 48.8305 0.526294 49.8435 0.382294 50.8643C0.139294 52.5811 -0.535706 54.2129 -1.64271 55.7595C-2.47071 56.9273 -3.40671 58.0331 -4.38771 59.1313C-4.70271 59.487 -5.01771 59.8505 -5.34171 60.1985C-7.06971 62.0622 -8.36571 64.0961 -9.36471 66.2382C-9.68871 66.9342 -10.0127 67.6302 -10.2827 68.3339C-11.3177 71.0097 -12.9017 73.4998 -14.8727 75.8507C-15.5207 76.6241 -16.1597 77.3974 -16.8527 78.1398C-18.6077 80.0267 -20.1377 82.0297 -21.6137 84.0481C-21.8387 84.3574 -22.0727 84.6667 -22.2977 84.9761H-22.2707L-22.3067 85.0147Z" fill="#B6B3A0"/>
<path d="M251.707 261.294C251.707 261.294 342.607 254.984 329.863 350.962C317.119 446.941 262.417 453.058 239.269 445.966C216.13 438.875 169.231 408.429 198.472 379.081C227.713 349.733 235.552 351.674 223.942 326.935C212.332 302.204 201.982 282.12 251.698 261.286L251.707 261.294Z" fill="#F2E8DC"/>
<path d="M111.794 392.715C112.496 400.642 110.489 408.769 105.314 415.644C94.6401 429.827 71.9691 436.331 53.5281 430.5C40.3071 426.316 30.1461 416.835 23.1261 406.341C19.0131 400.193 15.7461 393.365 15.9081 386.281C16.4571 361.704 57.6231 355.757 79.2231 359.114C98.3841 362.091 110.399 377.024 111.794 392.715Z" fill="#B6B3A0"/>
<path d="M-230 240.756H179.81" stroke="#32312D" stroke-miterlimit="10"/>
<path d="M49.2123 59.1951C49.2123 65.1911 47.5241 69.3679 44.1477 71.7255C41.0333 73.9085 36.7547 75 31.3117 75H18.9559V74.1705H21.8375V45.2675H18.9559V44.438H32.4469C38.0353 44.438 42.2267 45.5877 45.0209 47.8871C47.8152 50.1575 49.2123 53.9268 49.2123 59.1951ZM30.3512 74.1705H32.0103C34.95 74.1705 37.0457 73.1372 38.2973 71.0706C39.578 68.9749 40.2183 65.4821 40.2183 60.5922V58.0599C40.2183 51.5109 38.9668 47.567 36.4636 46.2281C35.2702 45.5877 33.582 45.2675 31.399 45.2675H30.3512V74.1705ZM62.9164 75.4366C59.1617 75.4366 56.3383 74.4761 54.4464 72.555C52.5836 70.6049 51.6521 67.9125 51.6521 64.4779C51.6521 61.0142 52.7 58.3655 54.7957 56.5318C56.9205 54.6981 59.6128 53.7812 62.8728 53.7812C69.48 53.7812 72.6526 57.0994 72.3906 63.7357H60.0785V65.4385C60.0785 68.2909 60.4424 70.4448 61.17 71.9001C61.8977 73.3555 63.1638 74.0831 64.9684 74.0831C68.3448 74.0831 70.5569 72.2785 71.6048 68.6693L72.3906 68.8003C71.8376 70.896 70.8334 72.5259 69.3781 73.6902C67.9519 74.8545 65.798 75.4366 62.9164 75.4366ZM60.1222 62.8625H64.6192V60.7232C64.6192 58.3655 64.4736 56.7647 64.1826 55.9206C63.9206 55.0474 63.3676 54.6108 62.5235 54.6108C61.7085 54.6108 61.0973 55.0765 60.6898 56.0079C60.3114 56.9102 60.1222 58.482 60.1222 60.7232V62.8625ZM89.4017 41.993C86.1126 41.993 84.4681 43.7394 84.4681 47.2322V54.2178H98.8322V74.2141H101.277V75H88.7468V74.2141H90.7115V55.0037H84.4681V74.2141H87.2623V75H73.946V74.2141H76.3473V55.0037H73.8151V54.2178H76.3473V54.1305C76.3473 50.0556 77.4825 46.8975 79.7528 44.6563C82.0231 42.386 85.385 41.2508 89.8383 41.2508C92.2832 41.2508 94.2043 41.7747 95.6014 42.8226C97.0276 43.8413 97.7407 45.0347 97.7407 46.4027C97.7407 47.7707 97.3915 48.7749 96.6929 49.4152C95.9943 50.0556 95.092 50.3758 93.986 50.3758C92.8799 50.3758 92.0067 50.0992 91.3664 49.5462C90.726 48.9641 90.4059 48.3092 90.4059 47.5815C90.4059 46.8247 90.4932 46.0971 90.6678 45.3985L92.4579 44.9183C92.8363 43.9286 92.7053 43.201 92.0649 42.7353C91.4246 42.2404 90.5368 41.993 89.4017 41.993ZM102.259 54.2178H112.781V58.2346C113.247 56.8957 113.96 55.8187 114.92 55.0037C115.881 54.1887 117.336 53.7812 119.286 53.7812C123.798 53.7812 126.054 56.2116 126.054 61.0725V74.2141H128.499V75H116.143V74.2141H117.933V60.0246C117.933 58.2782 117.816 57.1576 117.584 56.6628C117.351 56.1389 116.929 55.8769 116.317 55.8769C115.386 55.8769 114.556 56.4882 113.829 57.7106C113.13 58.9331 112.781 60.4176 112.781 62.164V74.2141H114.658V75H102.259V74.2141H104.66V55.0037H102.259V54.2178ZM140.558 75.4366C136.803 75.4366 133.98 74.4761 132.088 72.555C130.225 70.6049 129.294 67.9125 129.294 64.4779C129.294 61.0142 130.341 58.3655 132.437 56.5318C134.562 54.6981 137.254 53.7812 140.514 53.7812C147.121 53.7812 150.294 57.0994 150.032 63.7357H137.72V65.4385C137.72 68.2909 138.084 70.4448 138.811 71.9001C139.539 73.3555 140.805 74.0831 142.61 74.0831C145.986 74.0831 148.198 72.2785 149.246 68.6693L150.032 68.8003C149.479 70.896 148.475 72.5259 147.02 73.6902C145.593 74.8545 143.439 75.4366 140.558 75.4366ZM137.764 62.8625H142.261V60.7232C142.261 58.3655 142.115 56.7647 141.824 55.9206C141.562 55.0474 141.009 54.6108 140.165 54.6108C139.35 54.6108 138.739 55.0765 138.331 56.0079C137.953 56.9102 137.764 58.482 137.764 60.7232V62.8625ZM159.214 55.0037V54.2178H171.876V55.0037H169.518L174.277 69.4988L179.342 55.0037H176.416V54.2178H182.572V55.0037H180.389L172.225 78.5365C171.265 81.2725 170.188 83.179 168.994 84.2559C167.801 85.362 166.345 85.915 164.628 85.915C162.911 85.915 161.557 85.5221 160.568 84.7362C159.578 83.9503 159.083 82.9461 159.083 81.7236C159.083 80.5012 159.404 79.5697 160.044 78.9294C160.684 78.2891 161.528 77.9689 162.576 77.9689C164.992 77.9689 166.2 78.9731 166.2 80.9814C166.2 81.418 166.113 81.9419 165.938 82.5532H164.41C164.177 83.2226 164.148 83.7757 164.323 84.2123C164.497 84.6489 164.89 84.8672 165.501 84.8672C166.695 84.8672 167.757 84.2705 168.689 83.0771C169.62 81.9128 170.508 80.1228 171.352 77.7069L172.312 75H168.47L161.004 55.0037H159.214ZM195.663 66.399V62.6879C195.663 59.8645 195.503 57.8125 195.183 56.5318C194.892 55.222 194.193 54.5671 193.087 54.5671C192.447 54.5671 191.923 54.7563 191.516 55.1347C191.137 55.484 190.861 56.0807 190.686 56.9248C190.424 58.2346 190.293 60.2284 190.293 62.9062V66.3117C190.293 69.4843 190.38 71.3908 190.555 72.0311C190.759 72.6715 190.963 73.1954 191.166 73.6029C191.486 74.3014 192.112 74.6507 193.044 74.6507C194.179 74.6507 194.921 73.9958 195.27 72.686C195.532 71.7546 195.663 69.6589 195.663 66.399ZM192.956 75.4366C189.318 75.4366 186.567 74.5052 184.705 72.6424C182.842 70.7795 181.91 68.1163 181.91 64.6526C181.91 61.1598 182.9 58.482 184.879 56.6191C186.888 54.7272 189.696 53.7812 193.306 53.7812C196.915 53.7812 199.607 54.6544 201.383 56.4008C203.158 58.1181 204.046 60.7523 204.046 64.3033C204.046 71.7255 200.349 75.4366 192.956 75.4366ZM230.808 75H220.854L220.373 71.8128C219.908 72.9771 219.209 73.8794 218.278 74.5197C217.375 75.131 216.022 75.4366 214.217 75.4366C209.706 75.4366 207.45 73.0062 207.45 68.1454V55.0037H205.005V54.2178H215.571V69.1932C215.571 70.9396 215.687 72.0893 215.92 72.6424C216.182 73.1954 216.677 73.4719 217.405 73.4719C218.161 73.4719 218.831 73.0207 219.413 72.1184C219.995 71.2161 220.286 69.9645 220.286 68.3637V55.0037H218.278V54.2178H228.407V74.2141H230.808V75ZM246.284 55.4403C245.207 55.4403 244.261 56.1389 243.446 57.536C242.631 58.9331 242.224 60.5922 242.224 62.5132V74.2141H245.324V75H231.702V74.2141H234.103V55.0037H231.702V54.2178H242.224V58.4092C242.602 56.9248 243.33 55.7896 244.407 55.0037C245.484 54.1887 246.706 53.7812 248.074 53.7812C249.442 53.7812 250.548 54.1742 251.393 54.9601C252.266 55.7168 252.702 56.8083 252.702 58.2346C252.702 59.6317 252.382 60.7086 251.742 61.4654C251.101 62.2222 250.112 62.6006 248.773 62.6006C247.463 62.6006 246.488 62.164 245.848 61.2908C245.236 60.4176 245.164 59.2096 245.629 57.667H247.201C247.929 56.1825 247.623 55.4403 246.284 55.4403Z" fill="#32312D"/>
<path d="M19.5114 81.0636H40.4743C46.9711 81.0636 51.8321 81.9517 55.0571 83.7278C58.3289 85.4572 59.9648 88.4018 59.9648 92.5617C59.9648 98.965 56.1088 102.798 48.3967 104.06V104.2C57.7447 105.368 62.4187 109.435 62.4187 116.399C62.4187 121.494 60.5024 125.069 56.6697 127.126C52.837 129.136 47.3217 130.141 40.1237 130.141H19.5114V128.809H24.0685V82.3957H19.5114V81.0636ZM37.74 105.322V128.809H41.0351C43.6058 128.809 45.4053 127.92 46.4336 126.144C47.4619 124.368 47.976 121.751 47.976 118.292V114.576C47.976 111.491 47.345 109.178 46.0831 107.635C44.8211 106.093 42.5776 105.322 39.3525 105.322H37.74ZM37.74 82.3957V103.99H39.5628C41.9933 103.99 43.676 103.265 44.6108 101.816C45.5923 100.321 46.0831 98.0536 46.0831 95.0155V91.7203C46.0831 88.2616 45.6624 85.8545 44.8211 84.499C43.9798 83.0968 42.3672 82.3957 39.9835 82.3957H37.74ZM83.3942 130.842C77.3647 130.842 72.8309 129.299 69.7928 126.214C66.8015 123.083 65.3058 118.759 65.3058 113.244C65.3058 107.682 66.9884 103.429 70.3537 100.484C73.7657 97.5395 78.0892 96.0672 83.3241 96.0672C93.9341 96.0672 99.0287 101.396 98.6081 112.052H78.837V114.787C78.837 119.367 79.4213 122.826 80.5898 125.163C81.7583 127.5 83.7915 128.668 86.6894 128.668C92.1112 128.668 95.6634 125.77 97.3461 119.975L98.6081 120.185C97.72 123.55 96.1075 126.168 93.7705 128.037C91.4802 129.907 88.0214 130.842 83.3942 130.842ZM78.9071 110.65H86.1285V107.215C86.1285 103.429 85.8948 100.858 85.4274 99.5026C85.0067 98.1004 84.1187 97.3993 82.7632 97.3993C81.4545 97.3993 80.4729 98.1471 79.8186 99.6428C79.211 101.092 78.9071 103.616 78.9071 107.215V110.65ZM117.932 113.665H119.965V108.266C119.965 103.826 119.708 100.858 119.194 99.3623C118.727 97.8199 117.792 97.0487 116.39 97.0487C115.548 97.0487 114.777 97.2824 114.076 97.7498C113.422 98.1705 113.095 98.7781 113.095 99.5727C113.095 100.321 113.235 101.092 113.515 101.886H115.268C115.642 102.868 115.829 104.06 115.829 105.462C115.829 106.817 115.245 108.009 114.076 109.038C112.908 110.019 111.435 110.51 109.659 110.51C105.639 110.51 103.63 108.57 103.63 104.691C103.63 98.9417 108.514 96.0672 118.283 96.0672C123.845 96.0672 127.677 97.0253 129.781 98.9417C131.931 100.811 133.006 104.27 133.006 109.318V123.55C133.006 125.981 133.683 127.196 135.039 127.196C136.628 127.196 137.563 124.789 137.843 119.975L138.895 120.045C138.708 124.158 137.937 126.986 136.581 128.528C135.226 130.071 133.006 130.842 129.921 130.842C124.312 130.842 121.087 129.112 120.246 125.654C119.638 127.43 118.727 128.738 117.511 129.58C116.296 130.421 114.52 130.842 112.183 130.842C105.266 130.842 101.807 128.014 101.807 122.358C101.807 119.04 103.116 116.773 105.733 115.558C108.397 114.296 112.464 113.665 117.932 113.665ZM115.128 122.288C115.128 124.719 115.245 126.285 115.478 126.986C115.759 127.687 116.249 128.037 116.951 128.037C117.698 128.037 118.376 127.453 118.984 126.285C119.638 125.069 119.965 123.41 119.965 121.307V114.787H119.475C116.577 114.787 115.128 116.913 115.128 121.167V122.288ZM179.914 130.141H163.929L163.157 125.023C162.41 126.892 161.288 128.341 159.792 129.369C158.343 130.351 156.17 130.842 153.272 130.842C146.027 130.842 142.405 126.939 142.405 119.133V98.0302H138.479V96.7683H155.445V120.816C155.445 123.62 155.632 125.467 156.006 126.355C156.427 127.243 157.221 127.687 158.39 127.687C159.605 127.687 160.68 126.962 161.615 125.513C162.55 124.064 163.017 122.055 163.017 119.484V98.0302H159.792V96.7683H176.058V128.879H179.914V130.141ZM184.854 120.115V98.0302H180.998V96.7683H184.854V87.7241L197.895 84.499V96.7683H207.009V98.0302H197.895V121.657C197.895 123.854 198.105 125.467 198.526 126.495C198.993 127.523 199.928 128.037 201.33 128.037C202.732 128.037 203.948 127.336 204.976 125.934C206.051 124.532 206.752 122.615 207.079 120.185L208.271 120.325C207.897 123.55 206.869 126.121 205.186 128.037C203.504 129.907 200.723 130.842 196.843 130.842C192.964 130.842 189.996 130.071 187.939 128.528C185.883 126.986 184.854 124.181 184.854 120.115ZM207.906 98.0302V96.7683H228.238V98.0302H224.452L232.094 121.307L240.226 98.0302H235.529V96.7683H245.415V98.0302H241.909L228.798 135.82C227.256 140.213 225.527 143.275 223.61 145.004C221.694 146.78 219.357 147.668 216.599 147.668C213.842 147.668 211.668 147.037 210.079 145.775C208.49 144.513 207.695 142.901 207.695 140.938C207.695 138.974 208.21 137.479 209.238 136.451C210.266 135.422 211.622 134.908 213.304 134.908C217.184 134.908 219.123 136.521 219.123 139.746C219.123 140.447 218.983 141.288 218.703 142.27H216.249C215.875 143.345 215.828 144.233 216.109 144.934C216.389 145.635 217.02 145.985 218.002 145.985C219.918 145.985 221.624 145.027 223.12 143.111C224.615 141.241 226.041 138.367 227.396 134.487L228.939 130.141H222.769L210.78 98.0302H207.906Z" fill="#32312D"/>
<path d="M33.4074 154.885V154.099H44.6717V154.885H42.8816L46.811 169.598L50.6967 154.885H47.6842V154.099H53.5783V154.885H51.7446L46.5054 174.881H40.524L36.7255 161.477L32.6215 174.881H26.7711L20.3094 154.885H18.3447V154.099H31.5737V154.885H28.9541L32.9708 169.729L36.1143 159.513L35.0228 154.885H33.4074ZM61.3054 151.086C59.7628 151.086 58.6567 150.693 57.9873 149.907C57.3469 149.121 57.0268 148.146 57.0268 146.982C57.0268 145.818 57.376 144.857 58.0746 144.101C58.8023 143.344 59.8938 142.965 61.3491 142.965C62.8044 142.965 63.9105 143.315 64.6673 144.013C65.424 144.683 65.8024 145.658 65.8024 146.938C65.8024 148.19 65.4386 149.194 64.7109 149.951C63.9833 150.708 62.8481 151.086 61.3054 151.086ZM54.7128 154.099H65.4095V174.095H67.8544V174.881H54.8874V174.095H57.2887V154.885H54.7128V154.099ZM70.9274 168.637V154.885H68.5261V154.099H70.9274V148.467L79.0481 146.458V154.099H84.7239V154.885H79.0481V169.598C79.0481 170.966 79.1791 171.97 79.4411 172.611C79.7321 173.251 80.3143 173.571 81.1875 173.571C82.0607 173.571 82.8174 173.134 83.4578 172.261C84.1272 171.388 84.5638 170.195 84.7676 168.681L85.5098 168.768C85.2769 170.777 84.6366 172.378 83.5888 173.571C82.5409 174.735 80.8091 175.317 78.3932 175.317C75.9774 175.317 74.1291 174.837 72.8484 173.877C71.5677 172.916 70.9274 171.17 70.9274 168.637ZM85.927 142.136H96.449V158.115C96.9147 156.777 97.6278 155.7 98.5884 154.885C99.5489 154.07 101.004 153.662 102.954 153.662C107.466 153.662 109.722 156.093 109.722 160.953V174.095H112.167V174.881H99.8108V174.095H101.601V159.905C101.601 158.159 101.484 157.038 101.252 156.544C101.019 156.02 100.597 155.758 99.9855 155.758C99.0541 155.758 98.2245 156.369 97.4969 157.591C96.7983 158.814 96.449 160.298 96.449 162.045V174.095H98.3264V174.881H85.927V174.095H88.3283V142.922H85.927V142.136ZM146.217 174.881H136.263L135.782 171.694C135.317 172.858 134.618 173.76 133.687 174.401C132.784 175.012 131.431 175.317 129.626 175.317C125.115 175.317 122.859 172.887 122.859 168.026V154.885H120.414V154.099H130.98V169.074C130.98 170.82 131.096 171.97 131.329 172.523C131.591 173.076 132.086 173.353 132.813 173.353C133.57 173.353 134.24 172.902 134.822 171.999C135.404 171.097 135.695 169.845 135.695 168.245V154.885H133.687V154.099H143.816V174.095H146.217V174.881ZM148.115 175.317V167.502H148.639C149.396 170.035 150.414 171.81 151.695 172.829C152.976 173.848 154.577 174.357 156.498 174.357C159.466 174.357 160.951 173.411 160.951 171.519C160.951 170.704 160.587 170.093 159.859 169.685C158.724 169.045 157.269 168.55 155.493 168.201C153.514 167.677 151.855 166.978 150.516 166.105C148.915 165.057 148.115 163.398 148.115 161.128C148.115 158.858 148.813 157.053 150.211 155.714C151.608 154.346 153.47 153.662 155.799 153.662C157.225 153.662 158.695 153.997 160.209 154.666C160.762 154.899 161.184 155.016 161.475 155.016C161.766 155.016 162.013 154.914 162.217 154.71C162.421 154.506 162.668 154.128 162.959 153.575H163.439V160.255H162.916C161.431 156.471 159.132 154.579 156.017 154.579C154.649 154.579 153.631 154.826 152.961 155.321C152.292 155.787 151.957 156.384 151.957 157.111C151.957 157.548 152.059 157.897 152.263 158.159C152.466 158.392 152.626 158.567 152.743 158.683C152.859 158.799 153.048 158.93 153.31 159.076C153.572 159.192 153.791 159.294 153.965 159.382C154.14 159.44 154.402 159.527 154.751 159.644C155.13 159.76 155.406 159.833 155.581 159.862C157.56 160.357 158.986 160.793 159.859 161.172C160.733 161.521 161.562 161.957 162.348 162.481C163.949 163.587 164.749 165.378 164.749 167.852C164.749 170.297 164.022 172.159 162.566 173.44C161.111 174.692 159.117 175.317 156.585 175.317C154.78 175.317 153.034 174.895 151.346 174.051C150.996 173.818 150.72 173.702 150.516 173.702C149.876 173.702 149.25 174.241 148.639 175.317H148.115Z" fill="#32312D"/>
<path d="M20.2351 201.051V188.451H21.0091L26.8591 198.549H26.4451L32.2771 188.451H33.0331L33.0511 201.051H32.1511L32.1331 189.837H32.3851L26.8591 199.377H26.4091L20.8651 189.837H21.1351V201.051H20.2351ZM35.338 201.051L41.134 188.451H42.052L47.848 201.051H46.858L41.386 189.027H41.782L36.328 201.051H35.338ZM37.462 197.505L37.768 196.731H45.31L45.616 197.505H37.462ZM50.1355 201.051V188.451H50.9095L59.8915 199.917H59.4775V188.451H60.3955V201.051H59.6395L50.6395 189.585H51.0535V201.051H50.1355ZM64.7956 201.051V188.451H65.7136V201.051H64.7956ZM75.4322 201.141C74.4962 201.141 73.6262 200.985 72.8222 200.673C72.0302 200.349 71.3402 199.899 70.7522 199.323C70.1642 198.747 69.7082 198.075 69.3842 197.307C69.0602 196.527 68.8982 195.675 68.8982 194.751C68.8982 193.827 69.0602 192.981 69.3842 192.213C69.7082 191.433 70.1642 190.755 70.7522 190.179C71.3522 189.603 72.0482 189.159 72.8402 188.847C73.6322 188.523 74.4962 188.361 75.4322 188.361C76.3202 188.361 77.1482 188.505 77.9162 188.793C78.6962 189.081 79.3622 189.519 79.9142 190.107L79.3382 190.701C78.7982 190.173 78.1982 189.795 77.5382 189.567C76.8902 189.327 76.2002 189.207 75.4682 189.207C74.6642 189.207 73.9142 189.345 73.2182 189.621C72.5342 189.897 71.9342 190.287 71.4182 190.791C70.9142 191.295 70.5182 191.883 70.2302 192.555C69.9542 193.227 69.8162 193.959 69.8162 194.751C69.8162 195.543 69.9542 196.275 70.2302 196.947C70.5182 197.619 70.9142 198.207 71.4182 198.711C71.9342 199.215 72.5342 199.605 73.2182 199.881C73.9142 200.157 74.6642 200.295 75.4682 200.295C76.2002 200.295 76.8902 200.181 77.5382 199.953C78.1982 199.713 78.7982 199.323 79.3382 198.783L79.9142 199.377C79.3622 199.965 78.6962 200.409 77.9162 200.709C77.1482 200.997 76.3202 201.141 75.4322 201.141ZM87.921 201.141C86.361 201.141 85.131 200.685 84.231 199.773C83.331 198.861 82.881 197.505 82.881 195.705V188.451H83.799V195.669C83.799 197.241 84.159 198.405 84.879 199.161C85.599 199.917 86.619 200.295 87.939 200.295C89.247 200.295 90.261 199.917 90.981 199.161C91.701 198.405 92.061 197.241 92.061 195.669V188.451H92.979V195.705C92.979 197.505 92.529 198.861 91.629 199.773C90.729 200.685 89.493 201.141 87.921 201.141ZM97.2624 201.051V188.451H101.78C102.836 188.451 103.742 188.619 104.498 188.955C105.254 189.291 105.836 189.777 106.244 190.413C106.652 191.037 106.856 191.799 106.856 192.699C106.856 193.575 106.652 194.331 106.244 194.967C105.836 195.591 105.254 196.077 104.498 196.425C103.742 196.761 102.836 196.929 101.78 196.929H97.7664L98.1804 196.497V201.051H97.2624ZM106.01 201.051L102.734 196.479H103.778L107.054 201.051H106.01ZM98.1804 196.551L97.7664 196.119H101.78C103.136 196.119 104.162 195.819 104.858 195.219C105.566 194.619 105.92 193.779 105.92 192.699C105.92 191.607 105.566 190.767 104.858 190.179C104.162 189.579 103.136 189.279 101.78 189.279H97.7664L98.1804 188.829V196.551ZM111.027 194.247H117.849V195.057H111.027V194.247ZM111.135 200.223H118.911V201.051H110.217V188.451H118.641V189.279H111.135V200.223ZM124.776 201.051L130.572 188.451H131.49L137.286 201.051H136.296L130.824 189.027H131.22L125.766 201.051H124.776ZM126.9 197.505L127.206 196.731H134.748L135.054 197.505H126.9ZM139.573 201.051V188.451H140.347L149.329 199.917H148.915V188.451H149.833V201.051H149.077L140.077 189.585H140.491V201.051H139.573ZM154.233 201.051V188.451H159.219C160.551 188.451 161.721 188.721 162.729 189.261C163.737 189.801 164.517 190.545 165.069 191.493C165.633 192.441 165.915 193.527 165.915 194.751C165.915 195.975 165.633 197.061 165.069 198.009C164.517 198.957 163.737 199.701 162.729 200.241C161.721 200.781 160.551 201.051 159.219 201.051H154.233ZM155.151 200.223H159.147C160.335 200.223 161.367 199.989 162.243 199.521C163.119 199.053 163.797 198.411 164.277 197.595C164.757 196.767 164.997 195.819 164.997 194.751C164.997 193.683 164.757 192.741 164.277 191.925C163.797 191.097 163.119 190.449 162.243 189.981C161.367 189.513 160.335 189.279 159.147 189.279H155.151V200.223Z" fill="#32312D"/>
<path d="M20.2351 223.051V210.451H24.7531C25.8091 210.451 26.7151 210.619 27.4711 210.955C28.2271 211.291 28.8091 211.777 29.2171 212.413C29.6251 213.037 29.8291 213.799 29.8291 214.699C29.8291 215.575 29.6251 216.331 29.2171 216.967C28.8091 217.603 28.2271 218.089 27.4711 218.425C26.7151 218.761 25.8091 218.929 24.7531 218.929H20.7391L21.1531 218.497V223.051H20.2351ZM21.1531 218.551L20.7391 218.101H24.7531C26.1091 218.101 27.1351 217.807 27.8311 217.219C28.5391 216.619 28.8931 215.779 28.8931 214.699C28.8931 213.607 28.5391 212.767 27.8311 212.179C27.1351 211.579 26.1091 211.279 24.7531 211.279H20.7391L21.1531 210.829V218.551ZM33.7365 216.247H40.5585V217.057H33.7365V216.247ZM33.8445 222.223H41.6205V223.051H32.9265V210.451H41.3505V211.279H33.8445V222.223ZM44.9675 223.051V210.451H49.9535C51.2855 210.451 52.4555 210.721 53.4635 211.261C54.4715 211.801 55.2515 212.545 55.8035 213.493C56.3675 214.441 56.6495 215.527 56.6495 216.751C56.6495 217.975 56.3675 219.061 55.8035 220.009C55.2515 220.957 54.4715 221.701 53.4635 222.241C52.4555 222.781 51.2855 223.051 49.9535 223.051H44.9675ZM45.8855 222.223H49.8815C51.0695 222.223 52.1015 221.989 52.9775 221.521C53.8535 221.053 54.5315 220.411 55.0115 219.595C55.4915 218.767 55.7315 217.819 55.7315 216.751C55.7315 215.683 55.4915 214.741 55.0115 213.925C54.5315 213.097 53.8535 212.449 52.9775 211.981C52.1015 211.513 51.0695 211.279 49.8815 211.279H45.8855V222.223ZM59.8386 223.051V210.451H60.7566V223.051H59.8386ZM70.4752 223.141C69.5392 223.141 68.6692 222.985 67.8652 222.673C67.0732 222.349 66.3832 221.899 65.7952 221.323C65.2072 220.747 64.7512 220.075 64.4272 219.307C64.1032 218.527 63.9412 217.675 63.9412 216.751C63.9412 215.827 64.1032 214.981 64.4272 214.213C64.7512 213.433 65.2072 212.755 65.7952 212.179C66.3952 211.603 67.0912 211.159 67.8832 210.847C68.6752 210.523 69.5392 210.361 70.4752 210.361C71.3632 210.361 72.1912 210.505 72.9592 210.793C73.7392 211.081 74.4052 211.519 74.9572 212.107L74.3812 212.701C73.8412 212.173 73.2412 211.795 72.5812 211.567C71.9332 211.327 71.2432 211.207 70.5112 211.207C69.7072 211.207 68.9572 211.345 68.2612 211.621C67.5772 211.897 66.9772 212.287 66.4612 212.791C65.9572 213.295 65.5612 213.883 65.2732 214.555C64.9972 215.227 64.8592 215.959 64.8592 216.751C64.8592 217.543 64.9972 218.275 65.2732 218.947C65.5612 219.619 65.9572 220.207 66.4612 220.711C66.9772 221.215 67.5772 221.605 68.2612 221.881C68.9572 222.157 69.7072 222.295 70.5112 222.295C71.2432 222.295 71.9332 222.181 72.5812 221.953C73.2412 221.713 73.8412 221.323 74.3812 220.783L74.9572 221.377C74.4052 221.965 73.7392 222.409 72.9592 222.709C72.1912 222.997 71.3632 223.141 70.4752 223.141ZM82.9639 223.141C81.4039 223.141 80.1739 222.685 79.2739 221.773C78.3739 220.861 77.9239 219.505 77.9239 217.705V210.451H78.8419V217.669C78.8419 219.241 79.2019 220.405 79.9219 221.161C80.6419 221.917 81.6619 222.295 82.9819 222.295C84.2899 222.295 85.3039 221.917 86.0239 221.161C86.7439 220.405 87.1039 219.241 87.1039 217.669V210.451H88.0219V217.705C88.0219 219.505 87.5719 220.861 86.6719 221.773C85.7719 222.685 84.5359 223.141 82.9639 223.141ZM92.3054 223.051V210.451H96.8234C97.8794 210.451 98.7854 210.619 99.5414 210.955C100.297 211.291 100.879 211.777 101.287 212.413C101.695 213.037 101.899 213.799 101.899 214.699C101.899 215.575 101.695 216.331 101.287 216.967C100.879 217.591 100.297 218.077 99.5414 218.425C98.7854 218.761 97.8794 218.929 96.8234 218.929H92.8094L93.2234 218.497V223.051H92.3054ZM101.053 223.051L97.7774 218.479H98.8214L102.097 223.051H101.053ZM93.2234 218.551L92.8094 218.119H96.8234C98.1794 218.119 99.2054 217.819 99.9014 217.219C100.609 216.619 100.963 215.779 100.963 214.699C100.963 213.607 100.609 212.767 99.9014 212.179C99.2054 211.579 98.1794 211.279 96.8234 211.279H92.8094L93.2234 210.829V218.551ZM106.07 216.247H112.892V217.057H106.07V216.247ZM106.178 222.223H113.954V223.051H105.26V210.451H113.684V211.279H106.178V222.223Z" fill="#32312D"/>
<path d="M21.872 343.65V328.411L22.8649 329.496H18.2238V327.487H24.1579V343.65H21.872ZM34.2971 343.835C33.0349 343.835 31.9035 343.512 30.9029 342.865C29.9177 342.219 29.1327 341.28 28.5477 340.048C27.9782 338.817 27.6934 337.324 27.6934 335.569C27.6934 333.814 27.9782 332.321 28.5477 331.089C29.1327 329.858 29.9177 328.919 30.9029 328.272C31.9035 327.626 33.0349 327.303 34.2971 327.303C35.544 327.303 36.6677 327.626 37.6683 328.272C38.6688 328.919 39.4539 329.858 40.0234 331.089C40.593 332.321 40.8778 333.814 40.8778 335.569C40.8778 337.324 40.593 338.817 40.0234 340.048C39.4539 341.28 38.6688 342.219 37.6683 342.865C36.6677 343.512 35.544 343.835 34.2971 343.835ZM34.2971 341.78C35.1438 341.78 35.8826 341.549 36.5138 341.087C37.1603 340.626 37.6606 339.933 38.0146 339.009C38.3841 338.086 38.5688 336.939 38.5688 335.569C38.5688 334.199 38.3841 333.052 38.0146 332.128C37.6606 331.205 37.1603 330.512 36.5138 330.05C35.8826 329.589 35.1438 329.358 34.2971 329.358C33.4505 329.358 32.7039 329.589 32.0574 330.05C31.4109 330.512 30.9029 331.205 30.5335 332.128C30.1794 333.052 30.0024 334.199 30.0024 335.569C30.0024 336.939 30.1794 338.086 30.5335 339.009C30.9029 339.933 31.4109 340.626 32.0574 341.087C32.7039 341.549 33.4505 341.78 34.2971 341.78ZM57.8846 343.65V341.064L57.7692 340.579V336.169C57.7692 335.23 57.4921 334.507 56.938 333.999C56.3992 333.475 55.5833 333.214 54.4904 333.214C53.7669 333.214 53.0588 333.337 52.3661 333.583C51.6734 333.814 51.0885 334.13 50.6113 334.53L49.6877 332.867C50.3188 332.359 51.0731 331.975 51.9505 331.713C52.8433 331.436 53.7746 331.297 54.7444 331.297C56.4223 331.297 57.7153 331.705 58.6235 332.521C59.5317 333.337 59.9858 334.584 59.9858 336.262V343.65H57.8846ZM53.867 343.789C52.9588 343.789 52.1583 343.635 51.4656 343.327C50.7883 343.019 50.2649 342.596 49.8955 342.057C49.5261 341.503 49.3413 340.88 49.3413 340.187C49.3413 339.525 49.4953 338.925 49.8031 338.386C50.1264 337.847 50.6421 337.416 51.3502 337.093C52.0737 336.77 53.0434 336.608 54.2595 336.608H58.1386V338.201H54.3519C53.2436 338.201 52.497 338.386 52.1121 338.755C51.7273 339.125 51.5349 339.571 51.5349 340.095C51.5349 340.695 51.7735 341.18 52.2507 341.549C52.7279 341.903 53.3898 342.08 54.2364 342.08C55.0677 342.08 55.7912 341.896 56.4069 341.526C57.038 341.157 57.4921 340.618 57.7692 339.91L58.2079 341.434C57.9154 342.157 57.3998 342.734 56.6609 343.166C55.922 343.581 54.9907 343.789 53.867 343.789ZM79.3966 331.297C80.3818 331.297 81.2515 331.49 82.0058 331.874C82.76 332.259 83.345 332.844 83.7606 333.629C84.1916 334.414 84.4071 335.407 84.4071 336.608V343.65H82.1905V336.862C82.1905 335.677 81.9134 334.784 81.3592 334.183C80.8051 333.583 80.0277 333.283 79.0271 333.283C78.2883 333.283 77.6417 333.437 77.0876 333.745C76.5334 334.053 76.1024 334.507 75.7945 335.107C75.5021 335.707 75.3558 336.454 75.3558 337.347V343.65H73.1392V336.862C73.1392 335.677 72.8621 334.784 72.308 334.183C71.7692 333.583 70.9918 333.283 69.9759 333.283C69.2524 333.283 68.6136 333.437 68.0594 333.745C67.5052 334.053 67.0742 334.507 66.7664 335.107C66.4585 335.707 66.3046 336.454 66.3046 337.347V343.65H64.0879V331.413H66.2122V334.668L65.8658 333.837C66.2507 333.037 66.8433 332.413 67.6438 331.967C68.4442 331.52 69.3755 331.297 70.4377 331.297C71.6076 331.297 72.6158 331.59 73.4625 332.175C74.3091 332.744 74.8633 333.614 75.1249 334.784L74.2244 334.414C74.5939 333.475 75.2404 332.721 76.164 332.152C77.0876 331.582 78.1651 331.297 79.3966 331.297ZM93.9016 338.27V336.354H100.113V338.27H93.9016ZM113.952 343.835C112.813 343.835 111.705 343.658 110.627 343.304C109.565 342.95 108.695 342.473 108.018 341.872L109.08 340.048C109.619 340.556 110.319 340.972 111.181 341.295C112.043 341.618 112.959 341.78 113.929 341.78C115.161 341.78 116.107 341.518 116.769 340.995C117.431 340.472 117.762 339.771 117.762 338.894C117.762 338.294 117.616 337.77 117.323 337.324C117.031 336.877 116.523 336.539 115.799 336.308C115.091 336.061 114.114 335.938 112.867 335.938H109.196L110.05 327.487H119.171V329.496H110.904L112.105 328.365L111.435 335.038L110.235 333.929H113.352C114.968 333.929 116.269 334.137 117.254 334.553C118.239 334.969 118.955 335.546 119.401 336.285C119.848 337.008 120.071 337.847 120.071 338.801C120.071 339.725 119.848 340.572 119.401 341.341C118.955 342.096 118.278 342.704 117.37 343.166C116.477 343.612 115.338 343.835 113.952 343.835ZM135.675 343.789C134.659 343.789 133.727 343.558 132.881 343.096C132.05 342.619 131.38 341.919 130.872 340.995C130.379 340.071 130.133 338.917 130.133 337.532C130.133 336.146 130.372 334.992 130.849 334.068C131.341 333.144 132.003 332.452 132.835 331.99C133.681 331.528 134.628 331.297 135.675 331.297C136.875 331.297 137.937 331.559 138.861 332.082C139.785 332.606 140.516 333.337 141.055 334.276C141.593 335.199 141.863 336.285 141.863 337.532C141.863 338.778 141.593 339.871 141.055 340.81C140.516 341.749 139.785 342.48 138.861 343.004C137.937 343.527 136.875 343.789 135.675 343.789ZM129.186 348.13V331.413H131.311V334.715L131.172 337.555L131.403 340.395V348.13H129.186ZM135.49 341.849C136.275 341.849 136.975 341.672 137.591 341.318C138.222 340.964 138.715 340.464 139.069 339.817C139.438 339.156 139.623 338.394 139.623 337.532C139.623 336.654 139.438 335.9 139.069 335.269C138.715 334.622 138.222 334.122 137.591 333.768C136.975 333.414 136.275 333.237 135.49 333.237C134.72 333.237 134.02 333.414 133.389 333.768C132.773 334.122 132.28 334.622 131.911 335.269C131.557 335.9 131.38 336.654 131.38 337.532C131.38 338.394 131.557 339.156 131.911 339.817C132.28 340.464 132.773 340.964 133.389 341.318C134.02 341.672 134.72 341.849 135.49 341.849ZM160.234 331.297C161.219 331.297 162.089 331.49 162.843 331.874C163.598 332.259 164.183 332.844 164.598 333.629C165.029 334.414 165.245 335.407 165.245 336.608V343.65H163.028V336.862C163.028 335.677 162.751 334.784 162.197 334.183C161.643 333.583 160.865 333.283 159.865 333.283C159.126 333.283 158.479 333.437 157.925 333.745C157.371 334.053 156.94 334.507 156.632 335.107C156.34 335.707 156.193 336.454 156.193 337.347V343.65H153.977V336.862C153.977 335.677 153.7 334.784 153.146 334.183C152.607 333.583 151.829 333.283 150.813 333.283C150.09 333.283 149.451 333.437 148.897 333.745C148.343 334.053 147.912 334.507 147.604 335.107C147.296 335.707 147.142 336.454 147.142 337.347V343.65H144.925V331.413H147.05V334.668L146.703 333.837C147.088 333.037 147.681 332.413 148.481 331.967C149.282 331.52 150.213 331.297 151.275 331.297C152.445 331.297 153.453 331.59 154.3 332.175C155.147 332.744 155.701 333.614 155.962 334.784L155.062 334.414C155.431 333.475 156.078 332.721 157.002 332.152C157.925 331.582 159.003 331.297 160.234 331.297Z" fill="#32312D"/>
<path d="M25.1348 277.185C23.9033 277.185 22.7258 277 21.602 276.631C20.4783 276.246 19.5932 275.753 18.9467 275.153L19.801 273.352C20.4168 273.891 21.2018 274.337 22.1562 274.691C23.1106 275.045 24.1035 275.222 25.1348 275.222C26.0738 275.222 26.8358 275.114 27.4207 274.899C28.0057 274.683 28.4367 274.391 28.7138 274.021C28.9908 273.637 29.1294 273.206 29.1294 272.728C29.1294 272.174 28.9447 271.728 28.5752 271.389C28.2212 271.05 27.7517 270.781 27.1667 270.581C26.5972 270.365 25.9661 270.181 25.2734 270.027C24.5807 269.873 23.8803 269.696 23.1722 269.496C22.4795 269.28 21.8406 269.011 21.2557 268.688C20.6861 268.364 20.2243 267.933 19.8703 267.395C19.5162 266.84 19.3392 266.132 19.3392 265.27C19.3392 264.439 19.5547 263.677 19.9857 262.984C20.4321 262.276 21.1095 261.714 22.0177 261.299C22.9413 260.868 24.1112 260.652 25.5273 260.652C26.4663 260.652 27.3976 260.775 28.3212 261.022C29.2448 261.268 30.0453 261.622 30.7226 262.084L29.9606 263.931C29.2679 263.469 28.5367 263.138 27.7671 262.938C26.9974 262.723 26.2508 262.615 25.5273 262.615C24.6191 262.615 23.8726 262.73 23.2876 262.961C22.7027 263.192 22.2717 263.5 21.9946 263.885C21.7329 264.27 21.602 264.701 21.602 265.178C21.602 265.747 21.7791 266.202 22.1331 266.54C22.5026 266.879 22.972 267.148 23.5416 267.348C24.1265 267.548 24.7654 267.733 25.4581 267.903C26.1508 268.056 26.8435 268.233 27.5362 268.434C28.2443 268.634 28.8831 268.895 29.4526 269.219C30.0376 269.542 30.5071 269.973 30.8611 270.512C31.2152 271.05 31.3922 271.743 31.3922 272.59C31.3922 273.406 31.169 274.168 30.7226 274.876C30.2762 275.568 29.5835 276.13 28.6445 276.561C27.7209 276.977 26.551 277.185 25.1348 277.185ZM41.9927 277.185C40.7612 277.185 39.6221 276.985 38.5754 276.584C37.544 276.169 36.6435 275.592 35.8738 274.853C35.1196 274.098 34.5269 273.221 34.0959 272.22C33.6649 271.22 33.4494 270.119 33.4494 268.918C33.4494 267.718 33.6649 266.617 34.0959 265.617C34.5269 264.616 35.1272 263.746 35.8969 263.007C36.6666 262.253 37.5671 261.676 38.5984 261.276C39.6452 260.86 40.7843 260.652 42.0158 260.652C43.2626 260.652 44.4094 260.868 45.4562 261.299C46.5183 261.714 47.4188 262.338 48.1577 263.169L46.6569 264.624C46.0411 263.977 45.3484 263.5 44.5788 263.192C43.8091 262.869 42.9855 262.707 42.1081 262.707C41.1999 262.707 40.3533 262.861 39.5682 263.169C38.7986 263.477 38.1289 263.908 37.5594 264.462C36.9898 265.016 36.5434 265.678 36.2202 266.448C35.9123 267.202 35.7584 268.026 35.7584 268.918C35.7584 269.811 35.9123 270.643 36.2202 271.412C36.5434 272.166 36.9898 272.821 37.5594 273.375C38.1289 273.929 38.7986 274.36 39.5682 274.668C40.3533 274.976 41.1999 275.13 42.1081 275.13C42.9855 275.13 43.8091 274.976 44.5788 274.668C45.3484 274.345 46.0411 273.852 46.6569 273.19L48.1577 274.645C47.4188 275.476 46.5183 276.107 45.4562 276.538C44.4094 276.969 43.2549 277.185 41.9927 277.185ZM63.0428 260.837H65.3518V277H63.0428V260.837ZM53.7606 277H51.4516V260.837H53.7606V277ZM63.2506 269.796H53.5297V267.787H63.2506V269.796ZM72.2909 267.81H80.6033V269.773H72.2909V267.81ZM72.4987 274.991H81.9194V277H70.1897V260.837H81.5962V262.846H72.4987V274.991ZM85.6582 277V260.837H92.4698C94.1938 260.837 95.7101 261.176 97.0185 261.853C98.3423 262.53 99.366 263.477 100.089 264.693C100.828 265.909 101.198 267.318 101.198 268.918C101.198 270.519 100.828 271.928 100.089 273.144C99.366 274.36 98.3423 275.307 97.0185 275.984C95.7101 276.661 94.1938 277 92.4698 277H85.6582ZM87.9672 274.991H92.3312C93.6704 274.991 94.8249 274.737 95.7947 274.229C96.7799 273.721 97.5419 273.013 98.0806 272.105C98.6194 271.181 98.8888 270.119 98.8888 268.918C98.8888 267.702 98.6194 266.64 98.0806 265.732C97.5419 264.824 96.7799 264.116 95.7947 263.608C94.8249 263.1 93.6704 262.846 92.3312 262.846H87.9672V274.991ZM111.431 277.185C109.306 277.185 107.636 276.577 106.42 275.361C105.204 274.145 104.596 272.367 104.596 270.027V260.837H106.905V269.934C106.905 271.735 107.298 273.052 108.083 273.883C108.883 274.714 110.007 275.13 111.454 275.13C112.916 275.13 114.04 274.714 114.825 273.883C115.625 273.052 116.026 271.735 116.026 269.934V260.837H118.265V270.027C118.265 272.367 117.657 274.145 116.441 275.361C115.24 276.577 113.57 277.185 111.431 277.185ZM122.999 277V260.837H125.308V274.991H134.059V277H122.999ZM138.81 267.81H147.122V269.773H138.81V267.81ZM139.018 274.991H148.438V277H136.709V260.837H148.115V262.846H139.018V274.991ZM152.227 267.81C151.796 267.81 151.427 267.664 151.119 267.371C150.811 267.064 150.657 266.679 150.657 266.217C150.657 265.755 150.811 265.378 151.119 265.086C151.427 264.793 151.796 264.647 152.227 264.647C152.643 264.647 152.997 264.793 153.289 265.086C153.597 265.378 153.751 265.755 153.751 266.217C153.751 266.679 153.597 267.064 153.289 267.371C152.997 267.664 152.643 267.81 152.227 267.81ZM152.227 277.139C151.796 277.139 151.427 276.992 151.119 276.7C150.811 276.392 150.657 276.007 150.657 275.545C150.657 275.084 150.811 274.706 151.119 274.414C151.427 274.121 151.796 273.975 152.227 273.975C152.643 273.975 152.997 274.121 153.289 274.414C153.597 274.706 153.751 275.084 153.751 275.545C153.751 276.007 153.597 276.392 153.289 276.7C152.997 276.992 152.643 277.139 152.227 277.139Z" fill="#32312D"/>
<path d="M20.4245 304.711V288.548H22.3178L29.5681 300.763H28.5521L35.71 288.548H37.6034L37.6265 304.711H35.4099L35.3868 292.035H35.9178L29.545 302.748H28.4829L22.0638 292.035H22.6411V304.711H20.4245ZM49.7736 304.896C48.5422 304.896 47.3954 304.688 46.3332 304.272C45.2865 303.857 44.3783 303.279 43.6086 302.54C42.8389 301.786 42.2386 300.909 41.8076 299.908C41.3766 298.908 41.1611 297.815 41.1611 296.629C41.1611 295.444 41.3766 294.351 41.8076 293.351C42.2386 292.35 42.8389 291.48 43.6086 290.741C44.3783 289.987 45.2865 289.402 46.3332 288.987C47.38 288.571 48.5268 288.363 49.7736 288.363C51.0051 288.363 52.1365 288.571 53.1679 288.987C54.2146 289.387 55.1228 289.964 55.8925 290.718C56.6776 291.457 57.2779 292.327 57.6935 293.328C58.1245 294.328 58.34 295.429 58.34 296.629C58.34 297.83 58.1245 298.931 57.6935 299.931C57.2779 300.932 56.6776 301.809 55.8925 302.564C55.1228 303.302 54.2146 303.88 53.1679 304.295C52.1365 304.696 51.0051 304.896 49.7736 304.896ZM49.7736 302.841C50.6665 302.841 51.49 302.687 52.2443 302.379C53.0139 302.071 53.6759 301.64 54.23 301.086C54.7996 300.516 55.2383 299.854 55.5461 299.1C55.8694 298.346 56.031 297.522 56.031 296.629C56.031 295.737 55.8694 294.913 55.5461 294.159C55.2383 293.405 54.7996 292.75 54.23 292.196C53.6759 291.627 53.0139 291.188 52.2443 290.88C51.49 290.572 50.6665 290.418 49.7736 290.418C48.8654 290.418 48.0265 290.572 47.2568 290.88C46.5026 291.188 45.8406 291.627 45.2711 292.196C44.7015 292.75 44.2551 293.405 43.9319 294.159C43.624 294.913 43.4701 295.737 43.4701 296.629C43.4701 297.522 43.624 298.346 43.9319 299.1C44.2551 299.854 44.7015 300.516 45.2711 301.086C45.8406 301.64 46.5026 302.071 47.2568 302.379C48.0265 302.687 48.8654 302.841 49.7736 302.841ZM68.0804 292.358C69.081 292.358 69.9584 292.55 70.7127 292.935C71.4823 293.32 72.0827 293.905 72.5137 294.69C72.9447 295.475 73.1602 296.468 73.1602 297.668V304.711H70.9436V297.922C70.9436 296.737 70.6511 295.844 70.0661 295.244C69.4966 294.644 68.6884 294.344 67.6417 294.344C66.8566 294.344 66.1716 294.497 65.5867 294.805C65.0017 295.113 64.5476 295.567 64.2244 296.168C63.9165 296.768 63.7626 297.515 63.7626 298.407V304.711H61.5459V292.473H63.6702V295.775L63.3239 294.898C63.7241 294.097 64.3398 293.474 65.1711 293.027C66.0023 292.581 66.9721 292.358 68.0804 292.358ZM82.3192 304.849C81.1339 304.849 80.0718 304.588 79.1328 304.064C78.2092 303.541 77.478 302.81 76.9392 301.871C76.4004 300.932 76.1311 299.839 76.1311 298.592C76.1311 297.345 76.4004 296.26 76.9392 295.336C77.478 294.397 78.2092 293.666 79.1328 293.143C80.0718 292.619 81.1339 292.358 82.3192 292.358C83.3505 292.358 84.2818 292.589 85.1131 293.05C85.9443 293.512 86.6062 294.205 87.0988 295.129C87.6068 296.052 87.8608 297.207 87.8608 298.592C87.8608 299.977 87.6145 301.132 87.1219 302.056C86.6447 302.979 85.9905 303.68 85.1592 304.157C84.328 304.619 83.3813 304.849 82.3192 304.849ZM82.5039 302.91C83.2736 302.91 83.9663 302.733 84.582 302.379C85.2131 302.025 85.7057 301.525 86.0598 300.878C86.4292 300.216 86.6139 299.454 86.6139 298.592C86.6139 297.715 86.4292 296.96 86.0598 296.329C85.7057 295.683 85.2131 295.182 84.582 294.828C83.9663 294.474 83.2736 294.297 82.5039 294.297C81.7188 294.297 81.0184 294.474 80.4027 294.828C79.787 295.182 79.2944 295.683 78.9249 296.329C78.5555 296.96 78.3708 297.715 78.3708 298.592C78.3708 299.454 78.5555 300.216 78.9249 300.878C79.2944 301.525 79.787 302.025 80.4027 302.379C81.0184 302.733 81.7188 302.91 82.5039 302.91ZM86.6832 304.711V301.409L86.8217 298.569L86.5908 295.729V287.578H88.8075V304.711H86.6832ZM100.598 304.711V302.125L100.483 301.64V297.23C100.483 296.291 100.206 295.567 99.6515 295.059C99.1127 294.536 98.2969 294.274 97.2039 294.274C96.4804 294.274 95.7724 294.397 95.0797 294.644C94.387 294.875 93.802 295.19 93.3248 295.59L92.4012 293.928C93.0323 293.42 93.7866 293.035 94.664 292.773C95.5568 292.496 96.4881 292.358 97.4579 292.358C99.1358 292.358 100.429 292.766 101.337 293.582C102.245 294.397 102.699 295.644 102.699 297.322V304.711H100.598ZM96.5805 304.849C95.6723 304.849 94.8718 304.696 94.1791 304.388C93.5018 304.08 92.9785 303.656 92.609 303.118C92.2396 302.564 92.0549 301.94 92.0549 301.247C92.0549 300.586 92.2088 299.985 92.5167 299.446C92.8399 298.908 93.3556 298.477 94.0637 298.153C94.7872 297.83 95.757 297.668 96.973 297.668H100.852V299.262H97.0654C95.9571 299.262 95.2105 299.446 94.8257 299.816C94.4408 300.185 94.2484 300.632 94.2484 301.155C94.2484 301.755 94.487 302.24 94.9642 302.61C95.4414 302.964 96.1033 303.141 96.9499 303.141C97.7812 303.141 98.5047 302.956 99.1204 302.587C99.7515 302.217 100.206 301.678 100.483 300.97L100.921 302.494C100.629 303.218 100.113 303.795 99.3744 304.226C98.6355 304.642 97.7042 304.849 96.5805 304.849ZM107.107 309.329C106.522 309.329 105.953 309.229 105.398 309.029C104.844 308.844 104.367 308.567 103.967 308.198L104.913 306.535C105.221 306.828 105.56 307.051 105.929 307.205C106.299 307.359 106.691 307.436 107.107 307.436C107.646 307.436 108.092 307.297 108.446 307.02C108.8 306.743 109.131 306.25 109.439 305.542L110.201 303.857L110.432 303.58L115.235 292.473H117.405L111.471 305.935C111.117 306.797 110.717 307.474 110.27 307.967C109.839 308.459 109.362 308.806 108.839 309.006C108.315 309.221 107.738 309.329 107.107 309.329ZM110.016 305.103L104.429 292.473H106.738L111.494 303.372L110.016 305.103ZM129.877 304.849C128.646 304.849 127.691 304.519 127.014 303.857C126.337 303.195 125.998 302.248 125.998 301.017V289.795H128.215V300.924C128.215 301.586 128.376 302.094 128.7 302.448C129.038 302.802 129.515 302.979 130.131 302.979C130.824 302.979 131.401 302.787 131.863 302.402L132.556 303.995C132.217 304.288 131.809 304.503 131.332 304.642C130.87 304.78 130.385 304.849 129.877 304.849ZM123.92 294.297V292.473H131.724V294.297H123.92ZM140.071 304.849C138.84 304.849 137.747 304.58 136.792 304.041C135.838 303.503 135.084 302.764 134.529 301.825C133.975 300.87 133.698 299.793 133.698 298.592C133.698 297.376 133.975 296.298 134.529 295.359C135.084 294.42 135.838 293.689 136.792 293.166C137.747 292.627 138.84 292.358 140.071 292.358C141.287 292.358 142.372 292.627 143.327 293.166C144.297 293.689 145.051 294.42 145.59 295.359C146.144 296.283 146.421 297.361 146.421 298.592C146.421 299.808 146.144 300.886 145.59 301.825C145.051 302.764 144.297 303.503 143.327 304.041C142.372 304.58 141.287 304.849 140.071 304.849ZM140.071 302.91C140.856 302.91 141.557 302.733 142.172 302.379C142.803 302.025 143.296 301.525 143.65 300.878C144.004 300.216 144.181 299.454 144.181 298.592C144.181 297.715 144.004 296.96 143.65 296.329C143.296 295.683 142.803 295.182 142.172 294.828C141.557 294.474 140.856 294.297 140.071 294.297C139.286 294.297 138.586 294.474 137.97 294.828C137.354 295.182 136.862 295.683 136.492 296.329C136.123 296.96 135.938 297.715 135.938 298.592C135.938 299.454 136.123 300.216 136.492 300.878C136.862 301.525 137.354 302.025 137.97 302.379C138.586 302.733 139.286 302.91 140.071 302.91ZM156.011 304.711V291.388C156.011 290.187 156.357 289.233 157.05 288.525C157.758 287.801 158.758 287.44 160.051 287.44C160.528 287.44 160.983 287.501 161.414 287.624C161.86 287.732 162.237 287.909 162.545 288.155L161.875 289.841C161.645 289.656 161.383 289.518 161.09 289.425C160.798 289.318 160.49 289.264 160.167 289.264C159.52 289.264 159.028 289.448 158.689 289.818C158.35 290.172 158.181 290.703 158.181 291.411V293.05L158.227 294.066V304.711H156.011ZM153.932 294.297V292.473H161.737V294.297H153.932ZM163.827 304.711V292.473H165.952V295.798L165.744 294.967C166.083 294.12 166.652 293.474 167.453 293.027C168.253 292.581 169.238 292.358 170.408 292.358V294.505C170.316 294.49 170.223 294.482 170.131 294.482C170.054 294.482 169.977 294.482 169.9 294.482C168.715 294.482 167.776 294.836 167.083 295.544C166.39 296.252 166.044 297.276 166.044 298.615V304.711H163.827ZM173.14 304.711V292.473H175.357V304.711H173.14ZM174.248 290.118C173.817 290.118 173.456 289.98 173.163 289.702C172.886 289.425 172.748 289.087 172.748 288.686C172.748 288.271 172.886 287.925 173.163 287.647C173.456 287.37 173.817 287.232 174.248 287.232C174.679 287.232 175.033 287.37 175.311 287.647C175.603 287.909 175.749 288.24 175.749 288.64C175.749 289.056 175.611 289.41 175.334 289.702C175.057 289.98 174.695 290.118 174.248 290.118ZM184.646 304.849C183.46 304.849 182.398 304.588 181.459 304.064C180.536 303.541 179.805 302.81 179.266 301.871C178.727 300.932 178.458 299.839 178.458 298.592C178.458 297.345 178.727 296.26 179.266 295.336C179.805 294.397 180.536 293.666 181.459 293.143C182.398 292.619 183.46 292.358 184.646 292.358C185.677 292.358 186.608 292.589 187.44 293.05C188.271 293.512 188.933 294.205 189.425 295.129C189.933 296.052 190.187 297.207 190.187 298.592C190.187 299.977 189.941 301.132 189.448 302.056C188.971 302.979 188.317 303.68 187.486 304.157C186.655 304.619 185.708 304.849 184.646 304.849ZM184.83 302.91C185.6 302.91 186.293 302.733 186.909 302.379C187.54 302.025 188.032 301.525 188.386 300.878C188.756 300.216 188.941 299.454 188.941 298.592C188.941 297.715 188.756 296.96 188.386 296.329C188.032 295.683 187.54 295.182 186.909 294.828C186.293 294.474 185.6 294.297 184.83 294.297C184.045 294.297 183.345 294.474 182.729 294.828C182.114 295.182 181.621 295.683 181.252 296.329C180.882 296.96 180.697 297.715 180.697 298.592C180.697 299.454 180.882 300.216 181.252 300.878C181.621 301.525 182.114 302.025 182.729 302.379C183.345 302.733 184.045 302.91 184.83 302.91ZM189.01 304.711V301.409L189.148 298.569L188.917 295.729V287.578H191.134V304.711H189.01ZM202.925 304.711V302.125L202.809 301.64V297.23C202.809 296.291 202.532 295.567 201.978 295.059C201.439 294.536 200.623 294.274 199.531 294.274C198.807 294.274 198.099 294.397 197.406 294.644C196.714 294.875 196.129 295.19 195.651 295.59L194.728 293.928C195.359 293.42 196.113 293.035 196.991 292.773C197.883 292.496 198.815 292.358 199.785 292.358C201.462 292.358 202.755 292.766 203.664 293.582C204.572 294.397 205.026 295.644 205.026 297.322V304.711H202.925ZM198.907 304.849C197.999 304.849 197.198 304.696 196.506 304.388C195.828 304.08 195.305 303.656 194.936 303.118C194.566 302.564 194.381 301.94 194.381 301.247C194.381 300.586 194.535 299.985 194.843 299.446C195.167 298.908 195.682 298.477 196.39 298.153C197.114 297.83 198.084 297.668 199.3 297.668H203.179V299.262H199.392C198.284 299.262 197.537 299.446 197.152 299.816C196.767 300.185 196.575 300.632 196.575 301.155C196.575 301.755 196.814 302.24 197.291 302.61C197.768 302.964 198.43 303.141 199.277 303.141C200.108 303.141 200.831 302.956 201.447 302.587C202.078 302.217 202.532 301.678 202.809 300.97L203.248 302.494C202.956 303.218 202.44 303.795 201.701 304.226C200.962 304.642 200.031 304.849 198.907 304.849ZM209.434 309.329C208.849 309.329 208.279 309.229 207.725 309.029C207.171 308.844 206.694 308.567 206.293 308.198L207.24 306.535C207.548 306.828 207.887 307.051 208.256 307.205C208.625 307.359 209.018 307.436 209.434 307.436C209.972 307.436 210.419 307.297 210.773 307.02C211.127 306.743 211.458 306.25 211.766 305.542L212.528 303.857L212.759 303.58L217.561 292.473H219.732L213.798 305.935C213.444 306.797 213.043 307.474 212.597 307.967C212.166 308.459 211.689 308.806 211.165 309.006C210.642 309.221 210.065 309.329 209.434 309.329ZM212.343 305.103L206.755 292.473H209.064L213.821 303.372L212.343 305.103Z" fill="#32312D"/>
</g>
<defs>
<clipPath id="clip0_764_2257">
<rect width="270" height="390" fill="white"/>
</clipPath>
</defs>
</svg>
