<svg width="270" height="390" viewBox="0 0 270 390" fill="none" xmlns="http://www.w3.org/2000/svg">
<g clip-path="url(#clip0_764_2387)">
<path d="M270 0H0V390H270V0Z" fill="#F7F2EC"/>
<path d="M27.6105 299.055C28.0065 299.682 28.2675 300.169 28.5915 300.61C28.9245 301.05 29.4285 301.321 30.0585 301.182C30.7695 301.027 30.8145 300.509 30.7785 299.991C30.7335 299.38 30.6615 298.777 30.5985 298.096C31.2375 297.926 31.8225 297.764 32.4075 297.617C32.9205 297.485 33.3435 297.207 33.2175 296.751C33.1365 296.457 32.7585 296.148 32.4165 296.008C31.8225 295.769 31.1565 295.66 30.3555 295.452C30.3285 294.686 30.3015 293.92 30.2655 293.147C30.2475 292.698 30.2925 292.227 30.1575 291.801C30.0765 291.546 29.7345 291.252 29.4375 291.167C28.9785 291.028 28.6005 291.283 28.4475 291.678C28.3035 292.026 28.2315 292.389 28.0965 292.745C27.9255 293.209 27.7275 293.665 27.4845 294.245C26.8815 294.029 26.3865 293.773 25.8555 293.696C25.4325 293.634 24.8925 293.673 24.5505 293.858C24.0825 294.121 24.2355 294.609 24.4695 294.972C24.7485 295.397 25.0905 295.8 25.4505 296.178C25.9545 296.712 26.1435 297.199 25.5945 297.826C25.2615 298.212 25.0365 298.7 24.9105 299.171C24.8385 299.434 24.9555 299.829 25.1715 300.037C25.4865 300.354 25.9455 300.293 26.3235 300.006C26.7105 299.72 27.1065 299.434 27.6285 299.055H27.6105Z" fill="#EBD2BE"/>
<path d="M137.989 358.858C138.07 358.301 138.097 357.713 138.259 357.156C138.421 356.607 138.934 356.406 139.582 356.515C140.221 356.623 140.347 357.033 140.32 357.504C140.275 358.378 140.203 359.244 140.149 360.118C140.113 360.652 139.924 361.093 139.204 361.131C138.565 361.17 138.295 360.776 138.178 360.327C138.061 359.863 138.043 359.368 137.98 358.858H137.989Z" fill="#EBD2BE"/>
<path d="M143.489 363.459C144.722 363.297 145.379 363.529 145.433 364.078C145.496 364.658 144.938 365.029 143.732 365.168C143.282 365.222 142.832 365.269 142.382 365.238C141.779 365.199 141.23 364.983 141.23 364.379C141.23 363.815 141.68 363.513 142.31 363.459C142.697 363.428 143.093 363.459 143.489 363.459Z" fill="#EBD2BE"/>
<path d="M133.759 363.514C134.353 363.545 134.821 363.514 135.253 363.614C135.541 363.676 135.982 363.908 136 364.086C136.027 364.372 135.82 364.89 135.604 364.937C134.587 365.145 133.534 365.285 132.49 365.308C132.247 365.308 131.779 364.751 131.797 364.465C131.815 364.171 132.229 363.792 132.58 363.637C132.958 363.475 133.462 363.537 133.759 363.514Z" fill="#EBD2BE"/>
<path d="M140.744 369.422C140.681 369.801 140.699 370.218 140.519 370.551C140.375 370.814 139.997 371.131 139.709 371.146C139.412 371.162 138.863 370.853 138.836 370.652C138.737 369.909 138.737 369.136 138.872 368.393C138.908 368.2 139.601 367.929 139.934 367.984C140.267 368.038 140.582 368.417 140.78 368.71C140.888 368.881 140.744 369.174 140.708 369.414C140.717 369.414 140.726 369.414 140.744 369.414V369.422Z" fill="#EBD2BE"/>
<path d="M119.88 306.829C119.124 306.032 118.602 305.375 117.963 304.818C116.766 303.79 115.299 304.138 114.894 305.553C114.696 306.249 114.588 307.015 114.705 307.718C114.921 309.033 114.255 309.799 112.968 310.309C112.815 310.371 112.68 310.464 112.527 310.525C111.492 310.959 110.925 311.716 111.177 312.644C111.438 313.58 112.473 313.65 113.454 313.626C113.688 313.626 113.931 313.719 114.336 313.797C114.381 314.268 114.48 314.748 114.48 315.227C114.48 316.14 114.552 317.021 115.74 317.377C117.153 317.802 117.855 316.882 118.278 316.055C119.313 314.036 120.708 312.799 123.516 313.333C124.011 313.425 124.704 313.163 125.163 312.892C125.919 312.451 125.892 311.399 125.181 310.796C124.884 310.549 124.479 310.386 124.146 310.17C123.885 309.992 123.651 309.791 123.264 309.489C123.624 308.847 124.119 308.236 124.281 307.564C124.416 306.991 124.398 306.21 124.038 305.769C123.489 305.097 122.544 305.205 121.752 305.653C121.194 305.963 120.672 306.326 119.871 306.821L119.88 306.829Z" fill="#EBD2BE"/>
<path d="M-2 -17C-2 -17 9.19481 32.7843 69.9398 42.4072C104.931 47.954 141.778 26.8386 175.899 22.7627C208.686 18.8487 226.493 33.4076 233.671 59.6584C241.589 88.5892 237.891 115.625 276 129" stroke="#DBBAA9" stroke-width="2" stroke-linecap="round" stroke-linejoin="round"/>
<path d="M-230 240.756H179.81" stroke="#32312D" stroke-miterlimit="10"/>
<path d="M-61.7057 314.856C-62.1061 314.684 -62.0171 314.379 -61.9059 314.073C-61.4166 312.488 -60.8606 310.922 -60.4157 309.337C-59.4371 305.861 -58.8144 302.366 -58.4363 298.871C-57.8135 293.046 -57.213 287.222 -56.1454 281.397C-54.6553 273.223 -50.9187 265.564 -45.3807 258.364C-42.8229 255.041 -39.6424 252.1 -36.3062 249.274C-32.5252 246.104 -28.6108 243.029 -24.763 239.916C-20.7819 236.688 -17.1788 233.212 -14.1317 229.393C-11.2626 225.783 -9.46108 221.925 -8.83833 217.781C-8.68264 216.654 -8.88281 215.642 -9.50557 214.668C-13.0642 209.244 -16.5116 203.744 -19.1583 197.9C-20.9598 193.928 -22.5834 189.898 -23.8512 185.754C-24.3849 183.978 -24.7186 182.125 -25.1411 180.311C-25.2968 179.642 -25.4303 178.955 -25.6305 178C-25.1189 178.21 -24.8298 178.267 -24.7186 178.42C-24.2737 178.936 -23.7844 179.451 -23.5398 180.043C-22.6946 181.972 -21.8272 183.92 -21.1377 185.907C-18.4465 193.737 -15.0881 201.28 -10.5064 208.347C-9.70573 209.588 -8.94954 210.829 -8.19333 212.09C-7.81523 212.739 -7.2592 213.236 -6.503 213.58C-1.85458 215.719 3.17194 216.654 8.82121 215.547C11.0898 215.107 13.3362 214.458 15.5603 213.828C17.9401 213.14 20.3422 212.567 22.7887 212.224C26.3695 211.746 29.9059 211.651 33.331 212.224C35.7998 212.644 38.2686 213.102 40.6484 213.713C49.7896 216.005 59.1976 217.495 69.0282 217.628C69.473 217.628 69.8956 217.686 70.7186 217.724C70.118 217.972 69.8512 218.125 69.562 218.201C63.8015 219.825 58.0188 221.429 52.2583 223.09C48.2994 224.236 44.3627 225.497 40.3148 226.337C28.26 228.858 16.8503 228.132 6.01882 224.695C3.81694 223.988 1.88195 222.938 -0.0308006 221.868C-0.542349 221.582 -1.0539 221.333 -1.87682 220.932C-1.432 222.136 -0.809244 222.899 -0.20873 223.663C3.08297 227.846 6.35244 232.047 9.73311 236.192C14.2481 241.73 18.4072 247.459 22.0992 253.437C22.8332 254.621 23.834 255.481 25.302 256.034C29.4166 257.581 33.42 259.319 37.7348 260.542C46.1642 262.948 54.8606 262.986 63.9795 260.828C71.9641 258.937 79.7263 256.455 87.355 253.571C90.0907 252.54 92.8263 251.566 95.5843 250.592C100.944 248.701 106.438 247.67 112.043 247.459C114.334 247.364 116.624 247.345 118.893 247.402C126.589 247.65 134.284 247.937 141.957 248.242C145.56 248.376 149.052 248.854 152.477 249.579C155.902 250.305 159.15 251.317 162.108 252.807C162.575 253.036 163.02 253.303 163.82 253.743C163.042 253.781 162.708 253.838 162.397 253.819C155.257 253.284 148.118 254.067 140.956 255.595C137.198 256.397 133.639 257.772 130.103 259.205C124.898 261.306 119.805 263.597 114.778 266.004C109.329 268.601 103.68 270.778 97.8529 272.535C85.7314 276.202 73.8991 276.45 62.2891 273.891C56.2395 272.554 50.5458 270.606 45.3636 267.875C41.2267 265.698 37.0898 263.502 32.8862 261.382C30.7288 260.293 28.438 259.396 26.1916 258.422C26.0359 258.364 25.8135 258.422 25.6356 258.422C25.5689 258.536 25.5021 258.613 25.5244 258.632C26.0582 259.587 26.592 260.542 27.1702 261.477C30.0393 266.156 32.9085 270.855 35.7998 275.534C36.5783 276.775 37.4234 277.978 38.1574 279.258C39.1805 281.034 40.8931 282.332 42.4944 283.688C44.7853 285.636 47.1429 287.527 49.4782 289.418C50.1232 289.933 50.8349 290.411 51.5466 290.888C56.7733 294.441 62.9341 296.064 70.0958 295.854C79.5706 295.586 89.0453 294.842 98.5201 293.772C108.751 292.626 118.96 291.519 129.191 290.411C133.928 289.895 138.666 289.571 143.403 289.456C148.83 289.341 154.101 289.8 159.15 291.003C162.441 291.786 165.689 292.684 168.914 293.619C173.606 294.994 178.255 296.446 182.926 297.878C189.865 300.017 197.027 301.698 204.388 302.939C205.567 303.13 206.746 303.302 207.925 303.646C207.369 304.161 206.857 303.951 206.368 303.97C191.933 304.639 177.632 306.835 163.465 310.426C160.128 311.266 156.814 312.24 153.545 313.309C148.363 315.009 143.114 315.869 137.731 316.174C129.524 316.652 121.784 315.678 114.445 313.367C110.063 311.973 105.86 310.311 101.656 308.63C98.787 307.485 95.8956 306.396 92.9598 305.384C89.6903 304.238 86.154 303.608 82.5731 303.149C78.7699 302.672 75.0778 301.927 71.5192 300.858C69.5843 300.285 67.5826 299.807 65.6031 299.291C59.1309 297.63 53.3037 295.071 48.2549 291.519C47.2985 290.85 46.4089 290.144 45.3858 289.513C45.6305 290.43 46.1865 291.213 46.7425 291.958C49.5227 295.739 52.2583 299.521 55.1497 303.226C58.2857 307.236 61.9778 310.846 65.87 314.36C69.4508 317.606 73.1429 320.758 77.2575 323.546C81.1719 326.201 79.5483 325.494 84.5304 326.506C87.7554 327.175 91.1138 327.366 94.5389 327.079C100.255 326.621 105.949 326.372 111.642 325.704C125.743 324.062 144.137 326.964 154.724 331.319C158.638 332.923 162.597 334.489 166.512 336.093C173.985 339.149 181.702 341.804 189.754 343.924C198.583 346.253 207.435 348.603 216.376 350.684C227.074 353.167 236.972 356.815 246.135 361.666C246.78 362.009 247.336 362.43 247.937 362.831V362.773C247.47 362.697 246.958 362.697 246.513 362.563C238.818 360.348 230.722 359.508 222.315 359.698C217.066 359.813 211.839 360.004 206.59 360.042C195.781 360.138 185.305 359.049 175.163 356.7C165.8 354.542 157.081 351.391 148.83 347.457C147.74 346.941 146.628 346.425 145.538 345.891C140.845 343.58 135.663 342.147 130.169 341.269C127.478 340.83 124.765 340.467 122.051 340.104C113.867 339.015 106.127 337.01 98.7203 334.298C96.5184 333.496 94.3387 332.675 92.1146 331.892C91.7365 331.758 91.3139 331.605 90.9581 332.045C90.9136 331.892 90.8914 331.777 90.9581 332.045C90.8914 331.911 90.8246 331.796 90.9581 332.045C93.9829 333.725 96.9855 335.425 100.032 337.067C110.664 342.778 120.183 349.538 129.28 356.757C137.976 363.652 147.473 369.744 158.038 374.71C166.4 378.625 175.408 381.489 184.727 383.838C194.513 386.302 204.589 388.059 214.953 389.09C221.67 389.759 228.364 390.446 235.081 391.134C240.797 391.707 246.402 392.547 251.94 393.578C258.234 394.743 263.995 396.825 269.444 399.441C269.6 399.518 269.711 399.671 270 399.957C269.355 399.919 268.955 399.9 268.554 399.843C261.748 398.83 254.765 398.83 247.692 399.575C241.531 400.224 235.415 401.198 229.299 402.306C225.918 402.917 222.515 403.509 219.112 403.929C209.548 405.094 200.207 404.617 190.91 403.834C183.615 403.223 176.676 401.733 170.092 399.518C163.42 397.283 157.259 394.361 152.166 390.217C150.676 389.014 149.341 387.658 148.029 386.302C143.381 381.432 140.356 375.779 138.065 369.763C137.553 368.407 136.997 367.07 136.508 365.714C136.308 365.18 136.041 364.74 135.53 364.397C130.481 360.997 125.921 357.158 121.139 353.53C114.022 348.144 106.438 343.217 98.3199 338.824C95.3174 337.201 92.4038 335.501 89.4457 333.84C89.1121 333.649 88.7562 333.515 88.2669 333.286C87.911 334.298 88.1334 335.119 88.2669 335.921C89.0231 339.97 90.402 343.809 92.337 347.476C93.4269 349.538 94.828 351.41 96.6073 353.052C98.6758 354.943 100.811 356.757 103.013 358.534C106.527 361.36 110.575 363.671 114.534 366.058C120.205 369.458 125.81 372.914 131.015 376.791C135.285 379.961 139.177 383.418 142.38 387.41C149.43 396.233 153.256 406.24 154.79 417.069C155.591 422.875 156.236 428.7 156.948 434.505C157.726 440.999 159.016 447.358 160.862 453.603C160.996 454.043 161.129 454.501 161.263 454.998C160.573 455.036 160.506 454.616 160.351 454.348C158.171 450.815 155.925 447.32 153.901 443.711C149.786 436.415 144.626 429.731 138.532 423.581C134.173 419.189 129.257 415.255 124.342 411.32C120.116 407.94 115.868 404.598 112.021 400.931C106.46 395.622 101.434 389.988 97.7861 383.533C94.7836 378.224 92.5372 372.628 91.047 366.784C89.3122 360.004 88.4226 353.052 88.3336 345.986C88.3336 345.394 88.1779 344.802 88 344.229C87.5997 342.911 87.1326 341.594 86.71 340.276C85.9316 337.85 85.42 335.387 85.5312 332.789C85.5757 331.834 85.1531 331.242 84.2635 330.727C81.1052 328.893 78.0137 327.022 75.0556 324.978C71.4525 322.496 68.1831 319.726 64.9803 316.9C61.1548 313.519 57.5518 309.986 54.349 306.167C50.7459 301.87 47.432 297.42 44.3182 292.855C41.6493 288.959 38.9803 285.044 36.3781 281.129C34.9102 278.933 33.5535 276.699 32.1523 274.483C31.9299 274.139 31.6852 273.796 31.2181 273.528C31.3293 273.929 31.3738 274.349 31.5295 274.712C32.7083 277.501 33.3533 280.442 33.7981 283.44C34.3097 286.782 34.7767 290.124 35.1326 293.486C35.6664 298.623 35.444 303.818 34.5321 309.051C33.6202 314.264 32.5748 319.478 31.5073 324.673C30.8178 328.034 30.1506 331.414 29.7502 334.795C28.8828 341.88 29.7947 348.66 32.1745 355.191C34.8435 362.43 37.7571 369.591 41.6938 376.333C43.562 379.541 45.586 382.692 47.7434 385.748C50.6125 389.816 53.6595 393.788 56.6399 397.799C60.9769 403.662 64.7579 409.773 67.9162 416.21C71.2523 423.008 74.6775 429.769 77.5911 436.74C78.4585 438.802 79.2147 440.903 79.9932 442.985C80.1266 443.367 80.2156 443.749 80.4157 444.475C79.5261 443.959 79.3037 443.405 78.9701 442.947C77.5466 440.999 76.2121 439.032 74.7442 437.122C69.1839 429.941 62.3559 423.696 54.7049 418.062C51.213 415.484 47.4987 413.135 43.7844 410.767C36.2002 405.916 28.8606 400.836 22.1437 395.183C18.4072 392.051 15.0488 388.651 12.0907 384.965C8.71001 380.764 6.41916 376.104 4.81779 371.157C3.21642 366.306 1.68178 361.417 0.414026 356.452C-2.5663 344.898 -2.03251 333.038 1.4816 321.006C2.61591 317.091 4.32848 313.29 6.55261 309.623C8.93242 305.689 11.4457 301.793 13.9367 297.878C14.8263 296.465 15.7827 295.071 16.6946 293.658C18.5184 290.831 20.3199 288.005 22.1882 285.197C25.4132 280.365 27.3259 275.285 28.5269 270.052C28.7049 269.231 28.6604 268.486 28.1933 267.78C27.5261 266.748 26.9701 265.679 26.3473 264.629C24.6347 261.745 22.8999 258.88 21.1429 256.015C20.4979 254.965 19.8306 253.953 19.1189 252.941C16.8503 249.732 14.5594 246.524 12.2908 243.315C12.1129 243.067 11.8905 242.838 11.5791 242.456C11.4457 242.819 11.3122 243.029 11.3122 243.239C11.3122 243.85 11.4234 244.442 11.4679 245.053C12.3353 257.982 8.55432 270.473 1.41488 282.657C-1.1651 287.05 -4.76818 290.946 -8.6604 294.67C-13.0864 298.929 -17.4234 303.245 -21.3824 307.809C-26.6091 313.825 -30.8127 320.185 -33.8152 327.022C-36.3285 332.789 -37.6852 338.633 -37.7964 344.554C-37.8187 345.719 -37.8854 346.884 -37.9521 348.03C-37.9521 348.354 -38.13 348.622 -38.5971 348.698V348.736C-38.6416 348.316 -38.5971 347.896 -38.6638 347.495C-39.3311 344.191 -40.0205 340.887 -40.71 337.583C-41.6441 333.095 -42.556 328.626 -43.4902 324.138C-45.6031 313.901 -42.8007 303.97 -36.6621 294.288C-33.9042 289.953 -30.2789 286.076 -26.5201 282.294C-22.3165 278.074 -17.4457 274.464 -12.0855 271.313C-8.72712 269.327 -5.50214 267.169 -2.49957 264.8C4.08383 259.625 7.53122 253.437 8.30966 246.371C8.55432 244.041 8.5988 241.73 8.30966 239.438C8.19846 238.522 7.8426 237.719 7.26433 236.975C3.50556 232.2 -0.186489 227.407 -3.92302 222.632C-4.16767 222.307 -4.4568 222.021 -4.74594 221.696C-5.36869 222.174 -5.12404 222.613 -5.1018 222.995C-5.05732 225.497 -5.27973 227.999 -5.63559 230.52C-6.2361 234.759 -7.90419 238.789 -10.6399 242.609C-12.6861 245.492 -14.9991 248.223 -17.4234 250.935C-18.2019 251.814 -18.9803 252.711 -19.781 253.571C-24.0513 258.173 -27.2541 263.196 -29.7228 268.486C-30.5235 270.205 -31.3242 271.924 -31.9914 273.662C-34.5492 280.27 -38.4636 286.419 -43.3345 292.225C-44.9358 294.135 -46.515 296.045 -48.2276 297.878C-52.5646 302.538 -56.3456 307.485 -59.9932 312.469C-60.5492 313.233 -61.1275 313.997 -61.6835 314.761H-61.6168L-61.7057 314.856Z" fill="#B6B3A0"/>
<path d="M49.2123 59.1951C49.2123 65.1911 47.5241 69.3679 44.1477 71.7255C41.0333 73.9085 36.7547 75 31.3117 75H18.9559V74.1705H21.8375V45.2675H18.9559V44.438H32.4469C38.0353 44.438 42.2267 45.5877 45.0209 47.8871C47.8152 50.1575 49.2123 53.9268 49.2123 59.1951ZM30.3512 74.1705H32.0103C34.95 74.1705 37.0457 73.1372 38.2973 71.0706C39.578 68.9749 40.2183 65.4821 40.2183 60.5922V58.0599C40.2183 51.5109 38.9668 47.567 36.4636 46.2281C35.2702 45.5877 33.582 45.2675 31.399 45.2675H30.3512V74.1705ZM62.9164 75.4366C59.1617 75.4366 56.3383 74.4761 54.4464 72.555C52.5836 70.6049 51.6521 67.9125 51.6521 64.4779C51.6521 61.0142 52.7 58.3655 54.7957 56.5318C56.9205 54.6981 59.6128 53.7812 62.8728 53.7812C69.48 53.7812 72.6526 57.0994 72.3906 63.7357H60.0785V65.4385C60.0785 68.2909 60.4424 70.4448 61.17 71.9001C61.8977 73.3555 63.1638 74.0831 64.9684 74.0831C68.3448 74.0831 70.5569 72.2785 71.6048 68.6693L72.3906 68.8003C71.8376 70.896 70.8334 72.5259 69.3781 73.6902C67.9519 74.8545 65.798 75.4366 62.9164 75.4366ZM60.1222 62.8625H64.6192V60.7232C64.6192 58.3655 64.4736 56.7647 64.1826 55.9206C63.9206 55.0474 63.3676 54.6108 62.5235 54.6108C61.7085 54.6108 61.0973 55.0765 60.6898 56.0079C60.3114 56.9102 60.1222 58.482 60.1222 60.7232V62.8625ZM89.4017 41.993C86.1126 41.993 84.4681 43.7394 84.4681 47.2322V54.2178H98.8322V74.2141H101.277V75H88.7468V74.2141H90.7115V55.0037H84.4681V74.2141H87.2623V75H73.946V74.2141H76.3473V55.0037H73.8151V54.2178H76.3473V54.1305C76.3473 50.0556 77.4825 46.8975 79.7528 44.6563C82.0231 42.386 85.385 41.2508 89.8383 41.2508C92.2832 41.2508 94.2043 41.7747 95.6014 42.8226C97.0276 43.8413 97.7407 45.0347 97.7407 46.4027C97.7407 47.7707 97.3915 48.7749 96.6929 49.4152C95.9943 50.0556 95.092 50.3758 93.986 50.3758C92.8799 50.3758 92.0067 50.0992 91.3664 49.5462C90.726 48.9641 90.4059 48.3092 90.4059 47.5815C90.4059 46.8247 90.4932 46.0971 90.6678 45.3985L92.4579 44.9183C92.8363 43.9286 92.7053 43.201 92.0649 42.7353C91.4246 42.2404 90.5368 41.993 89.4017 41.993ZM102.259 54.2178H112.781V58.2346C113.247 56.8957 113.96 55.8187 114.92 55.0037C115.881 54.1887 117.336 53.7812 119.286 53.7812C123.798 53.7812 126.054 56.2116 126.054 61.0725V74.2141H128.499V75H116.143V74.2141H117.933V60.0246C117.933 58.2782 117.816 57.1576 117.584 56.6628C117.351 56.1389 116.929 55.8769 116.317 55.8769C115.386 55.8769 114.556 56.4882 113.829 57.7106C113.13 58.9331 112.781 60.4176 112.781 62.164V74.2141H114.658V75H102.259V74.2141H104.66V55.0037H102.259V54.2178ZM140.558 75.4366C136.803 75.4366 133.98 74.4761 132.088 72.555C130.225 70.6049 129.294 67.9125 129.294 64.4779C129.294 61.0142 130.341 58.3655 132.437 56.5318C134.562 54.6981 137.254 53.7812 140.514 53.7812C147.121 53.7812 150.294 57.0994 150.032 63.7357H137.72V65.4385C137.72 68.2909 138.084 70.4448 138.811 71.9001C139.539 73.3555 140.805 74.0831 142.61 74.0831C145.986 74.0831 148.198 72.2785 149.246 68.6693L150.032 68.8003C149.479 70.896 148.475 72.5259 147.02 73.6902C145.593 74.8545 143.439 75.4366 140.558 75.4366ZM137.764 62.8625H142.261V60.7232C142.261 58.3655 142.115 56.7647 141.824 55.9206C141.562 55.0474 141.009 54.6108 140.165 54.6108C139.35 54.6108 138.739 55.0765 138.331 56.0079C137.953 56.9102 137.764 58.482 137.764 60.7232V62.8625ZM159.214 55.0037V54.2178H171.876V55.0037H169.518L174.277 69.4988L179.342 55.0037H176.416V54.2178H182.572V55.0037H180.389L172.225 78.5365C171.265 81.2725 170.188 83.179 168.994 84.2559C167.801 85.362 166.345 85.915 164.628 85.915C162.911 85.915 161.557 85.5221 160.568 84.7362C159.578 83.9503 159.083 82.9461 159.083 81.7236C159.083 80.5012 159.404 79.5697 160.044 78.9294C160.684 78.2891 161.528 77.9689 162.576 77.9689C164.992 77.9689 166.2 78.9731 166.2 80.9814C166.2 81.418 166.113 81.9419 165.938 82.5532H164.41C164.177 83.2226 164.148 83.7757 164.323 84.2123C164.497 84.6489 164.89 84.8672 165.501 84.8672C166.695 84.8672 167.757 84.2705 168.689 83.0771C169.62 81.9128 170.508 80.1228 171.352 77.7069L172.312 75H168.47L161.004 55.0037H159.214ZM195.663 66.399V62.6879C195.663 59.8645 195.503 57.8125 195.183 56.5318C194.892 55.222 194.193 54.5671 193.087 54.5671C192.447 54.5671 191.923 54.7563 191.516 55.1347C191.137 55.484 190.861 56.0807 190.686 56.9248C190.424 58.2346 190.293 60.2284 190.293 62.9062V66.3117C190.293 69.4843 190.38 71.3908 190.555 72.0311C190.759 72.6715 190.963 73.1954 191.166 73.6029C191.486 74.3014 192.112 74.6507 193.044 74.6507C194.179 74.6507 194.921 73.9958 195.27 72.686C195.532 71.7546 195.663 69.6589 195.663 66.399ZM192.956 75.4366C189.318 75.4366 186.567 74.5052 184.705 72.6424C182.842 70.7795 181.91 68.1163 181.91 64.6526C181.91 61.1598 182.9 58.482 184.879 56.6191C186.888 54.7272 189.696 53.7812 193.306 53.7812C196.915 53.7812 199.607 54.6544 201.383 56.4008C203.158 58.1181 204.046 60.7523 204.046 64.3033C204.046 71.7255 200.349 75.4366 192.956 75.4366ZM230.808 75H220.854L220.373 71.8128C219.908 72.9771 219.209 73.8794 218.278 74.5197C217.375 75.131 216.022 75.4366 214.217 75.4366C209.706 75.4366 207.45 73.0062 207.45 68.1454V55.0037H205.005V54.2178H215.571V69.1932C215.571 70.9396 215.687 72.0893 215.92 72.6424C216.182 73.1954 216.677 73.4719 217.405 73.4719C218.161 73.4719 218.831 73.0207 219.413 72.1184C219.995 71.2161 220.286 69.9645 220.286 68.3637V55.0037H218.278V54.2178H228.407V74.2141H230.808V75ZM246.284 55.4403C245.207 55.4403 244.261 56.1389 243.446 57.536C242.631 58.9331 242.224 60.5922 242.224 62.5132V74.2141H245.324V75H231.702V74.2141H234.103V55.0037H231.702V54.2178H242.224V58.4092C242.602 56.9248 243.33 55.7896 244.407 55.0037C245.484 54.1887 246.706 53.7812 248.074 53.7812C249.442 53.7812 250.548 54.1742 251.393 54.9601C252.266 55.7168 252.702 56.8083 252.702 58.2346C252.702 59.6317 252.382 60.7086 251.742 61.4654C251.101 62.2222 250.112 62.6006 248.773 62.6006C247.463 62.6006 246.488 62.164 245.848 61.2908C245.236 60.4176 245.164 59.2096 245.629 57.667H247.201C247.929 56.1825 247.623 55.4403 246.284 55.4403Z" fill="#32312D"/>
<path d="M68.0976 104.761C68.0976 114.389 65.3867 121.096 59.9648 124.882C54.9637 128.388 48.0929 130.141 39.3525 130.141H19.5114V128.809H24.1386V82.3957H19.5114V81.0636H41.1754C50.1494 81.0636 56.88 82.9099 61.367 86.6023C65.8541 90.248 68.0976 96.3009 68.0976 104.761ZM37.8101 128.809H40.4743C45.195 128.809 48.5603 127.149 50.5701 123.831C52.6267 120.465 53.6549 114.857 53.6549 107.004V102.938C53.6549 92.4214 51.6451 86.0882 47.6255 83.9381C45.7091 82.9099 42.9982 82.3957 39.4927 82.3957H37.8101V128.809ZM88.1491 113.665H90.1823V108.266C90.1823 103.826 89.9252 100.858 89.411 99.3623C88.9436 97.8199 88.0088 97.0487 86.6066 97.0487C85.7653 97.0487 84.9941 97.2824 84.293 97.7498C83.6387 98.1705 83.3115 98.7781 83.3115 99.5727C83.3115 100.321 83.4517 101.092 83.7321 101.886H85.4849C85.8588 102.868 86.0458 104.06 86.0458 105.462C86.0458 106.817 85.4615 108.009 84.293 109.038C83.1245 110.019 81.6522 110.51 79.8761 110.51C75.8564 110.51 73.8466 108.57 73.8466 104.691C73.8466 98.9417 78.731 96.0672 88.4996 96.0672C94.0617 96.0672 97.8944 97.0253 99.9977 98.9417C102.148 100.811 103.223 104.27 103.223 109.318V123.55C103.223 125.981 103.9 127.196 105.256 127.196C106.845 127.196 107.78 124.789 108.06 119.975L109.112 120.045C108.925 124.158 108.154 126.986 106.798 128.528C105.443 130.071 103.223 130.842 100.138 130.842C94.5291 130.842 91.304 129.112 90.4627 125.654C89.8551 127.43 88.9436 128.738 87.7284 129.58C86.5132 130.421 84.737 130.842 82.4 130.842C75.4825 130.842 72.0238 128.014 72.0238 122.358C72.0238 119.04 73.3325 116.773 75.9499 115.558C78.6141 114.296 82.6805 113.665 88.1491 113.665ZM85.3447 122.288C85.3447 124.719 85.4615 126.285 85.6952 126.986C85.9757 127.687 86.4664 128.037 87.1675 128.037C87.9154 128.037 88.5931 127.453 89.2007 126.285C89.8551 125.069 90.1823 123.41 90.1823 121.307V114.787H89.6915C86.7936 114.787 85.3447 116.913 85.3447 121.167V122.288ZM105.274 98.0302V96.7683H125.606V98.0302H121.82L129.462 121.307L137.595 98.0302H132.897V96.7683H142.783V98.0302H139.277L126.167 135.82C124.624 140.213 122.895 143.275 120.979 145.004C119.062 146.78 116.725 147.668 113.968 147.668C111.21 147.668 109.037 147.037 107.447 145.775C105.858 144.513 105.064 142.901 105.064 140.938C105.064 138.974 105.578 137.479 106.606 136.451C107.634 135.422 108.99 134.908 110.672 134.908C114.552 134.908 116.492 136.521 116.492 139.746C116.492 140.447 116.351 141.288 116.071 142.27H113.617C113.243 143.345 113.196 144.233 113.477 144.934C113.757 145.635 114.388 145.985 115.37 145.985C117.286 145.985 118.992 145.027 120.488 143.111C121.984 141.241 123.409 138.367 124.765 134.487L126.307 130.141H120.137L108.148 98.0302H105.274Z" fill="#32312D"/>
<path d="M33.4074 154.885V154.099H44.6717V154.885H42.8816L46.811 169.598L50.6967 154.885H47.6842V154.099H53.5783V154.885H51.7446L46.5054 174.881H40.524L36.7255 161.477L32.6215 174.881H26.7711L20.3094 154.885H18.3447V154.099H31.5737V154.885H28.9541L32.9708 169.729L36.1143 159.513L35.0228 154.885H33.4074ZM61.3054 151.086C59.7628 151.086 58.6567 150.693 57.9873 149.907C57.3469 149.121 57.0268 148.146 57.0268 146.982C57.0268 145.818 57.376 144.857 58.0746 144.101C58.8023 143.344 59.8938 142.965 61.3491 142.965C62.8044 142.965 63.9105 143.315 64.6673 144.013C65.424 144.683 65.8024 145.658 65.8024 146.938C65.8024 148.19 65.4386 149.194 64.7109 149.951C63.9833 150.708 62.8481 151.086 61.3054 151.086ZM54.7128 154.099H65.4095V174.095H67.8544V174.881H54.8874V174.095H57.2887V154.885H54.7128V154.099ZM70.9274 168.637V154.885H68.5261V154.099H70.9274V148.467L79.0481 146.458V154.099H84.7239V154.885H79.0481V169.598C79.0481 170.966 79.1791 171.97 79.4411 172.611C79.7321 173.251 80.3143 173.571 81.1875 173.571C82.0607 173.571 82.8174 173.134 83.4578 172.261C84.1272 171.388 84.5638 170.195 84.7676 168.681L85.5098 168.768C85.2769 170.777 84.6366 172.378 83.5888 173.571C82.5409 174.735 80.8091 175.317 78.3932 175.317C75.9774 175.317 74.1291 174.837 72.8484 173.877C71.5677 172.916 70.9274 171.17 70.9274 168.637ZM85.927 142.136H96.449V158.115C96.9147 156.777 97.6278 155.7 98.5884 154.885C99.5489 154.07 101.004 153.662 102.954 153.662C107.466 153.662 109.722 156.093 109.722 160.953V174.095H112.167V174.881H99.8108V174.095H101.601V159.905C101.601 158.159 101.484 157.038 101.252 156.544C101.019 156.02 100.597 155.758 99.9855 155.758C99.0541 155.758 98.2245 156.369 97.4969 157.591C96.7983 158.814 96.449 160.298 96.449 162.045V174.095H98.3264V174.881H85.927V174.095H88.3283V142.922H85.927V142.136ZM146.217 174.881H136.263L135.782 171.694C135.317 172.858 134.618 173.76 133.687 174.401C132.784 175.012 131.431 175.317 129.626 175.317C125.115 175.317 122.859 172.887 122.859 168.026V154.885H120.414V154.099H130.98V169.074C130.98 170.82 131.096 171.97 131.329 172.523C131.591 173.076 132.086 173.353 132.813 173.353C133.57 173.353 134.24 172.902 134.822 171.999C135.404 171.097 135.695 169.845 135.695 168.245V154.885H133.687V154.099H143.816V174.095H146.217V174.881ZM148.115 175.317V167.502H148.639C149.396 170.035 150.414 171.81 151.695 172.829C152.976 173.848 154.577 174.357 156.498 174.357C159.466 174.357 160.951 173.411 160.951 171.519C160.951 170.704 160.587 170.093 159.859 169.685C158.724 169.045 157.269 168.55 155.493 168.201C153.514 167.677 151.855 166.978 150.516 166.105C148.915 165.057 148.115 163.398 148.115 161.128C148.115 158.858 148.813 157.053 150.211 155.714C151.608 154.346 153.47 153.662 155.799 153.662C157.225 153.662 158.695 153.997 160.209 154.666C160.762 154.899 161.184 155.016 161.475 155.016C161.766 155.016 162.013 154.914 162.217 154.71C162.421 154.506 162.668 154.128 162.959 153.575H163.439V160.255H162.916C161.431 156.471 159.132 154.579 156.017 154.579C154.649 154.579 153.631 154.826 152.961 155.321C152.292 155.787 151.957 156.384 151.957 157.111C151.957 157.548 152.059 157.897 152.263 158.159C152.466 158.392 152.626 158.567 152.743 158.683C152.859 158.799 153.048 158.93 153.31 159.076C153.572 159.192 153.791 159.294 153.965 159.382C154.14 159.44 154.402 159.527 154.751 159.644C155.13 159.76 155.406 159.833 155.581 159.862C157.56 160.357 158.986 160.793 159.859 161.172C160.733 161.521 161.562 161.957 162.348 162.481C163.949 163.587 164.749 165.378 164.749 167.852C164.749 170.297 164.022 172.159 162.566 173.44C161.111 174.692 159.117 175.317 156.585 175.317C154.78 175.317 153.034 174.895 151.346 174.051C150.996 173.818 150.72 173.702 150.516 173.702C149.876 173.702 149.25 174.241 148.639 175.317H148.115Z" fill="#32312D"/>
<path d="M20.2351 201.051V188.451H25.4911C26.8471 188.451 27.9091 188.727 28.6771 189.279C29.4451 189.831 29.8291 190.629 29.8291 191.673C29.8291 192.357 29.6671 192.933 29.3431 193.401C29.0191 193.869 28.5691 194.223 27.9931 194.463C27.4291 194.691 26.7931 194.805 26.0851 194.805L26.4091 194.445C27.2731 194.445 28.0111 194.571 28.6231 194.823C29.2351 195.075 29.6971 195.441 30.0091 195.921C30.3331 196.401 30.4951 197.001 30.4951 197.721C30.4951 198.777 30.1111 199.599 29.3431 200.187C28.5751 200.763 27.4111 201.051 25.8511 201.051H20.2351ZM21.1531 200.259H25.8511C27.0631 200.259 27.9871 200.055 28.6231 199.647C29.2591 199.227 29.5771 198.561 29.5771 197.649C29.5771 196.749 29.2591 196.095 28.6231 195.687C27.9871 195.267 27.0631 195.057 25.8511 195.057H21.0451V194.265H25.4551C26.5471 194.265 27.3931 194.055 27.9931 193.635C28.5931 193.215 28.8931 192.585 28.8931 191.745C28.8931 190.917 28.5931 190.293 27.9931 189.873C27.3931 189.453 26.5471 189.243 25.4551 189.243H21.1531V200.259ZM33.7702 201.051V188.451H38.2882C39.3442 188.451 40.2502 188.619 41.0062 188.955C41.7622 189.291 42.3442 189.777 42.7522 190.413C43.1602 191.037 43.3642 191.799 43.3642 192.699C43.3642 193.575 43.1602 194.331 42.7522 194.967C42.3442 195.591 41.7622 196.077 41.0062 196.425C40.2502 196.761 39.3442 196.929 38.2882 196.929H34.2742L34.6882 196.497V201.051H33.7702ZM42.5182 201.051L39.2422 196.479H40.2862L43.5622 201.051H42.5182ZM34.6882 196.551L34.2742 196.119H38.2882C39.6442 196.119 40.6702 195.819 41.3662 195.219C42.0742 194.619 42.4282 193.779 42.4282 192.699C42.4282 191.607 42.0742 190.767 41.3662 190.179C40.6702 189.579 39.6442 189.279 38.2882 189.279H34.2742L34.6882 188.829V196.551ZM46.7253 201.051V188.451H47.6433V201.051H46.7253ZM52.0339 201.051V188.451H57.0199C58.3519 188.451 59.5219 188.721 60.5299 189.261C61.5379 189.801 62.3179 190.545 62.8699 191.493C63.4339 192.441 63.7159 193.527 63.7159 194.751C63.7159 195.975 63.4339 197.061 62.8699 198.009C62.3179 198.957 61.5379 199.701 60.5299 200.241C59.5219 200.781 58.3519 201.051 57.0199 201.051H52.0339ZM52.9519 200.223H56.9479C58.1359 200.223 59.1679 199.989 60.0439 199.521C60.9199 199.053 61.5979 198.411 62.0779 197.595C62.5579 196.767 62.7979 195.819 62.7979 194.751C62.7979 193.683 62.5579 192.741 62.0779 191.925C61.5979 191.097 60.9199 190.449 60.0439 189.981C59.1679 189.513 58.1359 189.279 56.9479 189.279H52.9519V200.223ZM64.6232 201.051L70.4192 188.451H71.3372L77.1332 201.051H76.1432L70.6712 189.027H71.0672L65.6132 201.051H64.6232ZM66.7472 197.505L67.0532 196.731H74.5952L74.9012 197.505H66.7472ZM79.4206 201.051V188.451H80.3386V200.223H87.5926V201.051H79.4206ZM97.417 201.141C96.625 201.141 95.917 201.009 95.293 200.745C94.681 200.481 94.195 200.115 93.835 199.647C93.487 199.167 93.313 198.615 93.313 197.991C93.313 197.475 93.427 197.001 93.655 196.569C93.883 196.125 94.255 195.687 94.771 195.255C95.299 194.811 96.001 194.343 96.877 193.851C97.645 193.407 98.251 193.023 98.695 192.699C99.139 192.375 99.451 192.063 99.631 191.763C99.811 191.463 99.901 191.139 99.901 190.791C99.901 190.275 99.727 189.861 99.379 189.549C99.043 189.237 98.557 189.081 97.921 189.081C97.249 189.081 96.721 189.255 96.337 189.603C95.965 189.939 95.779 190.389 95.779 190.953C95.779 191.217 95.821 191.469 95.905 191.709C95.989 191.949 96.139 192.219 96.355 192.519C96.583 192.807 96.895 193.167 97.291 193.599L103.969 200.637L103.429 201.231L96.553 193.995C96.133 193.551 95.803 193.161 95.563 192.825C95.323 192.489 95.155 192.177 95.059 191.889C94.975 191.589 94.933 191.277 94.933 190.953C94.933 190.437 95.053 189.987 95.293 189.603C95.545 189.219 95.893 188.919 96.337 188.703C96.793 188.487 97.321 188.379 97.921 188.379C98.485 188.379 98.971 188.475 99.379 188.667C99.799 188.859 100.123 189.135 100.351 189.495C100.579 189.843 100.693 190.269 100.693 190.773C100.693 191.217 100.585 191.631 100.369 192.015C100.165 192.387 99.817 192.765 99.325 193.149C98.833 193.521 98.161 193.947 97.309 194.427C96.517 194.883 95.893 195.297 95.437 195.669C94.981 196.041 94.657 196.407 94.465 196.767C94.285 197.115 94.195 197.499 94.195 197.919C94.195 198.411 94.333 198.843 94.609 199.215C94.885 199.587 95.263 199.875 95.743 200.079C96.235 200.283 96.805 200.385 97.453 200.385C98.317 200.385 99.085 200.211 99.757 199.863C100.429 199.503 100.993 198.963 101.449 198.243C101.905 197.523 102.235 196.617 102.439 195.525L103.177 195.759C102.949 196.947 102.571 197.943 102.043 198.747C101.515 199.539 100.861 200.139 100.081 200.547C99.301 200.943 98.413 201.141 97.417 201.141ZM111.801 194.247H118.623V195.057H111.801V194.247ZM111.909 200.223H119.685V201.051H110.991V188.451H119.415V189.279H111.909V200.223ZM126.384 201.051L120.768 188.451H121.776L127.14 200.493H126.582L131.964 188.451H132.918L127.302 201.051H126.384ZM135.76 194.247H142.582V195.057H135.76V194.247ZM135.868 200.223H143.644V201.051H134.95V188.451H143.374V189.279H135.868V200.223ZM146.991 201.051V188.451H147.765L156.747 199.917H156.333V188.451H157.251V201.051H156.495L147.495 189.585H147.909V201.051H146.991ZM164.063 201.051V189.279H159.527V188.451H169.517V189.279H164.981V201.051H164.063Z" fill="#32312D"/>
<path d="M20.2351 223.051V210.451H24.7531C25.8091 210.451 26.7151 210.619 27.4711 210.955C28.2271 211.291 28.8091 211.777 29.2171 212.413C29.6251 213.037 29.8291 213.799 29.8291 214.699C29.8291 215.575 29.6251 216.331 29.2171 216.967C28.8091 217.603 28.2271 218.089 27.4711 218.425C26.7151 218.761 25.8091 218.929 24.7531 218.929H20.7391L21.1531 218.497V223.051H20.2351ZM21.1531 218.551L20.7391 218.101H24.7531C26.1091 218.101 27.1351 217.807 27.8311 217.219C28.5391 216.619 28.8931 215.779 28.8931 214.699C28.8931 213.607 28.5391 212.767 27.8311 212.179C27.1351 211.579 26.1091 211.279 24.7531 211.279H20.7391L21.1531 210.829V218.551ZM30.1877 223.051L35.9837 210.451H36.9017L42.6977 223.051H41.7077L36.2357 211.027H36.6317L31.1777 223.051H30.1877ZM32.3117 219.505L32.6177 218.731H40.1597L40.4657 219.505H32.3117ZM50.1373 223.141C49.2013 223.141 48.3313 222.985 47.5273 222.673C46.7353 222.349 46.0453 221.899 45.4573 221.323C44.8693 220.747 44.4133 220.075 44.0893 219.307C43.7653 218.527 43.6033 217.675 43.6033 216.751C43.6033 215.827 43.7653 214.981 44.0893 214.213C44.4133 213.433 44.8693 212.755 45.4573 212.179C46.0573 211.603 46.7533 211.159 47.5453 210.847C48.3373 210.523 49.2013 210.361 50.1373 210.361C51.0253 210.361 51.8533 210.505 52.6213 210.793C53.4013 211.081 54.0673 211.519 54.6193 212.107L54.0433 212.701C53.5033 212.173 52.9033 211.795 52.2433 211.567C51.5953 211.327 50.9053 211.207 50.1733 211.207C49.3693 211.207 48.6193 211.345 47.9233 211.621C47.2393 211.897 46.6393 212.287 46.1233 212.791C45.6193 213.295 45.2233 213.883 44.9353 214.555C44.6593 215.227 44.5213 215.959 44.5213 216.751C44.5213 217.543 44.6593 218.275 44.9353 218.947C45.2233 219.619 45.6193 220.207 46.1233 220.711C46.6393 221.215 47.2393 221.605 47.9233 221.881C48.6193 222.157 49.3693 222.295 50.1733 222.295C50.9053 222.295 51.5953 222.181 52.2433 221.953C52.9033 221.713 53.5033 221.323 54.0433 220.783L54.6193 221.377C54.0673 221.965 53.4013 222.409 52.6213 222.709C51.8533 222.997 51.0253 223.141 50.1373 223.141ZM58.486 219.865L58.45 218.713L66.478 210.451H67.594L61.978 216.265L61.456 216.823L58.486 219.865ZM57.694 223.051V210.451H58.612V223.051H57.694ZM66.856 223.051L61.186 216.571L61.816 215.905L67.972 223.051H66.856ZM67.7697 223.051L73.5657 210.451H74.4837L80.2797 223.051H79.2897L73.8177 211.027H74.2137L68.7597 223.051H67.7697ZM69.8937 219.505L70.1997 218.731H77.7417L78.0477 219.505H69.8937ZM87.7733 223.141C86.8253 223.141 85.9493 222.985 85.1453 222.673C84.3413 222.349 83.6393 221.899 83.0393 221.323C82.4513 220.747 81.9953 220.075 81.6713 219.307C81.3473 218.527 81.1853 217.675 81.1853 216.751C81.1853 215.827 81.3473 214.981 81.6713 214.213C81.9953 213.433 82.4573 212.755 83.0573 212.179C83.6573 211.603 84.3533 211.159 85.1453 210.847C85.9493 210.523 86.8313 210.361 87.7913 210.361C88.7033 210.361 89.5493 210.505 90.3293 210.793C91.1093 211.081 91.7753 211.513 92.3273 212.089L91.7513 212.701C91.1993 212.161 90.5933 211.777 89.9333 211.549C89.2853 211.321 88.5773 211.207 87.8093 211.207C86.9933 211.207 86.2373 211.345 85.5413 211.621C84.8453 211.897 84.2393 212.287 83.7233 212.791C83.2073 213.295 82.8053 213.883 82.5173 214.555C82.2413 215.227 82.1033 215.959 82.1033 216.751C82.1033 217.543 82.2413 218.275 82.5173 218.947C82.8053 219.619 83.2073 220.207 83.7233 220.711C84.2393 221.215 84.8453 221.605 85.5413 221.881C86.2373 222.157 86.9933 222.295 87.8093 222.295C88.5533 222.295 89.2553 222.181 89.9153 221.953C90.5873 221.725 91.1993 221.347 91.7513 220.819L92.2733 221.521C91.7093 222.061 91.0313 222.469 90.2393 222.745C89.4593 223.009 88.6373 223.141 87.7733 223.141ZM91.3913 221.431V216.805H92.2733V221.521L91.3913 221.431ZM97.1232 216.247H103.945V217.057H97.1232V216.247ZM97.2312 222.223H105.007V223.051H96.3132V210.451H104.737V211.279H97.2312V222.223ZM111.666 223.141C110.73 223.141 109.842 222.985 109.002 222.673C108.174 222.349 107.532 221.935 107.076 221.431L107.49 220.747C107.922 221.191 108.51 221.569 109.254 221.881C110.01 222.181 110.808 222.331 111.648 222.331C112.488 222.331 113.172 222.223 113.7 222.007C114.24 221.779 114.636 221.479 114.888 221.107C115.152 220.735 115.284 220.321 115.284 219.865C115.284 219.325 115.14 218.893 114.852 218.569C114.564 218.245 114.186 217.987 113.718 217.795C113.25 217.603 112.74 217.441 112.188 217.309C111.636 217.177 111.078 217.039 110.514 216.895C109.95 216.739 109.434 216.541 108.966 216.301C108.498 216.061 108.12 215.737 107.832 215.329C107.556 214.909 107.418 214.369 107.418 213.709C107.418 213.109 107.574 212.557 107.886 212.053C108.198 211.549 108.684 211.141 109.344 210.829C110.004 210.517 110.85 210.361 111.882 210.361C112.578 210.361 113.262 210.463 113.934 210.667C114.618 210.871 115.2 211.147 115.68 211.495L115.338 212.233C114.81 211.873 114.24 211.609 113.628 211.441C113.028 211.261 112.446 211.171 111.882 211.171C111.078 211.171 110.412 211.285 109.884 211.513C109.356 211.741 108.966 212.047 108.714 212.431C108.462 212.803 108.336 213.223 108.336 213.691C108.336 214.231 108.474 214.663 108.75 214.987C109.038 215.311 109.416 215.569 109.884 215.761C110.352 215.953 110.868 216.115 111.432 216.247C111.996 216.379 112.554 216.523 113.106 216.679C113.658 216.823 114.168 217.015 114.636 217.255C115.104 217.495 115.482 217.819 115.77 218.227C116.058 218.635 116.202 219.163 116.202 219.811C116.202 220.399 116.04 220.951 115.716 221.467C115.392 221.971 114.894 222.379 114.222 222.691C113.562 222.991 112.71 223.141 111.666 223.141Z" fill="#32312D"/>
<path d="M25.1348 331.185C23.9033 331.185 22.7258 331 21.602 330.631C20.4783 330.246 19.5932 329.753 18.9467 329.153L19.801 327.352C20.4168 327.891 21.2018 328.337 22.1562 328.691C23.1106 329.045 24.1035 329.222 25.1348 329.222C26.0738 329.222 26.8358 329.114 27.4207 328.899C28.0057 328.683 28.4367 328.391 28.7138 328.021C28.9908 327.637 29.1294 327.206 29.1294 326.728C29.1294 326.174 28.9447 325.728 28.5752 325.389C28.2212 325.05 27.7517 324.781 27.1667 324.581C26.5972 324.365 25.9661 324.181 25.2734 324.027C24.5807 323.873 23.8803 323.696 23.1722 323.496C22.4795 323.28 21.8406 323.011 21.2557 322.688C20.6861 322.364 20.2243 321.933 19.8703 321.395C19.5162 320.84 19.3392 320.132 19.3392 319.27C19.3392 318.439 19.5547 317.677 19.9857 316.984C20.4321 316.276 21.1095 315.714 22.0177 315.299C22.9413 314.868 24.1112 314.652 25.5273 314.652C26.4663 314.652 27.3976 314.775 28.3212 315.022C29.2448 315.268 30.0453 315.622 30.7226 316.084L29.9606 317.931C29.2679 317.469 28.5367 317.138 27.7671 316.938C26.9974 316.723 26.2508 316.615 25.5273 316.615C24.6191 316.615 23.8726 316.73 23.2876 316.961C22.7027 317.192 22.2717 317.5 21.9946 317.885C21.7329 318.27 21.602 318.701 21.602 319.178C21.602 319.747 21.7791 320.202 22.1331 320.54C22.5026 320.879 22.972 321.148 23.5416 321.348C24.1265 321.548 24.7654 321.733 25.4581 321.903C26.1508 322.056 26.8435 322.233 27.5362 322.434C28.2443 322.634 28.8831 322.895 29.4526 323.219C30.0376 323.542 30.5071 323.973 30.8611 324.512C31.2152 325.05 31.3922 325.743 31.3922 326.59C31.3922 327.406 31.169 328.168 30.7226 328.876C30.2762 329.568 29.5835 330.13 28.6445 330.561C27.7209 330.977 26.551 331.185 25.1348 331.185ZM41.9927 331.185C40.7612 331.185 39.6221 330.985 38.5754 330.584C37.544 330.169 36.6435 329.592 35.8738 328.853C35.1196 328.098 34.5269 327.221 34.0959 326.22C33.6649 325.22 33.4494 324.119 33.4494 322.918C33.4494 321.718 33.6649 320.617 34.0959 319.617C34.5269 318.616 35.1272 317.746 35.8969 317.007C36.6666 316.253 37.5671 315.676 38.5984 315.276C39.6452 314.86 40.7843 314.652 42.0158 314.652C43.2626 314.652 44.4094 314.868 45.4562 315.299C46.5183 315.714 47.4188 316.338 48.1577 317.169L46.6569 318.624C46.0411 317.977 45.3484 317.5 44.5788 317.192C43.8091 316.869 42.9855 316.707 42.1081 316.707C41.1999 316.707 40.3533 316.861 39.5682 317.169C38.7986 317.477 38.1289 317.908 37.5594 318.462C36.9898 319.016 36.5434 319.678 36.2202 320.448C35.9123 321.202 35.7584 322.026 35.7584 322.918C35.7584 323.811 35.9123 324.643 36.2202 325.412C36.5434 326.166 36.9898 326.821 37.5594 327.375C38.1289 327.929 38.7986 328.36 39.5682 328.668C40.3533 328.976 41.1999 329.13 42.1081 329.13C42.9855 329.13 43.8091 328.976 44.5788 328.668C45.3484 328.345 46.0411 327.852 46.6569 327.19L48.1577 328.645C47.4188 329.476 46.5183 330.107 45.4562 330.538C44.4094 330.969 43.2549 331.185 41.9927 331.185ZM63.0428 314.837H65.3518V331H63.0428V314.837ZM53.7606 331H51.4516V314.837H53.7606V331ZM63.2506 323.796H53.5297V321.787H63.2506V323.796ZM72.2909 321.81H80.6033V323.773H72.2909V321.81ZM72.4987 328.991H81.9194V331H70.1897V314.837H81.5962V316.846H72.4987V328.991ZM85.6582 331V314.837H92.4698C94.1938 314.837 95.7101 315.176 97.0185 315.853C98.3423 316.53 99.366 317.477 100.089 318.693C100.828 319.909 101.198 321.318 101.198 322.918C101.198 324.519 100.828 325.928 100.089 327.144C99.366 328.36 98.3423 329.307 97.0185 329.984C95.7101 330.661 94.1938 331 92.4698 331H85.6582ZM87.9672 328.991H92.3312C93.6704 328.991 94.8249 328.737 95.7947 328.229C96.7799 327.721 97.5419 327.013 98.0806 326.105C98.6194 325.181 98.8888 324.119 98.8888 322.918C98.8888 321.702 98.6194 320.64 98.0806 319.732C97.5419 318.824 96.7799 318.116 95.7947 317.608C94.8249 317.1 93.6704 316.846 92.3312 316.846H87.9672V328.991ZM111.431 331.185C109.306 331.185 107.636 330.577 106.42 329.361C105.204 328.145 104.596 326.367 104.596 324.027V314.837H106.905V323.934C106.905 325.735 107.298 327.052 108.083 327.883C108.883 328.714 110.007 329.13 111.454 329.13C112.916 329.13 114.04 328.714 114.825 327.883C115.625 327.052 116.026 325.735 116.026 323.934V314.837H118.265V324.027C118.265 326.367 117.657 328.145 116.441 329.361C115.24 330.577 113.57 331.185 111.431 331.185ZM122.999 331V314.837H125.308V328.991H134.059V331H122.999ZM138.81 321.81H147.122V323.773H138.81V321.81ZM139.018 328.991H148.438V331H136.709V314.837H148.115V316.846H139.018V328.991ZM152.227 321.81C151.796 321.81 151.427 321.664 151.119 321.371C150.811 321.064 150.657 320.679 150.657 320.217C150.657 319.755 150.811 319.378 151.119 319.086C151.427 318.793 151.796 318.647 152.227 318.647C152.643 318.647 152.997 318.793 153.289 319.086C153.597 319.378 153.751 319.755 153.751 320.217C153.751 320.679 153.597 321.064 153.289 321.371C152.997 321.664 152.643 321.81 152.227 321.81ZM152.227 331.139C151.796 331.139 151.427 330.992 151.119 330.7C150.811 330.392 150.657 330.007 150.657 329.545C150.657 329.084 150.811 328.706 151.119 328.414C151.427 328.121 151.796 327.975 152.227 327.975C152.643 327.975 152.997 328.121 153.289 328.414C153.597 328.706 153.751 329.084 153.751 329.545C153.751 330.007 153.597 330.392 153.289 330.7C152.997 330.992 152.643 331.139 152.227 331.139Z" fill="#32312D"/>
<path d="M20.4245 358.711V342.548H27.6747C29.5373 342.548 30.9689 342.925 31.9695 343.679C32.97 344.418 33.4703 345.434 33.4703 346.727C33.4703 347.605 33.2702 348.344 32.87 348.944C32.4851 349.544 31.9618 350.006 31.2998 350.329C30.6379 350.653 29.9221 350.814 29.1525 350.814L29.5681 350.121C30.4917 350.121 31.3075 350.283 32.0156 350.606C32.7237 350.93 33.2856 351.407 33.7012 352.038C34.1168 352.654 34.3246 353.423 34.3246 354.347C34.3246 355.732 33.8013 356.81 32.7545 357.58C31.7232 358.334 30.1838 358.711 28.1365 358.711H20.4245ZM22.7335 356.841H28.0442C29.3218 356.841 30.2993 356.625 30.9766 356.194C31.6539 355.763 31.9925 355.086 31.9925 354.162C31.9925 353.223 31.6539 352.538 30.9766 352.107C30.2993 351.676 29.3218 351.461 28.0442 351.461H22.5256V349.59H27.4669C28.6368 349.59 29.545 349.375 30.1915 348.944C30.838 348.513 31.1613 347.866 31.1613 347.004C31.1613 346.142 30.838 345.496 30.1915 345.065C29.545 344.634 28.6368 344.418 27.4669 344.418H22.7335V356.841ZM38.1076 363.329C37.5227 363.329 36.9531 363.229 36.3989 363.029C35.8448 362.844 35.3676 362.567 34.9674 362.198L35.9141 360.535C36.2219 360.828 36.5606 361.051 36.93 361.205C37.2995 361.359 37.692 361.436 38.1076 361.436C38.6464 361.436 39.0928 361.297 39.4468 361.02C39.8009 360.743 40.1318 360.25 40.4397 359.542L41.2017 357.857L41.4326 357.58L46.2353 346.473H48.4057L42.4716 359.935C42.1176 360.797 41.7173 361.474 41.2709 361.967C40.8399 362.459 40.3627 362.806 39.8394 363.006C39.316 363.221 38.7387 363.329 38.1076 363.329ZM41.0169 359.103L35.4292 346.473H37.7382L42.4947 357.372L41.0169 359.103ZM64.272 358.711V356.125L64.1566 355.64V351.23C64.1566 350.291 63.8795 349.567 63.3253 349.059C62.7865 348.536 61.9707 348.274 60.8778 348.274C60.1543 348.274 59.4462 348.397 58.7535 348.644C58.0608 348.875 57.4758 349.19 56.9986 349.59L56.075 347.928C56.7062 347.42 57.4604 347.035 58.3379 346.773C59.2307 346.496 60.162 346.358 61.1318 346.358C62.8096 346.358 64.1027 346.766 65.0109 347.582C65.9191 348.397 66.3732 349.644 66.3732 351.322V358.711H64.272ZM60.2543 358.849C59.3461 358.849 58.5457 358.696 57.853 358.388C57.1757 358.08 56.6523 357.656 56.2829 357.118C55.9134 356.564 55.7287 355.94 55.7287 355.247C55.7287 354.586 55.8826 353.985 56.1905 353.446C56.5138 352.908 57.0294 352.477 57.7375 352.153C58.461 351.83 59.4308 351.668 60.6469 351.668H64.526V353.262H60.7392C59.6309 353.262 58.8843 353.446 58.4995 353.816C58.1147 354.185 57.9222 354.632 57.9222 355.155C57.9222 355.755 58.1608 356.24 58.638 356.61C59.1152 356.964 59.7771 357.141 60.6238 357.141C61.455 357.141 62.1785 356.956 62.7942 356.587C63.4254 356.217 63.8795 355.678 64.1566 354.97L64.5953 356.494C64.3028 357.218 63.7871 357.795 63.0482 358.226C62.3093 358.642 61.3781 358.849 60.2543 358.849ZM76.9636 358.849C75.9476 358.849 75.0163 358.619 74.1697 358.157C73.3384 357.68 72.6688 356.979 72.1608 356.056C71.6683 355.132 71.422 353.977 71.422 352.592C71.422 351.207 71.6606 350.052 72.1378 349.129C72.6303 348.205 73.2923 347.512 74.1235 347.05C74.9701 346.589 75.9168 346.358 76.9636 346.358C78.1642 346.358 79.2264 346.619 80.15 347.143C81.0736 347.666 81.8048 348.397 82.3435 349.336C82.8823 350.26 83.1517 351.345 83.1517 352.592C83.1517 353.839 82.8823 354.932 82.3435 355.871C81.8048 356.81 81.0736 357.541 80.15 358.064C79.2264 358.588 78.1642 358.849 76.9636 358.849ZM70.4753 363.19V346.473H72.5996V349.775L72.461 352.615L72.6919 355.455V363.19H70.4753ZM76.7788 356.91C77.5639 356.91 78.2643 356.733 78.88 356.379C79.5112 356.025 80.0037 355.525 80.3578 354.878C80.7272 354.216 80.912 353.454 80.912 352.592C80.912 351.715 80.7272 350.96 80.3578 350.329C80.0037 349.683 79.5112 349.182 78.88 348.828C78.2643 348.474 77.5639 348.297 76.7788 348.297C76.0092 348.297 75.3088 348.474 74.6777 348.828C74.0619 349.182 73.5693 349.683 73.1999 350.329C72.8458 350.96 72.6688 351.715 72.6688 352.592C72.6688 353.454 72.8458 354.216 73.1999 354.878C73.5693 355.525 74.0619 356.025 74.6777 356.379C75.3088 356.733 76.0092 356.91 76.7788 356.91ZM92.7026 358.849C91.6867 358.849 90.7554 358.619 89.9088 358.157C89.0775 357.68 88.4079 356.979 87.8999 356.056C87.4073 355.132 87.161 353.977 87.161 352.592C87.161 351.207 87.3996 350.052 87.8768 349.129C88.3694 348.205 89.0313 347.512 89.8626 347.05C90.7092 346.589 91.6559 346.358 92.7026 346.358C93.9033 346.358 94.9655 346.619 95.8891 347.143C96.8127 347.666 97.5439 348.397 98.0826 349.336C98.6214 350.26 98.8908 351.345 98.8908 352.592C98.8908 353.839 98.6214 354.932 98.0826 355.871C97.5439 356.81 96.8127 357.541 95.8891 358.064C94.9655 358.588 93.9033 358.849 92.7026 358.849ZM86.2144 363.19V346.473H88.3386V349.775L88.2001 352.615L88.431 355.455V363.19H86.2144ZM92.5179 356.91C93.303 356.91 94.0034 356.733 94.6191 356.379C95.2502 356.025 95.7428 355.525 96.0969 354.878C96.4663 354.216 96.651 353.454 96.651 352.592C96.651 351.715 96.4663 350.96 96.0969 350.329C95.7428 349.683 95.2502 349.182 94.6191 348.828C94.0034 348.474 93.303 348.297 92.5179 348.297C91.7483 348.297 91.0479 348.474 90.4167 348.828C89.801 349.182 89.3084 349.683 88.939 350.329C88.5849 350.96 88.4079 351.715 88.4079 352.592C88.4079 353.454 88.5849 354.216 88.939 354.878C89.3084 355.525 89.801 356.025 90.4167 356.379C91.0479 356.733 91.7483 356.91 92.5179 356.91ZM107.195 358.849C105.963 358.849 104.87 358.58 103.916 358.041C102.962 357.503 102.207 356.764 101.653 355.825C101.099 354.87 100.822 353.793 100.822 352.592C100.822 351.376 101.099 350.298 101.653 349.359C102.207 348.42 102.962 347.689 103.916 347.166C104.87 346.627 105.963 346.358 107.195 346.358C108.411 346.358 109.496 346.627 110.451 347.166C111.42 347.689 112.175 348.42 112.713 349.359C113.268 350.283 113.545 351.361 113.545 352.592C113.545 353.808 113.268 354.886 112.713 355.825C112.175 356.764 111.42 357.503 110.451 358.041C109.496 358.58 108.411 358.849 107.195 358.849ZM107.195 356.91C107.98 356.91 108.68 356.733 109.296 356.379C109.927 356.025 110.42 355.525 110.774 354.878C111.128 354.216 111.305 353.454 111.305 352.592C111.305 351.715 111.128 350.96 110.774 350.329C110.42 349.683 109.927 349.182 109.296 348.828C108.68 348.474 107.98 348.297 107.195 348.297C106.41 348.297 105.709 348.474 105.094 348.828C104.478 349.182 103.985 349.683 103.616 350.329C103.246 350.96 103.062 351.715 103.062 352.592C103.062 353.454 103.246 354.216 103.616 354.878C103.985 355.525 104.478 356.025 105.094 356.379C105.709 356.733 106.41 356.91 107.195 356.91ZM116.61 358.711V346.473H118.827V358.711H116.61ZM117.718 344.118C117.287 344.118 116.926 343.98 116.633 343.702C116.356 343.425 116.218 343.087 116.218 342.686C116.218 342.271 116.356 341.925 116.633 341.647C116.926 341.37 117.287 341.232 117.718 341.232C118.15 341.232 118.504 341.37 118.781 341.647C119.073 341.909 119.219 342.24 119.219 342.64C119.219 343.056 119.081 343.41 118.804 343.702C118.527 343.98 118.165 344.118 117.718 344.118ZM129.594 346.358C130.594 346.358 131.472 346.55 132.226 346.935C132.996 347.32 133.596 347.905 134.027 348.69C134.458 349.475 134.673 350.468 134.673 351.668V358.711H132.457V351.922C132.457 350.737 132.164 349.844 131.579 349.244C131.01 348.644 130.202 348.344 129.155 348.344C128.37 348.344 127.685 348.497 127.1 348.805C126.515 349.113 126.061 349.567 125.738 350.168C125.43 350.768 125.276 351.515 125.276 352.407V358.711H123.059V346.473H125.183V349.775L124.837 348.898C125.237 348.097 125.853 347.474 126.684 347.027C127.516 346.581 128.485 346.358 129.594 346.358ZM142.978 358.849C141.747 358.849 140.792 358.519 140.115 357.857C139.438 357.195 139.099 356.248 139.099 355.017V343.795H141.316V354.924C141.316 355.586 141.477 356.094 141.8 356.448C142.139 356.802 142.616 356.979 143.232 356.979C143.925 356.979 144.502 356.787 144.964 356.402L145.656 357.995C145.318 358.288 144.91 358.503 144.433 358.642C143.971 358.78 143.486 358.849 142.978 358.849ZM137.021 348.297V346.473H144.825V348.297H137.021ZM163.645 346.358C164.63 346.358 165.5 346.55 166.254 346.935C167.008 347.32 167.593 347.905 168.009 348.69C168.44 349.475 168.656 350.468 168.656 351.668V358.711H166.439V351.922C166.439 350.737 166.162 349.844 165.608 349.244C165.054 348.644 164.276 348.344 163.276 348.344C162.537 348.344 161.89 348.497 161.336 348.805C160.782 349.113 160.351 349.567 160.043 350.168C159.751 350.768 159.604 351.515 159.604 352.407V358.711H157.388V351.922C157.388 350.737 157.111 349.844 156.556 349.244C156.018 348.644 155.24 348.344 154.224 348.344C153.501 348.344 152.862 348.497 152.308 348.805C151.754 349.113 151.323 349.567 151.015 350.168C150.707 350.768 150.553 351.515 150.553 352.407V358.711H148.336V346.473H150.461V349.729L150.114 348.898C150.499 348.097 151.092 347.474 151.892 347.027C152.693 346.581 153.624 346.358 154.686 346.358C155.856 346.358 156.864 346.65 157.711 347.235C158.558 347.805 159.112 348.674 159.373 349.844L158.473 349.475C158.842 348.536 159.489 347.782 160.412 347.212C161.336 346.643 162.414 346.358 163.645 346.358ZM178.183 358.849C176.875 358.849 175.721 358.58 174.72 358.041C173.735 357.503 172.965 356.764 172.411 355.825C171.872 354.886 171.603 353.808 171.603 352.592C171.603 351.376 171.864 350.298 172.388 349.359C172.927 348.42 173.658 347.689 174.581 347.166C175.52 346.627 176.575 346.358 177.745 346.358C178.93 346.358 179.977 346.619 180.885 347.143C181.793 347.666 182.501 348.405 183.009 349.359C183.533 350.298 183.794 351.399 183.794 352.661C183.794 352.754 183.787 352.861 183.771 352.985C183.771 353.108 183.764 353.223 183.748 353.331H173.335V351.738H182.594L181.693 352.292C181.709 351.507 181.547 350.806 181.208 350.191C180.87 349.575 180.4 349.098 179.8 348.759C179.215 348.405 178.53 348.228 177.745 348.228C176.975 348.228 176.29 348.405 175.69 348.759C175.089 349.098 174.62 349.583 174.281 350.214C173.943 350.83 173.773 351.538 173.773 352.338V352.708C173.773 353.523 173.958 354.255 174.327 354.901C174.712 355.532 175.243 356.025 175.921 356.379C176.598 356.733 177.375 356.91 178.253 356.91C178.976 356.91 179.63 356.787 180.215 356.54C180.816 356.294 181.339 355.925 181.785 355.432L183.009 356.864C182.455 357.51 181.762 358.003 180.931 358.341C180.115 358.68 179.199 358.849 178.183 358.849ZM193.407 346.358C194.407 346.358 195.285 346.55 196.039 346.935C196.809 347.32 197.409 347.905 197.84 348.69C198.271 349.475 198.487 350.468 198.487 351.668V358.711H196.27V351.922C196.27 350.737 195.977 349.844 195.393 349.244C194.823 348.644 194.015 348.344 192.968 348.344C192.183 348.344 191.498 348.497 190.913 348.805C190.328 349.113 189.874 349.567 189.551 350.168C189.243 350.768 189.089 351.515 189.089 352.407V358.711H186.872V346.473H188.997V349.775L188.65 348.898C189.05 348.097 189.666 347.474 190.497 347.027C191.329 346.581 192.298 346.358 193.407 346.358ZM206.791 358.849C205.56 358.849 204.605 358.519 203.928 357.857C203.251 357.195 202.912 356.248 202.912 355.017V343.795H205.129V354.924C205.129 355.586 205.29 356.094 205.614 356.448C205.952 356.802 206.429 356.979 207.045 356.979C207.738 356.979 208.315 356.787 208.777 356.402L209.47 357.995C209.131 358.288 208.723 358.503 208.246 358.642C207.784 358.78 207.299 358.849 206.791 358.849ZM200.834 348.297V346.473H208.638V348.297H200.834Z" fill="#32312D"/>
<g opacity="0.7">
<path d="M186.205 222.975C186.015 223.77 185.899 224.61 186.121 225.396C186.748 227.621 189.562 228.268 191.874 228.328C193.775 228.378 195.68 228.301 197.57 228.095C198.766 227.965 199.993 227.773 201.022 227.149C202.26 226.399 203.07 225.115 203.727 223.825C204.951 221.422 205.81 218.606 204.955 216.049C201.281 205.053 187.676 216.826 186.205 222.975Z" fill="#B2B8A9"/>
</g>
<g opacity="0.7">
<path d="M213.056 204.74C210.687 207.909 210.461 212.526 212.508 215.911C213.484 217.526 214.9 218.834 216.44 219.923C218.646 221.483 221.308 222.656 223.99 222.321C225.5 222.133 226.909 221.478 228.27 220.795C230.918 219.467 233.57 217.929 235.349 215.56C237.127 213.192 237.836 209.799 236.353 207.235C235.16 205.176 232.87 204.058 230.711 203.055C225.029 200.421 217.483 198.82 213.056 204.74Z" fill="#B2B8A9"/>
</g>
<g opacity="0.7">
<path d="M209.776 176.175C208.319 179.467 208.122 183.709 210.601 186.318C211.878 187.661 213.683 188.38 215.488 188.802C218.19 189.434 221.027 189.486 223.751 188.954C224.918 188.726 226.081 188.383 227.08 187.742C227.864 187.239 228.526 186.561 229.063 185.801C237.155 174.348 215.671 162.858 209.776 176.175Z" fill="#B2B8A9"/>
</g>
<path opacity="0.7" d="M194.931 191.079C191.942 189.83 188.312 192.275 187.598 195.435C186.886 198.595 188.519 201.921 190.946 204.066C191.752 204.778 192.668 205.404 193.71 205.676C197.047 206.545 200.177 203.567 201.716 200.483C202.1 199.713 202.44 198.903 202.518 198.045C202.691 196.137 201.501 194.311 199.947 193.193C198.393 192.074 196.509 191.528 194.666 191.003" fill="#B2B8A9"/>
<g opacity="0.7">
<path d="M236.867 181.005C233.775 184.51 232.058 189.427 233.142 193.975C233.69 196.27 235.142 198.566 237.417 199.194C238.999 199.631 240.705 199.185 242.171 198.447C245.4 196.818 247.782 193.831 249.347 190.571C250.911 187.311 251.743 183.755 252.562 180.234C252.948 178.579 253.316 176.768 252.564 175.245C249.936 169.929 238.968 178.624 236.867 181.005Z" fill="#B2B8A9"/>
</g>
<path opacity="0.7" d="M239.67 162.949C238.256 162.059 236.804 161.151 235.168 160.816C233.533 160.479 231.649 160.828 230.577 162.109C229.436 163.473 229.519 165.573 230.406 167.114C231.292 168.654 232.831 169.714 234.432 170.486C236.525 171.498 238.859 172.115 241.174 171.902C243.488 171.689 245.775 170.574 247.103 168.666C247.869 167.563 248.273 166.03 247.559 164.894C246.029 162.458 241.753 164.407 239.587 162.514" fill="#B2B8A9"/>
<g opacity="0.7">
<path d="M241.746 134.285C241.355 134.126 240.944 133.965 240.524 134.007C239.839 134.074 239.328 134.65 238.93 135.212C236.619 138.484 235.768 142.749 236.65 146.657C237.531 150.566 240.131 154.052 243.623 156.014C244.567 156.545 245.694 156.974 246.712 156.604C247.788 156.215 248.37 155.081 248.851 154.044C250.301 150.917 251.781 147.668 251.802 144.221C251.845 137.602 246.807 136.33 241.746 134.285Z" fill="#B2B8A9"/>
</g>
</g>
<defs>
<clipPath id="clip0_764_2387">
<rect width="270" height="390" fill="white"/>
</clipPath>
</defs>
</svg>
